<svg width="895" height="894" viewBox="0 0 895 894" fill="none" xmlns="http://www.w3.org/2000/svg">
<path d="M177.718 0.972624C178.693 0.981648 179.667 0.990671 180.671 0.999968C183.062 1.02341 185.452 1.05622 187.843 1.09762C187.843 2.08762 187.843 3.07762 187.843 4.09762C187.183 4.09762 186.523 4.09762 185.843 4.09762C185.843 6.07762 185.843 8.05762 185.843 10.0976C186.771 10.3864 187.699 10.6751 188.656 10.9726C191.843 12.0976 191.843 12.0976 194.843 14.0976C197.003 14.6399 197.003 14.6399 199.39 14.9961C204.871 16.0196 209.901 17.7134 215.093 19.7226C216.005 20.0745 216.916 20.4265 217.856 20.789C231.019 26.008 245.102 32.4635 251.781 45.5976C253.073 48.1657 253.073 48.1657 254.843 50.0976C257.519 50.6997 259.644 50.5502 262.363 50.25C266.157 50.0169 268.522 51.3647 271.843 53.0976C272.173 51.4476 272.503 49.7976 272.843 48.0976C277.127 49.4258 278.821 50.9229 281.156 54.7226C281.667 55.5399 282.179 56.3572 282.706 57.1992C283.269 58.1389 283.269 58.1389 283.843 59.0976C284.503 58.1076 285.163 57.1176 285.843 56.0976C287.163 56.4276 288.483 56.7576 289.843 57.0976C290.15 58.3796 290.15 58.3796 290.464 59.6875C290.734 60.7922 291.003 61.8969 291.281 63.0351C291.547 64.1373 291.814 65.2394 292.089 66.375C292.573 68.9918 292.573 68.9918 293.843 70.0976C296.706 70.1709 299.544 70.19 302.406 70.1601C303.615 70.1534 303.615 70.1534 304.849 70.1465C306.847 70.1346 308.845 70.1167 310.843 70.0976C311.397 71.241 311.952 72.3844 312.523 73.5625C313.254 75.0535 313.986 76.5444 314.718 78.0351C315.265 79.1672 315.265 79.1672 315.824 80.3222C316.178 81.0409 316.532 81.7595 316.898 82.5C317.385 83.4976 317.385 83.4976 317.882 84.5154C318.761 86.2781 318.761 86.2781 320.843 87.0976C323.174 87.4055 325.505 87.6066 327.847 87.8164C329.843 88.0976 329.843 88.0976 330.843 89.0976C331.143 90.9264 331.407 92.7611 331.656 94.5976C332.742 101.355 334.673 106.843 338.468 112.535C342.236 115.014 346.432 115.458 350.843 116.098C351.214 117.892 351.214 117.892 351.593 119.723C353.027 125.32 355.083 128.959 360.031 132.16C361.296 132.817 362.567 133.462 363.843 134.098C374.756 139.83 374.756 139.83 376.843 143.098C377.448 147.823 377.032 152.489 375.843 157.098C376.409 157.412 376.975 157.727 377.558 158.051C378.291 158.479 379.025 158.907 379.781 159.348C380.511 159.765 381.242 160.183 381.995 160.613C384.162 162.354 384.479 163.393 384.843 166.098C385.833 166.098 386.823 166.098 387.843 166.098C388.173 165.438 388.503 164.778 388.843 164.098C389.388 165.15 389.388 165.15 389.945 166.223C392.371 170.802 394.769 175.196 397.968 179.285C400.869 183.004 402.931 186.797 404.843 191.098C405.678 192.83 405.678 192.83 406.531 194.598C408.523 199.984 408.41 205.81 408.632 211.488C408.832 215.387 408.832 215.387 409.843 219.098C411.827 220.382 411.827 220.382 413.843 221.098C413.843 222.418 413.843 223.738 413.843 225.098C414.503 225.098 415.163 225.098 415.843 225.098C415.843 226.088 415.843 227.078 415.843 228.098C416.503 228.098 417.163 228.098 417.843 228.098C418.517 229.532 419.182 230.97 419.843 232.41C420.214 233.211 420.586 234.011 420.968 234.836C421.843 237.098 421.843 237.098 421.843 240.098C422.833 240.098 423.823 240.098 424.843 240.098C425.079 240.641 425.315 241.184 425.558 241.743C435.106 264.985 435.106 264.985 452.171 282.703C455.378 285.378 455.174 289.377 455.597 293.297C455.795 295.11 455.795 295.11 455.997 296.959C456.132 298.222 456.267 299.484 456.406 300.785C456.544 302.059 456.683 303.334 456.825 304.646C457.168 307.797 457.507 310.947 457.843 314.098C456.894 314.366 455.946 314.634 454.968 314.91C451.59 315.847 451.59 315.847 449.843 319.098C451.823 319.428 453.803 319.758 455.843 320.098C456.173 321.088 456.503 322.078 456.843 323.098C455.445 325 455.445 325 453.468 327.035C450.91 329.679 449.419 331.418 448.843 335.098C451.483 334.768 454.123 334.438 456.843 334.098C456.593 336.41 456.593 336.41 455.843 339.098C455.177 339.528 454.51 339.959 453.823 340.402C451.574 341.959 451.574 341.959 451.409 344.742C451.407 346.31 451.407 346.31 451.406 347.91C451.05 355.456 449.229 362.326 445.843 369.098C443.675 370.996 443.675 370.996 441.843 372.098C439.375 370.946 437.795 370.05 435.843 368.098C434.523 368.098 433.203 368.098 431.843 368.098C431.513 368.758 431.183 369.418 430.843 370.098C431.792 370.221 432.741 370.345 433.718 370.473C436.843 371.098 436.843 371.098 438.843 373.098C439.243 377.659 439.016 381.007 437.406 385.285C435.256 391.063 435.117 396.988 434.843 403.098C437.153 403.098 439.463 403.098 441.843 403.098C441.978 405.2 442.075 407.305 442.156 409.41C442.214 410.582 442.272 411.754 442.331 412.961C442.17 413.996 442.009 415.031 441.843 416.098C439.386 417.891 439.386 417.891 436.843 419.098C435.492 421.799 435.504 424.216 435.281 427.223C435.197 428.318 435.113 429.414 435.027 430.543C434.966 431.386 434.905 432.229 434.843 433.098C432.863 433.098 430.883 433.098 428.843 433.098C428.517 433.761 428.191 434.425 427.855 435.109C422.597 445.734 422.597 445.734 420.843 448.098C418.753 448.719 418.753 448.719 416.843 449.098C417.109 449.727 417.374 450.356 417.648 451.004C421.607 460.598 423.375 469.859 424.843 480.098C424.958 480.887 425.072 481.675 425.191 482.488C425.412 484.024 425.629 485.561 425.843 487.098C419.967 486.811 416.779 484.185 412.843 480.098C412.513 479.438 412.183 478.778 411.843 478.098C411.514 478.666 411.186 479.235 410.847 479.82C405.58 488.371 397.828 495.612 387.843 498.098C379.358 498.986 371.944 499.15 364.843 494.098C361.885 490.77 361.32 487.723 361.48 483.277C362.152 479.241 364.055 475.743 365.843 472.098C368.129 466.563 368.443 461.015 368.843 455.098C363.153 453.113 357.847 452.792 351.831 452.637C348.169 451.976 347.116 450.995 344.843 448.098C343.882 446.498 342.966 444.871 342.093 443.223C339.124 438.221 336.176 434.609 330.843 432.098C328.621 431.681 326.391 431.308 324.156 430.973C320.765 430.324 320.765 430.324 317.843 429.098C315.899 426.181 314.93 423.421 313.839 420.098C310.8 410.945 303.021 407.67 294.913 403.602C293.9 403.105 292.887 402.609 291.843 402.098C292.679 400.145 292.679 400.145 293.843 398.098C296.468 397.348 296.468 397.348 298.843 397.098C298.513 396.438 298.183 395.778 297.843 395.098C295.027 394.629 295.027 394.629 291.781 394.473C290.676 394.398 289.571 394.323 288.433 394.246C287.578 394.197 286.724 394.148 285.843 394.098C285.624 393.396 285.405 392.695 285.179 391.973C280.894 379.152 272.738 370.882 262.218 362.66C255.138 356.962 251.065 350.51 247.843 342.098C243.553 341.768 239.263 341.438 234.843 341.098C234.713 338.963 234.713 338.963 234.581 336.785C234.441 334.889 234.299 332.993 234.156 331.098C234.075 329.696 234.075 329.696 233.993 328.266C233.396 320.843 231.458 315.372 225.851 310.293C221.574 307.862 217.649 306.199 212.843 305.098C212.731 304.262 212.731 304.262 212.616 303.41C211.499 296.925 208.984 293.099 204.843 288.098C200.997 282.756 200.997 282.756 200.156 279.16C198.412 275.092 195.871 273.571 192.335 271.023C189.748 269.024 187.633 266.862 185.406 264.473C182.182 261.04 179.943 259.686 175.468 258.348C172.937 257.23 172.937 257.23 170.843 255.098C168.906 249.215 168.704 242.826 168.131 236.696C166.279 219.962 158.211 203.544 151.656 188.223C144.23 170.845 140.623 154.945 139.843 136.098C138.853 135.768 137.863 135.438 136.843 135.098C136.843 136.088 136.843 137.078 136.843 138.098C135.523 138.098 134.203 138.098 132.843 138.098C132.334 132.755 133.718 130.359 136.843 126.098C137.173 125.108 137.503 124.118 137.843 123.098C136.915 123.407 136.915 123.407 135.968 123.723C135.267 123.846 134.566 123.97 133.843 124.098C131.013 121.268 131.491 118.478 131.429 114.684C131.41 113.954 131.39 113.224 131.37 112.473C131.31 110.139 131.264 107.806 131.218 105.473C131.18 103.892 131.141 102.311 131.101 100.73C131.005 96.853 130.921 92.9755 130.843 89.0976C128.533 88.4376 126.223 87.7776 123.843 87.0976C123.843 86.4376 123.843 85.7776 123.843 85.0976C126.318 84.6026 126.318 84.6026 128.843 84.0976C128.513 81.7876 128.183 79.4776 127.843 77.0976C127.183 77.0976 126.523 77.0976 125.843 77.0976C123.517 73.4634 123.68 70.3267 123.843 66.0976C124.833 66.0976 125.823 66.0976 126.843 66.0976C127.091 65.2314 127.338 64.3651 127.593 63.4726C128.928 59.8683 130.47 57.1179 132.843 54.0976C133.833 54.0976 134.823 54.0976 135.843 54.0976C136.666 51.2156 136.971 48.6499 136.976 45.6562C136.977 44.8254 136.978 43.9946 136.98 43.1386C136.976 42.2795 136.972 41.4203 136.968 40.5351C136.972 39.6721 136.976 38.8091 136.98 37.9199C136.978 37.0904 136.977 36.2609 136.976 35.4062C136.975 34.6514 136.974 33.8966 136.972 33.1189C136.916 30.8919 136.916 30.8919 135.843 28.0976C135.715 25.4237 135.799 22.7767 135.843 20.0976C134.853 20.0976 133.863 20.0976 132.843 20.0976C132.843 19.1076 132.843 18.1176 132.843 17.0976C133.47 16.9765 134.096 16.8553 134.741 16.7304C135.559 16.5629 136.376 16.3953 137.218 16.2226C138.436 15.979 138.436 15.979 139.679 15.7304C142.03 15.231 142.03 15.231 143.843 13.0976C144.086 10.6575 144.086 10.6575 143.968 7.97262C143.95 7.06255 143.932 6.15247 143.913 5.21481C143.89 4.51614 143.867 3.81747 143.843 3.09762C146.311 4.24936 147.891 5.14546 149.843 7.09762C149.843 8.08762 149.843 9.07762 149.843 10.0976C152.813 10.0976 155.783 10.0976 158.843 10.0976C158.802 9.31387 158.761 8.53012 158.718 7.72262C158.843 5.09762 158.843 5.09762 160.843 3.09762C166.369 0.572891 171.776 0.867946 177.718 0.972624Z" fill="#BACD01"/>
<path d="M769.279 199.504C771.845 200.098 771.845 200.098 774.087 203.083C775.633 205.14 776.338 205.983 778.877 206.561C781.265 206.616 783.588 206.524 785.97 206.348C787.576 206.261 789.183 206.183 790.79 206.114C791.497 206.065 792.203 206.016 792.931 205.966C794.845 206.098 794.845 206.098 797.845 208.098C800.736 208.565 803.562 208.935 806.47 209.223C807.24 209.31 808.009 209.396 808.802 209.485C819.132 210.818 819.132 210.818 828.845 208.098C831.525 208.366 833.014 209.207 835.298 210.668C840.234 212.658 844.481 212.085 849.72 211.786C859.64 211.516 859.64 211.516 863.783 213.516C865.828 215.583 867.301 217.637 868.845 220.098C870.229 221.816 871.625 223.525 873.033 225.223C874.774 227.435 876.505 229.653 878.212 231.891C882.247 237.02 887.059 240.245 892.845 243.098C895.449 269.446 895.449 269.446 889.751 277.305C886.726 280.698 883.364 283.598 879.814 286.427C874.764 290.713 870.645 295.991 867.158 301.598C866.285 302.988 866.285 302.988 865.396 304.407C864.024 306.787 862.921 309.138 861.845 311.661C859.845 315.098 859.845 315.098 856.408 316.536C854.289 316.87 852.164 317.174 850.033 317.411C849.311 317.638 848.589 317.864 847.845 318.098C847.17 319.761 846.505 321.429 845.845 323.098C844.367 325.518 842.866 327.875 841.283 330.223C840.838 330.884 840.394 331.545 839.937 332.226C834.064 340.851 827.345 348.7 820.313 356.397C818.74 358.119 817.172 359.845 815.611 361.578C807.772 370.231 799.659 378.604 791.446 386.902C789.865 388.505 788.291 390.114 786.722 391.728C784.429 394.089 782.116 396.429 779.798 398.766C779.103 399.489 778.408 400.212 777.692 400.956C773.485 405.146 770.98 406.74 764.845 407.098C763.452 408.716 762.126 410.391 760.845 412.098C758.964 413.414 757.036 414.56 755.04 415.692C752.655 417.149 752.655 417.149 750.029 419.504C746.334 422.645 742.236 424.799 737.968 427.059C733.932 429.269 731.055 431.837 727.845 435.098C725.658 434.911 725.658 434.911 723.845 434.098C721.644 433.886 721.644 433.886 719.72 435.848C714.882 439.634 709.575 441.843 703.845 443.973C698.371 446.119 692.578 448.988 689.626 454.286C689.368 454.884 689.111 455.482 688.845 456.098C687.845 455.976 687.845 455.976 686.825 455.852C679.259 455.334 675.27 457.12 669.255 461.665C666.845 463.098 666.845 463.098 664.654 462.938C662.845 462.098 662.845 462.098 660.845 460.098C659.864 461.388 658.885 462.68 657.908 463.973C657.362 464.692 656.817 465.412 656.255 466.153C654.805 468.042 654.805 468.042 653.845 470.098C651.523 470.803 649.189 471.47 646.845 472.098C646.515 472.428 646.185 472.758 645.845 473.098C644.388 473.179 642.929 473.237 641.47 473.286C635.962 473.751 632.208 475.804 627.583 478.723C624.845 480.098 624.845 480.098 621.493 480.555C617.137 481.203 614.007 482.738 610.158 484.786C608.754 485.513 607.35 486.239 605.947 486.965C605.257 487.326 604.568 487.687 603.858 488.058C601.998 489.019 600.128 489.946 598.243 490.856C597.184 491.369 596.124 491.882 595.033 492.411C593.631 493.085 593.631 493.085 592.2 493.774C589.85 494.922 589.85 494.922 588.532 496.605C586.275 498.603 584.464 498.808 581.505 499.309C579.919 499.594 579.919 499.594 578.3 499.885C576.621 500.176 576.621 500.176 574.908 500.473C562.114 502.87 550.382 505.561 540.845 515.098C539.09 515.212 537.333 515.319 535.575 515.388C525.469 515.784 517.086 517.078 508.634 523.012C505.974 524.627 503.949 525.331 500.865 524.68C500.198 524.488 499.532 524.296 498.845 524.098C489.099 522.966 479.798 526.127 470.647 529.157C466.419 530.204 462.73 530.326 458.407 530.223C457.676 530.214 456.944 530.205 456.191 530.196C454.409 530.173 452.627 530.137 450.845 530.098C450.831 528.746 450.831 528.746 450.817 527.367C450.772 523.958 450.71 520.549 450.637 517.14C450.61 515.677 450.588 514.214 450.574 512.751C450.482 503.849 449.783 496.286 446.596 487.839C445.757 484.776 445.858 483.095 446.845 480.098C448.876 478.149 448.876 478.149 451.345 476.411C454.635 474.221 454.635 474.221 456.845 471.098C457.055 469.261 457.213 467.419 457.345 465.575C457.427 464.471 457.51 463.368 457.595 462.231C457.677 461.073 457.76 459.916 457.845 458.723C458.009 456.444 458.175 454.166 458.345 451.887C458.417 450.874 458.489 449.86 458.564 448.815C458.807 446.468 459.226 444.367 459.845 442.098C460.57 435.557 459.546 432.59 455.845 427.098C456.031 423.441 456.691 420.56 457.845 417.098C460.815 418.088 463.785 419.078 466.845 420.098C466.845 409.868 466.845 399.638 466.845 389.098C468.825 388.768 470.805 388.438 472.845 388.098C472.845 387.438 472.845 386.778 472.845 386.098C471.525 385.768 470.205 385.438 468.845 385.098C470.825 381.798 472.805 378.498 474.845 375.098C476.495 375.428 478.145 375.758 479.845 376.098C480.175 375.438 480.505 374.778 480.845 374.098C479.855 374.098 478.865 374.098 477.845 374.098C477.845 373.108 477.845 372.118 477.845 371.098C478.979 370.706 480.114 370.314 481.282 369.911C485.048 368.512 485.048 368.512 485.782 365.411C485.803 364.648 485.824 363.884 485.845 363.098C484.525 363.098 483.205 363.098 481.845 363.098C482.175 361.448 482.505 359.798 482.845 358.098C485.155 358.428 487.465 358.758 489.845 359.098C490.389 358.365 490.389 358.365 490.943 357.617C492.611 355.376 494.291 353.143 495.97 350.911C496.825 349.757 496.825 349.757 497.697 348.581C501.802 343.146 506.228 337.524 512.845 335.098C514.165 335.098 515.485 335.098 516.845 335.098C516.494 334.541 516.144 333.984 515.782 333.411C514.565 330.408 514.928 329.201 515.845 326.098C515.997 325.487 516.149 324.876 516.306 324.247C517.878 318.959 520.358 316.476 524.603 313.079C527.19 310.793 529.208 308.308 531.345 305.598C537.306 298.155 542.571 292.817 551.845 290.098C552.505 290.098 553.165 290.098 553.845 290.098C553.845 288.118 553.845 286.138 553.845 284.098C554.411 283.94 554.977 283.781 555.56 283.618C556.66 283.268 556.66 283.268 557.782 282.911C558.513 282.69 559.244 282.47 559.997 282.243C562.13 281.207 562.13 281.207 562.599 278.485C562.721 277.303 562.721 277.303 562.845 276.098C563.497 276.012 564.15 275.925 564.822 275.836C570.988 274.881 570.988 274.881 576.095 271.536C579.137 268.84 580.859 268.383 584.845 268.098C584.494 267.356 584.144 266.613 583.783 265.848C582.845 263.098 582.845 263.098 582.845 260.973C584.766 257.37 588.613 256.49 592.337 255.305C601.396 252.367 607.721 247.409 614.283 240.598C624.906 229.8 624.906 229.8 631.411 228.641C635.638 228.899 637.368 229.621 640.408 232.661C640.882 233.465 641.356 234.269 641.845 235.098C642.361 234.067 642.876 233.036 643.408 231.973C649.221 221.877 659.562 218.304 670.177 215.18C672.852 214.391 675.512 213.579 678.169 212.735C679.257 212.39 679.257 212.39 680.366 212.037C681.791 211.584 683.216 211.129 684.64 210.673C689.624 209.098 689.624 209.098 691.845 209.098C692.402 209.696 692.959 210.294 693.533 210.911C696.455 213.675 699.106 214.66 702.845 216.098C702.845 217.088 702.845 218.078 702.845 219.098C703.979 218.644 705.114 218.191 706.283 217.723C709.263 216.578 712.007 215.883 715.158 215.411C720.447 214.358 724.038 211.302 728.169 207.973C733.28 204.392 738.675 203.298 744.845 204.098C746.236 204.551 747.613 205.052 748.97 205.598C752.526 207.023 754.973 207.905 758.845 207.098C760.988 205.392 762.911 203.595 764.818 201.629C766.845 200.098 766.845 200.098 769.279 199.504Z" fill="#F5A500"/>
<path d="M170.92 0.000521459C177.56 0.0189675 184.201 0.0528196 190.842 0.0981777C189.463 3.19958 188.637 5.62041 188.842 9.09818C208.757 18.5687 241.527 25.2659 251.779 45.5982C253.072 48.1663 253.072 48.1663 254.842 50.0982C257.518 50.7003 259.643 50.5508 262.361 50.2505C266.156 50.0175 268.52 51.3653 271.842 53.0982C272.172 51.4482 272.502 49.7982 272.842 48.0982C278.494 49.8507 281.011 54.3709 283.842 59.0982C284.502 58.1082 285.162 57.1182 285.842 56.0982C287.162 56.4282 288.482 56.7582 289.842 57.0982C290.709 60.7125 291.056 67.6725 293.842 70.0982C299.505 70.2431 305.177 70.1522 310.842 70.0982C312.908 74.3607 316.076 85.2229 320.842 87.0982C323.82 87.4917 328.573 86.829 330.842 89.0982C332.21 97.4452 333.651 105.313 338.467 112.536C342.235 115.015 346.43 115.458 350.842 116.098C352.183 122.58 354.153 128.358 360.029 132.161C365.836 135.177 373.212 137.416 376.842 143.098C377.447 147.824 377.031 152.489 375.842 157.098C379.881 159.343 384.154 160.989 384.842 166.098C387.26 166.098 387.762 166.258 388.842 164.098C395.678 177.716 408.891 189.039 409.217 205.036C409.372 211.765 410.857 215.793 414.822 221.227C427.812 239.695 453.65 275.282 455.596 293.297C456.354 300.23 457.101 307.164 457.842 314.098C454.227 315.12 451.746 315.556 449.842 319.098C451.822 319.428 453.802 319.758 455.842 320.098C456.172 321.088 456.502 322.078 456.842 323.098C453.926 327.065 449.652 329.925 448.842 335.098C451.482 334.768 454.122 334.438 456.842 334.098C456.139 340.601 450.649 356.874 447.842 363.098C445.849 363.098 445.842 363.105 445.842 365.098C440.784 366.784 435.156 366.098 429.842 366.098C429.842 367.418 429.842 368.738 429.842 370.098C433.237 370.475 436.307 370.563 438.842 373.098C439.721 383.118 435.296 392.97 434.842 403.098C437.152 403.098 439.462 403.098 441.842 403.098C442.122 407.467 442.515 411.775 441.842 416.098C439.385 417.891 439.385 417.891 436.842 419.098C434.792 423.198 435.168 428.56 434.842 433.098C432.862 433.098 430.882 433.098 428.842 433.098C426.359 438.153 424.21 443.558 420.842 448.098C418.752 448.719 418.752 448.719 416.842 449.098C421.745 459.49 422.149 470.838 422.842 482.098C421.192 482.428 419.542 482.758 417.842 483.098C417.182 481.778 416.522 480.458 415.842 479.098C413.849 479.098 413.842 479.091 413.842 477.098C401.396 477.098 392.635 510.374 368.842 496.098C368.842 493.109 368.831 493.098 365.842 493.098C365.842 490.741 366.275 490.098 363.842 490.098C363.697 486.411 362.205 476.098 367.842 476.098C369.436 469.633 368.917 462.724 368.842 456.098C363.157 453.057 358.25 452.715 351.83 452.602C346.571 451.715 344.384 447.552 342.092 443.223C339.123 438.221 336.174 434.609 330.842 432.098C326.42 431.268 322.019 430.852 317.842 429.098C315.897 426.182 314.928 423.422 313.838 420.098C310.557 410.218 300.446 406.313 291.842 402.098C292.678 400.145 292.678 400.145 293.842 398.098C296.467 397.348 296.467 397.348 298.842 397.098C296.916 393.246 289.949 394.334 285.842 394.098C279.137 372.644 257.338 364.906 249.092 345.098C247.467 339.552 240.755 340.524 235.842 340.098C234.954 328.68 233.287 320.871 226.76 311.235C222.356 308.091 218.116 306.22 212.842 305.098C210.559 288.098 196.204 276.06 185.404 264.473C181.132 259.924 175.076 259.372 170.842 255.098C169.233 250.252 169.029 245.065 168.537 240.012C166.014 215.237 148.322 194.452 146.842 170.098C141.63 170.098 141.024 137.728 140.842 133.098C139.192 133.098 137.542 133.098 135.842 133.098C135.662 129.151 135.748 126.5 137.842 123.098C135.862 123.593 135.862 123.593 133.842 124.098C127.215 115.743 129.777 99.3697 129.842 89.0982C127.259 89.0982 125.842 88.337 125.842 91.0982C124.522 90.7682 123.202 90.4382 121.842 90.0982C121.529 87.8482 121.529 87.8482 121.842 85.0982C124.342 82.7857 124.342 82.7857 126.842 81.0982C123.945 76.8432 121.915 72.5729 122.115 67.2505C123.862 62.0753 130.057 59.6932 134.842 58.0982C135.12 55.1692 134.7 50.2395 136.842 48.0982C137.18 38.5607 135.667 29.5396 135.842 20.0982C132.853 20.0982 132.842 20.0874 132.842 17.0982C136.707 16.3506 141.191 16.2165 143.842 13.0982C144.172 9.78007 143.952 6.42787 143.842 3.09818C149.092 5.56833 151.677 8.51662 157.842 9.09818C157.412 5.89748 156.822 5.09163 153.842 4.09818C159.821 1.45373 164.295 -0.031954 170.92 0.000521459Z" fill="#BACD01"/>
<path d="M769.278 199.504C772.649 200.284 773.342 202.09 775.34 204.749C781.217 210.02 790.671 202.852 796.733 207.567C813.246 219.541 845.219 204.555 863.782 213.516C873.954 223.791 879.05 236.294 892.845 243.098C894.83 263.18 895.624 273.826 879.814 286.427C872.376 292.739 865.121 312.988 856.407 316.473C838.687 319.582 826.107 349.585 815.143 362.03C806.431 371.901 781.668 406.208 764.845 407.098C754.631 418.959 738.793 423.975 727.845 435.098C717.153 434.182 694.272 445.243 688.845 456.098C678.781 454.872 668.313 467.567 660.845 460.098C658.417 463.291 655.548 466.45 653.845 470.098C631.144 476.989 604.326 495.44 581.505 499.309C536.49 507.397 499.143 531.43 450.845 530.098C450.699 516.079 451.601 501.107 446.596 487.839C444.074 478.635 452.454 477.301 456.845 471.098C458.779 454.189 453.318 430.679 457.845 417.098C461.792 419.132 465.517 418.947 469.845 418.098C469.845 415.741 470.278 415.098 467.845 415.098C467.662 406.689 470.473 398.567 467.845 390.098C471.769 389.444 477.827 386.089 471.845 383.098C473.237 378.456 476.683 378.436 480.845 377.098C483.228 371.96 485.218 368.841 485.845 363.098C481.244 363.098 481.97 362.473 482.845 358.098C499.465 360.473 498.935 335.098 516.845 335.098C507.495 320.248 543.108 290.098 553.845 290.098C553.845 279.876 574.455 268.84 584.845 268.098C574.886 247.009 702.845 199.058 702.845 219.098C715.005 214.234 732.298 202.471 744.845 204.098C749.477 205.604 753.808 208.148 758.845 207.098C762.294 204.352 764.857 200.583 769.278 199.504Z" fill="#F5A500"/>
<path d="M354.03 551.16C363.858 553.577 371.205 558.924 379.181 564.915C380.804 566.07 382.528 567.08 384.249 568.082C386.843 570.098 386.843 570.098 387.394 572.614C387.315 573.516 387.236 574.418 387.155 575.348C386.964 578.705 386.814 581.774 387.343 585.098C389.312 599.14 389.312 599.14 384.843 605.098C384.843 608.543 385.437 609.116 387.343 611.848C392.447 620.854 390.048 632.093 388.593 641.91C388.484 642.693 388.375 643.476 388.263 644.283C387.347 649.707 387.347 649.707 384.956 651.563C383.076 652.039 381.178 652.448 379.28 652.848C375.588 653.789 375.588 653.789 373.905 657.223C373.555 658.172 373.204 659.12 372.843 660.098C375.153 660.428 377.463 660.758 379.843 661.098C379.275 665.116 378.581 669.108 377.843 673.098C377.692 673.913 377.541 674.728 377.386 675.568C373.709 694.836 367.273 709.027 354.843 724.098C353.566 725.697 352.294 727.301 351.03 728.91C350.195 729.955 350.195 729.955 349.343 731.02C347.805 733.15 346.71 735.318 345.53 737.66C344.335 739.684 344.335 739.684 342.843 741.098C340.663 741.137 340.663 741.137 338.155 740.785C335.516 740.408 335.516 740.408 332.843 741.098C326.708 746.982 321.055 754.945 319.093 763.285C317.545 766.768 316.173 766.845 312.786 768.185C309.423 769.765 306.783 772.208 303.968 774.598C296.162 780.952 290.022 783.653 279.843 783.098C279.472 784.243 279.472 784.243 279.093 785.41C277.65 788.511 276.717 789.302 273.843 791.098C270.276 792.351 266.679 793.441 263.058 794.524C259.092 796.465 258.338 798.016 256.843 802.098C256.513 803.418 256.183 804.738 255.843 806.098C252.543 806.098 249.243 806.098 245.843 806.098C244.178 810.022 242.971 813.989 241.843 818.098C240.708 818.304 239.574 818.51 238.405 818.723C234.762 819.598 232.3 821.023 229.28 823.223C225.334 826.018 222.772 826.887 217.843 826.098C216.853 825.438 215.863 824.778 214.843 824.098C214.517 824.652 214.191 825.207 213.854 825.778C213.417 826.502 212.981 827.227 212.53 827.973C212.101 828.692 211.672 829.412 211.229 830.153C209.843 832.098 209.843 832.098 206.843 834.098C205.853 834.098 204.863 834.098 203.843 834.098C202.822 832.78 201.823 831.446 200.843 830.098C199.853 829.768 198.863 829.438 197.843 829.098C197.637 829.655 197.43 830.212 197.218 830.785C192.701 838.382 184.157 841.484 176.155 843.973C163.814 847.624 163.814 847.624 153.968 855.41C151.956 857.673 151.215 858.075 148.128 858.266C146.048 858.153 143.969 858.035 141.89 857.91C137.499 858.181 135.038 860.086 131.683 862.785C129.843 864.098 129.843 864.098 126.843 864.098C126.348 860.633 126.348 860.633 125.843 857.098C125.183 858.748 124.523 860.398 123.843 862.098C120.873 862.428 117.903 862.758 114.843 863.098C114.513 864.748 114.183 866.398 113.843 868.098C110.237 869.54 107.95 870.107 104.03 869.785C98.3413 869.578 94.893 873.567 90.8428 877.098C87.4185 879.381 86.7568 879.189 82.8428 878.848C78.1655 878.744 75.4776 879.517 71.4678 881.91C61.3603 887.882 51.7118 888.351 40.2178 888.41C39.169 888.416 38.1201 888.422 37.0396 888.428C30.119 888.363 23.6051 887.561 16.8428 886.098C16.6534 885.356 16.4641 884.615 16.269 883.85C15.0299 879.036 13.6501 874.432 11.7178 869.848C10.058 865.861 9.11805 862.411 8.84277 858.098C11.1609 855.78 16.7984 856.637 19.9365 856.477C20.8956 856.352 21.8546 856.227 22.8428 856.098C23.1728 855.438 23.5028 854.778 23.8428 854.098C22.424 851.448 22.424 851.448 20.4678 848.598C17.2386 843.709 15.7119 841.357 15.7803 835.473C15.7893 834.47 15.7983 833.467 15.8076 832.434C15.8192 831.663 15.8308 830.892 15.8428 830.098C13.2028 830.758 10.5628 831.418 7.84277 832.098C8.33777 831.397 8.83277 830.695 9.34277 829.973C11.1044 826.596 11.2139 824.865 10.8428 821.098C9.39293 818.474 9.39293 818.474 7.40527 816.098C4.49351 812.427 3.18061 809.821 2.84277 805.098C4.09277 803.535 4.09277 803.535 5.84277 802.098C6.85465 800.438 7.85543 798.772 8.84277 797.098C9.83277 796.108 9.83277 796.108 10.8428 795.098C9.85277 794.17 9.85277 794.17 8.84277 793.223C5.94 788.687 5.94627 785.349 6.84277 780.098C7.59955 777.353 8.52324 774.698 9.53027 772.035C9.77375 771.368 10.0172 770.7 10.2681 770.012C11.042 768.125 11.042 768.125 12.8428 765.098C15.4248 764.039 15.4248 764.039 17.8428 764.098C18.5028 764.758 19.1628 765.418 19.8428 766.098C20.8328 766.098 21.8228 766.098 22.8428 766.098C22.857 765.296 22.8711 764.494 22.8857 763.668C23.2278 755.514 24.6564 748.396 26.9634 740.603C28.6744 734.821 29.9616 729.069 30.8428 723.098C32.1215 722.871 33.4003 722.644 34.7178 722.41C36.9205 721.92 36.9205 721.92 38.8428 721.098C40.1818 718.75 40.1818 718.75 40.8428 716.098C42.7803 713.785 42.7803 713.785 44.8428 712.098C45.8328 712.098 46.8228 712.098 47.8428 712.098C47.7616 711.518 47.6804 710.938 47.5967 710.34C47.0909 704.085 47.0909 704.085 49.1553 701.375C50.989 699.84 52.8818 698.466 54.8428 697.098C56.1262 696.051 57.3976 694.988 58.6553 693.91C59.2186 693.443 59.7819 692.975 60.3623 692.492C62.6215 690.364 63.7925 688.736 64.0381 685.617C64.0149 684.724 63.9917 683.831 63.9678 682.91C63.9497 682.009 63.9317 681.108 63.9131 680.18C63.8899 679.493 63.8667 678.806 63.8428 678.098C65.0165 677.752 65.0165 677.752 66.2139 677.399C67.2258 677.073 68.2377 676.746 69.2803 676.41C70.2896 676.097 71.2989 675.784 72.3389 675.461C73.1652 675.011 73.9914 674.561 74.8428 674.098C75.498 671.624 75.498 671.624 75.8428 669.098C77.4795 667.657 77.4795 667.657 79.5303 666.535C80.2496 666.12 80.9689 665.705 81.71 665.278C82.7657 664.694 82.7657 664.694 83.8428 664.098C88.6196 661.304 90.8256 659.3 92.8428 654.098C93.5418 651.362 93.5418 651.362 93.8428 649.098C96.8213 649.147 96.8213 649.147 99.7998 649.196C102.046 649.181 102.046 649.181 104.843 648.098C105.683 646.477 106.468 644.826 107.218 643.16C109.136 639.79 109.967 638.358 113.737 637.239C115.976 637.015 118.217 636.814 120.46 636.633C126.205 635.724 130.258 632.504 134.843 629.098C135.655 628.541 136.467 627.984 137.304 627.41C140.205 625.412 140.205 625.412 142.843 623.098C142.843 622.108 142.843 621.118 142.843 620.098C143.503 620.098 144.163 620.098 144.843 620.098C145.173 621.088 145.503 622.078 145.843 623.098C150.783 623.557 150.783 623.557 155.093 621.473C157.054 618.811 158.476 616.105 159.843 613.098C160.503 613.098 161.163 613.098 161.843 613.098C162.173 613.758 162.503 614.418 162.843 615.098C167.298 614.603 167.298 614.603 171.843 614.098C171.843 612.737 171.843 611.375 171.843 609.973C172.382 607.469 172.382 607.469 173.843 605.098C177.001 603.504 180.042 602.413 183.396 601.335C190.417 599.053 195.902 595.465 201.843 591.098C203.673 589.802 205.507 588.51 207.343 587.223C208.503 586.391 208.503 586.391 209.687 585.543C213.993 582.657 216.424 581.732 221.737 582.539C225.192 583.456 227.85 585.165 230.843 587.098C231.232 586.651 231.621 586.203 232.022 585.742C241.708 575.275 255.656 572.296 268.843 568.098C269.173 569.088 269.503 570.078 269.843 571.098C275.603 569.805 279.175 567.718 283.843 564.098C284.503 564.428 285.163 564.758 285.843 565.098C286.173 563.448 286.503 561.798 286.843 560.098C292.035 559.013 296.928 559.047 302.194 559.176C304.034 559.203 305.874 559.229 307.714 559.254C310.584 559.297 313.453 559.348 316.323 559.42C333.671 559.963 333.671 559.963 348.951 552.427C350.843 551.098 350.843 551.098 354.03 551.16Z" fill="#5AC3EF"/>
<path d="M442.845 574.099C447.462 575.368 450.994 577.324 454.915 579.978C458.241 581.909 461.375 582.223 465.173 582.196C465.973 582.193 466.772 582.19 467.595 582.187C468.42 582.178 469.245 582.17 470.095 582.161C470.936 582.157 471.776 582.152 472.642 582.147C474.71 582.136 476.778 582.118 478.845 582.099C479.835 584.079 480.825 586.059 481.845 588.099C482.753 587.81 483.66 587.521 484.595 587.224C489.701 586.45 493.421 589.236 497.767 591.61C501.435 593.384 504.763 594.045 508.787 594.481C511.54 595.307 512.259 596.774 513.845 599.099C515.939 599.895 515.939 599.895 517.845 600.099C518.072 601.151 518.299 602.202 518.533 603.286C519.711 607.319 521.445 609.53 524.845 612.099C525.897 612.222 526.949 612.346 528.033 612.474C533.525 613.374 537.95 616.121 541.845 620.099C542.634 623.337 542.634 623.337 542.845 626.099C544.495 626.429 546.145 626.759 547.845 627.099C548.525 629.094 549.19 631.095 549.845 633.099C550.093 633.821 550.34 634.542 550.595 635.286C550.845 637.099 550.845 637.099 548.845 640.099C550.165 639.769 551.485 639.439 552.845 639.099C555.631 642.077 557.022 644.454 557.97 648.349C559.575 653.83 563.254 656.465 567.665 659.86C570.336 662.603 570.67 664.323 570.845 668.099C570.515 668.759 570.185 669.419 569.845 670.099C570.835 670.429 571.825 670.759 572.845 671.099C573.837 672.919 573.837 672.919 574.72 675.224C576.025 678.441 577.338 680.846 579.595 683.474C582.948 687.855 582.433 692.827 581.845 698.099C581.515 699.089 581.185 700.079 580.845 701.099C581.835 700.769 582.825 700.439 583.845 700.099C584.97 703.849 584.97 703.849 583.845 706.099C584.608 706.367 585.371 706.635 586.158 706.911C588.794 708.076 590.198 708.759 591.845 711.099C592.033 713.786 592.033 713.786 591.845 716.099C590.525 715.109 589.205 714.119 587.845 713.099C588.303 716.074 589.132 717.507 590.908 720.036C592.915 723.209 593.436 724.456 592.845 728.099C592.185 729.089 591.525 730.079 590.845 731.099C592.495 731.099 594.145 731.099 595.845 731.099C595.515 731.759 595.185 732.419 594.845 733.099C593.855 733.099 592.865 733.099 591.845 733.099C592.062 733.828 592.278 734.558 592.501 735.31C594.231 741.797 595.083 747.692 595.001 754.38C594.994 755.541 594.994 755.541 594.987 756.725C594.891 765.572 594.384 774.395 593.845 783.224C593.748 784.876 593.652 786.528 593.556 788.181C593.325 792.154 593.087 796.126 592.845 800.099C591.855 799.109 590.865 798.119 589.845 797.099C588.822 800.168 588.711 802.323 588.72 805.536C588.718 806.484 588.715 807.431 588.712 808.407C588.743 811.05 588.743 811.05 589.466 813.317C589.591 813.905 589.716 814.493 589.845 815.099C588.033 817.161 588.033 817.161 585.845 819.099C585.185 820.089 584.525 821.079 583.845 822.099C584.206 822.546 584.567 822.993 584.939 823.454C588.777 828.454 588.777 828.454 589.158 832.036C589.003 833.057 589.003 833.057 588.845 834.099C586.535 834.099 584.225 834.099 581.845 834.099C581.856 834.835 581.866 835.571 581.877 836.33C581.919 839.67 581.945 843.009 581.97 846.349C581.987 847.508 582.004 848.666 582.021 849.86C582.027 850.975 582.034 852.09 582.04 853.239C582.051 854.266 582.061 855.292 582.072 856.35C581.839 859.17 581.188 860.656 579.845 863.099C579.458 865.424 579.115 867.757 578.845 870.099C577.195 870.759 575.545 871.419 573.845 872.099C574.01 872.903 574.175 873.707 574.345 874.536C574.734 877.31 575.003 879.933 575.095 882.724C575.121 883.458 575.147 884.193 575.173 884.95C574.712 887.968 574.121 889.006 571.845 891.099C568.73 891.724 565.639 891.659 562.47 891.63C561.549 891.634 560.628 891.638 559.68 891.642C557.733 891.644 555.786 891.637 553.839 891.62C550.856 891.599 547.875 891.62 544.892 891.646C543.001 891.643 541.111 891.638 539.22 891.63C538.326 891.638 537.433 891.646 536.512 891.654C534.217 891.62 532.094 891.561 529.845 891.099C527.947 889.085 527.947 889.085 526.845 887.099C525.234 886.931 523.622 886.766 522.009 886.618C514.77 884.88 509.001 879.89 505.201 873.716C502.883 870.951 499.693 869.871 496.462 868.399C487.637 864.013 478.495 856.286 474.845 847.099C473.198 846.386 471.528 845.725 469.845 845.099C467.055 842.568 464.936 840.234 462.845 837.099C462.845 836.109 462.845 835.119 462.845 834.099C462.185 834.099 461.525 834.099 460.845 834.099C460.515 834.759 460.185 835.419 459.845 836.099C441.364 809.481 427.091 780.821 416.845 750.099C416.519 749.14 416.519 749.14 416.186 748.161C403.509 710.725 399.538 670.572 404.658 631.411C404.823 630.146 404.988 628.88 405.158 627.577C406.604 617.686 406.604 617.686 409.845 613.099C411.873 611.985 411.873 611.985 413.845 611.099C415.201 609.622 415.201 609.622 416.408 607.911C420.32 603.123 425.438 600.005 430.845 597.099C431.505 597.099 432.165 597.099 432.845 597.099C432.564 595.617 432.27 594.139 431.97 592.661C431.808 591.837 431.645 591.014 431.478 590.165C431.165 589.142 431.165 589.142 430.845 588.099C430.185 587.769 429.525 587.439 428.845 587.099C428.515 587.759 428.185 588.419 427.845 589.099C426.283 587.974 426.283 587.974 424.845 586.099C425.158 582.911 425.158 582.911 425.845 580.099C426.175 580.759 426.505 581.419 426.845 582.099C427.464 581.604 428.083 581.109 428.72 580.599C430.845 579.099 430.845 579.099 432.845 579.099C432.845 578.439 432.845 577.779 432.845 577.099C433.505 577.099 434.165 577.099 434.845 577.099C434.515 578.749 434.185 580.399 433.845 582.099C437.827 579.997 440.196 577.73 442.845 574.099Z" fill="#4564AB"/>
<path d="M354.03 551.16C365.743 554.04 374.14 562.193 384.249 568.082C392.531 574.518 392.304 645.858 384.956 651.563C378.492 653.199 375.282 653.498 372.843 660.098C375.153 660.428 377.463 660.758 379.843 661.098C376.102 687.559 366.167 709.989 349.343 731.02C346.982 734.29 345.8 738.295 342.843 741.098C339.394 741.16 336.246 740.219 332.843 741.098C327.107 746.599 320.628 754.822 319.437 762.828C316.651 773.475 289.083 783.272 279.843 783.098C275.637 796.067 259.515 791.407 255.843 806.098C252.543 806.098 249.243 806.098 245.843 806.098C244.178 810.022 242.971 813.989 241.843 818.098C232.479 819.8 223.962 830.177 214.843 824.098C212.109 828.745 209.896 834.098 203.843 834.098C201.848 831.521 200.915 830.122 197.843 829.098C193.468 840.911 155.263 858.709 141.89 857.91C135.808 858.284 132.717 864.098 126.843 864.098C126.348 860.633 126.348 860.633 125.843 857.098C123.47 863.03 121.18 862.394 114.843 863.098C110.666 883.981 35.2762 890.086 16.8428 886.098C14.4742 876.819 9.45482 867.686 8.84277 858.098C11.9355 855.005 18.6748 856.641 22.8428 856.098C25.3433 851.097 15.7217 838.139 15.8428 830.098C13.2028 830.758 10.5628 831.418 7.84277 832.098C15.8626 820.736 3.6356 816.182 2.84277 805.098C5.48659 801.793 7.84947 798.091 10.8428 795.098C4.4323 789.088 5.83725 763.807 17.8428 764.098C19.6374 765.892 20.3005 766.098 22.8428 766.098C23.1056 751.238 28.6959 737.645 30.8428 723.098C43.9062 720.78 64.9568 690.625 63.8428 678.098C74.0998 675.073 92.366 660.21 93.8428 649.098C105.384 649.287 103.831 645.708 110.843 638.098C122.876 635.085 156.594 620.245 159.843 613.098C163.725 613.098 166.393 614.703 171.843 614.098C171.843 603.009 208.82 580.576 221.737 582.539C225.192 583.456 227.85 585.165 230.843 587.098C240.648 575.831 255.26 572.66 268.843 568.098C270.959 574.447 285.843 566.001 285.843 561.098C295.402 557.816 306.384 559.085 316.378 559.365C330.523 559.822 341.563 550.916 354.03 551.16Z" fill="#5AC3EF"/>
<path d="M442.845 574.099C447.462 575.368 450.994 577.324 454.915 579.978C461.253 583.66 471.617 582.166 478.845 582.099C479.835 584.079 480.825 586.059 481.845 588.099C495.025 583.905 506.649 598.902 517.845 600.099C519.887 609.566 541.257 625.781 547.845 627.099C549.505 631.968 551.881 635.545 548.845 640.099C554.677 638.641 573.246 663.296 569.845 670.099C579.312 673.254 583.616 692.785 580.845 701.099C584.768 699.791 584.845 702.058 584.845 706.099C590.139 708.013 591.635 710.539 591.845 716.099C590.525 715.109 589.205 714.119 587.845 713.099C589.208 721.959 597.973 731.567 591.845 733.099C598.206 754.53 594.181 778.14 592.845 800.099C591.855 799.109 590.865 798.119 589.845 797.099C587.882 802.989 588.593 809.211 589.845 815.099C587.757 817.475 585.605 819.458 583.845 822.099C586.888 825.869 589.605 829.086 588.845 834.099C586.535 834.099 584.225 834.099 581.845 834.099C582.032 847.237 580.305 857.443 578.845 870.099C577.195 870.759 575.545 871.419 573.845 872.099C575.107 878.249 577.012 886.348 571.845 891.099C562.528 892.968 531.716 895.882 526.845 887.099C512.877 885.644 508.178 873.736 496.462 868.399C487.719 864.054 480.228 856.445 474.22 848.849C470.054 843.565 462.845 841.771 462.845 834.099C460.859 834.099 460.734 834.32 459.845 836.099C441.01 808.971 426.806 779.376 416.186 748.161C403.509 710.725 399.538 670.572 404.658 631.411C405.51 624.877 405.948 618.615 409.845 613.099C417.628 608.825 423.335 597.099 432.845 597.099C430.867 586.68 423.662 589.031 425.845 580.099C427.586 583.581 430.988 579.731 433.845 578.099C433.845 579.419 433.845 580.739 433.845 582.099C437.827 579.997 440.196 577.73 442.845 574.099Z" fill="#4564AB"/>
<path d="M639.845 506.098C643.546 507.156 644.829 508.079 647.282 511.161C649.592 514.363 649.592 514.363 653.157 514.973C654.044 515.014 654.931 515.056 655.845 515.098C656.463 513.644 656.463 513.644 657.095 512.161C658.845 509.098 658.845 509.098 661.032 508.223C661.63 508.182 662.228 508.141 662.845 508.098C662.845 510.078 662.845 512.058 662.845 514.098C664.417 513.214 664.417 513.214 666.02 512.313C667.399 511.553 668.778 510.794 670.157 510.036C670.847 509.646 671.538 509.256 672.249 508.854C674.074 507.858 675.957 506.971 677.845 506.098C678.835 506.428 679.825 506.758 680.845 507.098C680.185 509.078 679.525 511.058 678.845 513.098C679.505 513.098 680.165 513.098 680.845 513.098C680.845 511.778 680.845 510.458 680.845 509.098C682.494 509.52 684.139 509.961 685.782 510.411C686.699 510.654 687.615 510.898 688.559 511.149C689.314 511.462 690.068 511.775 690.845 512.098C691.175 513.088 691.505 514.078 691.845 515.098C699.765 515.098 707.685 515.098 715.845 515.098C715.845 516.418 715.845 517.738 715.845 519.098C716.581 519.088 717.317 519.077 718.076 519.066C721.416 519.025 724.755 518.999 728.095 518.973C729.833 518.948 729.833 518.948 731.606 518.922C732.721 518.916 733.836 518.909 734.985 518.903C736.525 518.887 736.525 518.887 738.096 518.871C740.864 519.1 742.489 519.674 744.845 521.098C744.845 521.758 744.845 522.418 744.845 523.098C745.835 522.768 746.825 522.438 747.845 522.098C751.139 522.029 754.421 522.101 757.716 522.161C760.708 522.258 760.708 522.258 762.88 521.411C764.845 521.098 764.845 521.098 767.649 522.508C772.262 524.803 776.527 524.512 781.602 524.594C785.394 525.184 786.584 526.052 788.845 529.098C789.095 531.848 789.095 531.848 788.845 534.098C789.835 534.098 790.825 534.098 791.845 534.098C791.845 533.438 791.845 532.778 791.845 532.098C792.835 532.428 793.825 532.758 794.845 533.098C795.175 534.748 795.505 536.398 795.845 538.098C796.175 536.778 796.505 535.458 796.845 534.098C799.032 533.723 799.032 533.723 801.845 534.098C803.835 535.938 805.235 537.89 806.845 540.098C808.165 539.768 809.485 539.438 810.845 539.098C811.85 540.385 812.849 541.678 813.845 542.973C814.68 544.052 814.68 544.052 815.532 545.153C816.845 547.098 816.845 547.098 816.845 549.098C817.422 548.768 818 548.438 818.595 548.098C820.845 547.098 820.845 547.098 824.845 547.098C824.185 548.748 823.525 550.398 822.845 552.098C823.69 552.005 824.536 551.913 825.407 551.817C834.597 551.232 834.597 551.232 838.208 553.739C839.516 555.154 840.793 556.598 842.04 558.067C848.413 565.24 861.093 567.861 870.22 568.473C873.978 569.124 874.735 569.946 877.017 573.122C880.074 578.659 882.302 583.611 881.845 590.098C883.299 589.82 883.299 589.82 884.782 589.536C886.298 589.319 886.298 589.319 887.845 589.098C889.394 590.648 889.061 592.198 889.161 594.352C889.203 595.206 889.245 596.06 889.288 596.94C889.347 598.287 889.347 598.287 889.407 599.661C889.45 600.562 889.494 601.464 889.538 602.393C889.644 604.628 889.746 606.863 889.845 609.098C889.185 609.098 888.525 609.098 887.845 609.098C887.834 609.808 887.824 610.519 887.813 611.251C886.326 615.623 883.116 617.213 879.345 619.661C878.617 620.146 877.89 620.631 877.14 621.131C872.242 624.342 867.368 627.105 861.845 629.098C858.223 630.409 855.474 631.963 852.407 634.286C848.302 637.211 844.127 639.725 839.657 642.036C838.529 642.622 837.401 643.209 836.239 643.813C832.54 645.214 829.767 645.342 825.845 645.098C825.845 646.418 825.845 647.738 825.845 649.098C824.285 649.465 822.722 649.816 821.157 650.161C820.287 650.358 819.417 650.555 818.52 650.758C815.685 651.118 813.597 650.807 810.845 650.098C810.845 649.438 810.845 648.778 810.845 648.098C809.896 648.82 808.947 649.542 807.97 650.286C804.316 652.902 800.502 654.834 796.454 656.766C793.769 658.137 791.308 659.705 788.782 661.348C784.275 664.095 780.179 665.62 774.845 665.098C772.282 663.661 772.282 663.661 770.845 662.098C770.515 663.088 770.185 664.078 769.845 665.098C768.978 664.541 768.978 664.541 768.095 663.973C767.352 663.684 766.61 663.396 765.845 663.098C764.503 663.747 763.17 664.415 761.845 665.098C759.22 664.911 759.22 664.911 756.845 664.098C756.185 663.108 755.525 662.118 754.845 661.098C754.311 661.459 753.777 661.82 753.227 662.192C747.938 665.486 744.441 666.433 738.259 666.079C735.02 666.105 732.635 667.125 729.684 668.364C714.162 674.56 691.998 668.668 677.009 663.032C671.936 661.535 666.74 661.348 661.481 660.975C660.658 660.904 659.834 660.832 658.985 660.758C658.238 660.703 657.491 660.648 656.721 660.591C654.845 660.098 654.845 660.098 652.845 657.098C652.72 654.411 652.72 654.411 652.845 652.098C650.796 652.662 650.796 652.662 648.845 654.098C648.184 657.143 648.184 657.143 647.845 660.098C635.762 655.917 623.934 651.643 615.845 641.098C615.157 638.887 615.157 638.887 614.845 637.098C614.267 637.428 613.69 637.758 613.095 638.098C610.845 639.098 610.845 639.098 606.845 639.098C606.442 638.17 606.442 638.17 606.032 637.223C604.889 634.799 604.889 634.799 601.845 633.098C599.823 633.044 599.823 633.044 597.657 633.286C588.503 633.418 582.18 625.99 575.677 620.305C573.072 618.276 570.959 617.117 567.845 616.098C567.927 615.026 568.01 613.953 568.095 612.848C567.802 608.456 566.966 607.927 563.845 605.098C563.845 603.778 563.845 602.458 563.845 601.098C563.265 601.228 562.684 601.359 562.087 601.493C559.599 601.932 557.373 602.206 554.845 602.098C551.657 599.786 551.657 599.786 548.845 597.098C545.632 595.775 545.632 595.775 542.845 595.098C543.505 593.778 544.165 592.458 544.845 591.098C543.958 591.057 543.071 591.016 542.157 590.973C538.319 589.959 537.607 588.635 535.345 585.532C532.503 582.816 528.623 582.576 524.845 582.098C524.948 581.191 525.051 580.283 525.157 579.348C525.177 575.94 525.177 575.94 522.532 573.786C518.714 571.388 515.578 570.9 511.157 570.536C509.666 570.41 509.666 570.41 508.145 570.282C507.386 570.221 506.627 570.161 505.845 570.098C503.201 564.769 502.358 560.644 502.47 554.723C502.475 553.979 502.481 553.236 502.487 552.469C502.62 546.857 503.585 542.277 505.845 537.098C517.081 539.662 517.081 539.662 520.907 541.848C525.679 543.879 529.81 542.898 534.845 542.098C535.661 541.975 536.478 541.852 537.32 541.726C540.125 541.294 542.922 540.826 545.72 540.348C546.636 540.204 547.552 540.059 548.495 539.91C554.212 538.868 556.953 537.627 560.845 533.098C566.055 529.117 571.417 527.355 577.567 525.387C581.171 524.188 583.877 523.076 587.056 520.911C590.171 518.886 591.354 518.744 594.97 519.098C602.804 519.397 609.916 516.983 616.532 512.848C622.723 509.455 631.023 510.819 637.845 511.098C638.505 509.448 639.165 507.798 639.845 506.098Z" fill="#E20520"/>
<path d="M55.6583 375.849C60.4903 378.737 65.8847 380.186 71.2247 381.853C74.6183 383.02 77.6811 384.416 80.8458 386.099C79.8558 383.624 79.8558 383.624 78.8458 381.099C81.2788 379.882 82.8826 379.965 85.5958 379.974C86.4363 379.971 87.2767 379.968 88.1427 379.966C90.8458 380.099 90.8458 380.099 93.6583 380.587C96.133 380.984 98.3727 381.197 100.861 381.274C101.555 381.298 102.248 381.322 102.963 381.347C104.4 381.39 105.838 381.421 107.275 381.44C109.361 381.524 109.361 381.524 112.846 382.099C114.33 384.142 114.33 384.142 114.846 386.099C115.403 385.325 115.403 385.325 115.971 384.536C117.846 383.099 117.846 383.099 120.658 383.161C123.846 384.099 123.846 384.099 126.908 386.161C129.984 388.19 131.265 388.52 134.846 388.099C134.846 387.439 134.846 386.779 134.846 386.099C136.721 386.286 136.721 386.286 138.846 387.099C140.096 389.661 140.096 389.661 140.846 392.099C141.884 391.652 141.884 391.652 142.943 391.196C146.033 390.028 149.061 389.261 152.283 388.536C153.375 388.287 154.467 388.039 155.592 387.782C156.666 387.557 157.739 387.331 158.846 387.099C159.868 386.821 160.89 386.544 161.943 386.259C165.884 386.041 166.882 387.604 169.846 390.099C173.619 391.243 177.399 392.047 181.252 392.876C185.298 394.253 187.168 395.808 189.846 399.099C189.846 399.759 189.846 400.419 189.846 401.099C190.774 400.356 190.774 400.356 191.721 399.599C196.204 397.447 199.957 397.861 204.846 398.099C206.528 398.075 206.528 398.075 208.244 398.052C211.625 398.097 214.575 398.233 217.846 399.099C220.164 401.503 221.025 403.902 221.846 407.099C222.176 408.089 222.506 409.079 222.846 410.099C223.96 408.892 223.96 408.892 225.096 407.661C228.533 404.459 228.533 404.459 231.846 404.099C234.297 404.732 234.297 404.732 237.029 405.794C238.535 406.369 238.535 406.369 240.071 406.956C241.131 407.375 242.191 407.793 243.283 408.224C244.368 408.644 245.454 409.064 246.572 409.497C248.715 410.327 250.856 411.16 252.996 411.998C255.275 412.878 257.556 413.725 259.861 414.532C273.031 419.219 286.846 426.742 293.408 439.661C294.12 441.363 294.12 441.363 294.846 443.099C295.96 442.604 295.96 442.604 297.096 442.099C299.846 441.099 299.846 441.099 303.846 441.099C304.248 442.676 304.248 442.676 304.658 444.286C306.088 449.069 306.088 449.069 308.846 453.099C311.179 453.142 313.513 453.139 315.846 453.099C317.543 454.394 319.206 455.732 320.846 457.099C322.38 457.699 323.938 458.241 325.51 458.735C326.321 458.994 327.133 459.253 327.969 459.519C328.589 459.71 329.208 459.902 329.846 460.099C329.958 461.947 329.958 461.947 330.072 463.833C331.031 476.797 333.167 487.501 343.135 496.696C344.834 498.189 344.834 498.189 347.025 499.22C350.022 502.313 349.352 505.961 349.346 510.099C349.522 517.862 350.698 523.95 353.846 531.099C354.208 532.424 354.552 533.756 354.846 535.099C343.6 545.021 331.566 545.905 317.186 545.258C312.954 544.97 308.81 544.249 304.631 543.552C299.693 542.961 294.815 542.869 289.846 542.849C288.949 542.84 288.052 542.831 287.127 542.821C282.247 542.843 278.468 543.388 273.846 545.099C270.775 544.901 267.881 544.554 264.846 544.099C262.927 543.848 261.009 543.599 259.089 543.357C257.126 543.11 255.164 542.855 253.201 542.599C240.515 541.095 227.855 540.799 215.096 540.536C213.127 540.493 211.158 540.449 209.19 540.405C204.408 540.299 199.627 540.198 194.846 540.099C193.856 537.624 193.856 537.624 192.846 535.099C191.856 535.429 190.866 535.759 189.846 536.099C183.653 536.889 179.386 534.83 173.811 532.192C170.619 531.015 168.219 530.898 164.846 531.099C163.856 528.459 162.866 525.819 161.846 523.099C160.629 523.738 159.412 524.377 158.158 525.036C152.177 528.179 146.644 528.233 140.033 528.161C138.851 528.154 138.851 528.154 137.645 528.147C135.712 528.136 133.779 528.118 131.846 528.099C131.516 525.459 131.186 522.819 130.846 520.099C129.856 520.759 128.866 521.419 127.846 522.099C122.303 522.854 119.373 520.996 114.846 518.099C114.846 518.759 114.846 519.419 114.846 520.099C112.971 519.599 112.971 519.599 110.846 518.099C109.861 515.447 109.387 512.893 108.846 510.099C107.323 513.036 106.045 516.015 104.846 519.099C94.0901 516.036 86.5216 511.25 79.8458 502.099C78.6192 499.317 78.6192 499.317 77.8458 497.099C77.5158 497.099 77.1858 497.099 76.8458 497.099C76.5158 499.079 76.1858 501.059 75.8458 503.099C71.4533 501.726 68.405 499.322 64.9083 496.438C62.5543 494.909 60.6055 494.487 57.8458 494.099C57.7968 493.302 57.7478 492.505 57.6974 491.685C57.1455 483.717 57.1455 483.717 54.8458 476.099C54.1858 476.099 53.5258 476.099 52.8458 476.099C52.8458 478.409 52.8458 480.719 52.8458 483.099C49.2672 480.252 46.0119 477.344 42.9903 473.911C42.4828 473.338 41.9752 472.764 41.4522 472.174C40.4425 471.021 39.4451 469.857 38.462 468.682C34.6806 464.377 31.3246 462.771 25.8458 461.099C25.9077 460.15 25.9695 459.201 26.0333 458.224C25.9714 457.192 25.9095 456.161 25.8458 455.099C24.3608 454.109 24.3608 454.109 22.8458 453.099C22.8458 451.779 22.8458 450.459 22.8458 449.099C22.1858 448.439 21.5258 447.779 20.8458 447.099C21.2346 444.086 22.1104 442.702 23.8458 440.099C19.5558 439.439 15.2658 438.779 10.8458 438.099C10.0318 435.332 10.0318 435.332 9.20127 432.509C8.47869 430.06 7.75603 427.61 7.0333 425.161C6.67687 423.949 6.32045 422.736 5.95322 421.487C5.60195 420.298 5.25068 419.109 4.88877 417.884C4.54741 416.72 4.20605 415.555 3.85434 414.356C2.97408 411.513 1.97025 408.767 0.908299 405.989C-0.295507 402.444 -0.295507 402.444 0.865331 399.61C1.45701 399.008 2.04869 398.406 2.6583 397.786C5.69565 394.677 5.69565 394.677 5.8458 390.099C5.1858 389.769 4.5258 389.439 3.8458 389.099C5.29836 385.269 7.27476 383.978 10.8458 382.099C10.5674 380.397 10.5674 380.397 10.2833 378.661C10.1389 377.486 9.99455 376.31 9.8458 375.099C10.8458 374.099 10.8458 374.099 13.8016 374.001C15.0988 374.013 16.396 374.024 17.7325 374.036C18.4271 374.04 19.1218 374.044 19.8375 374.048C22.8171 374.064 25.7966 374.092 28.7762 374.119C30.9491 374.137 33.122 374.149 35.295 374.161C36.5979 374.173 37.9007 374.184 39.243 374.196C52.4284 373.839 52.4284 373.839 55.6583 375.849Z" fill="#8BB11E"/>
<path d="M639.845 506.098C646.819 508.091 648.188 514.742 655.845 515.098C657.375 511.502 658.587 508.392 662.845 508.098C662.845 510.078 662.845 512.058 662.845 514.098C667.893 511.26 675.215 505.222 680.845 507.098C680.185 509.078 679.525 511.058 678.845 513.098C681.604 513.098 680.845 511.682 680.845 509.098C685.508 510.292 690.25 510.314 691.845 515.098C699.765 515.098 707.685 515.098 715.845 515.098C715.845 516.418 715.845 517.738 715.845 519.098C719.938 519.04 744.845 516.255 744.845 523.098C755.105 519.678 782.524 520.583 788.845 529.098C789.095 531.848 789.095 531.848 788.845 534.098C791.201 534.098 791.845 534.532 791.845 532.098C795.321 533.257 795.126 534.503 795.845 538.098C796.175 536.778 796.505 535.458 796.845 534.098C802.049 533.206 803.942 536.117 806.845 540.098C808.165 539.768 809.485 539.438 810.845 539.098C813.033 541.899 816.845 545.358 816.845 549.098C819.53 547.563 821.693 547.098 824.845 547.098C824.185 548.748 823.525 550.398 822.845 552.098C828.214 551.509 833.562 550.514 838.208 553.739C847.019 563.274 856.985 567.586 870.22 568.473C878.841 569.966 882.373 582.612 881.845 590.098C883.84 589.716 885.833 589.385 887.845 589.098C890.866 592.12 889.67 605.122 889.845 609.098C886.928 609.098 883.192 617.164 879.345 619.661C870.794 625.364 860.523 628.139 852.407 634.286C844.472 639.94 835.914 645.725 825.845 645.098C825.845 646.418 825.845 647.738 825.845 649.098C814.873 651.676 772.063 658.442 769.845 665.098C766.563 662.988 765.369 663.283 761.845 665.098C758.184 664.837 756.825 664.069 754.845 661.098C746.771 666.559 738.228 664.777 729.684 668.364C714.162 674.56 691.998 668.668 677.009 663.032C670.481 661.106 663.483 661.091 656.721 660.591C652.695 659.534 652.657 655.569 652.845 652.098C648.544 653.282 648.313 656.022 647.845 660.098C636.885 656.306 617.185 650.499 614.845 637.098C612.159 638.633 609.996 639.098 606.845 639.098C604.904 634.62 602.691 632.724 597.657 633.286C584.917 633.47 579.055 619.767 567.845 616.098C568.34 609.658 563.845 606.844 563.845 601.098C560.886 601.762 557.889 602.228 554.845 602.098C550.758 599.134 547.868 596.317 542.845 595.098C543.505 593.778 544.165 592.458 544.845 591.098C540.372 590.89 538.002 589.177 535.345 585.532C532.503 582.816 528.622 582.576 524.845 582.098C526.114 570.924 514.614 570.798 505.845 570.098C500.923 560.178 501.467 547.13 505.845 537.098C516.913 539.623 516.913 539.623 521.157 541.786C546.343 554.086 572.222 517.309 594.845 519.161C602.723 519.382 609.874 517.009 616.532 512.848C622.723 509.455 631.023 510.819 637.845 511.098C638.505 509.448 639.165 507.798 639.845 506.098Z" fill="#E20520"/>
<path d="M55.6586 375.849C63.4723 380.52 72.7886 381.815 80.8461 386.099C79.8561 383.624 79.8561 383.624 78.8461 381.099C82.98 379.032 89.2223 379.817 93.6586 380.587C100.031 381.61 106.486 381.051 112.846 382.099C114.33 384.142 114.33 384.142 114.846 386.099C120.298 378.526 127.923 388.913 134.846 388.099C134.846 387.439 134.846 386.779 134.846 386.099C136.721 386.286 136.721 386.286 138.846 387.099C140.096 389.661 140.096 389.661 140.846 392.099C147.487 389.276 158.569 384.544 165.846 387.099C171.763 391.727 189.846 391.745 189.846 401.099C194.232 397.59 199.443 397.836 204.846 398.099C209.204 398.039 213.596 397.974 217.846 399.099C220.774 402.136 221.557 406.231 222.846 410.099C225.504 407.22 227.756 404.569 231.846 404.099C256.247 409.974 284.022 419.826 294.846 443.099C297.883 441.749 300.47 441.099 303.846 441.099C304.965 445.49 306.257 449.316 308.846 453.099C311.179 453.142 313.513 453.139 315.846 453.099C317.543 454.394 319.206 455.732 320.846 457.099C323.792 458.25 326.826 459.166 329.846 460.099C331.107 480.874 349.373 492.83 349.346 510.099C349.55 519.107 352.977 526.551 354.846 535.099C338.756 549.296 283.695 547.876 259.846 543.099C238.684 539.174 216.38 540.555 194.846 540.099C193.856 537.624 193.856 537.624 192.846 535.099C182.744 538.466 174.869 530.503 164.846 531.099C163.856 528.459 162.866 525.819 161.846 523.099C152.147 528.195 142.46 528.204 131.846 528.099C131.516 525.459 131.186 522.819 130.846 520.099C129.856 520.759 128.866 521.419 127.846 522.099C122.303 522.854 119.373 520.996 114.846 518.099C114.846 518.759 114.846 519.419 114.846 520.099C112.971 519.599 112.971 519.599 110.846 518.099C109.861 515.447 109.387 512.893 108.846 510.099C107.323 513.036 106.045 516.015 104.846 519.099C93.3769 515.833 81.9199 508.785 77.8461 497.099C75.8469 497.099 76.1338 501.372 75.8461 503.099C69.4941 501.114 65.4335 495.287 58.8461 494.099C57.9103 487.946 56.6975 482.051 54.8461 476.099C54.1861 476.099 53.5261 476.099 52.8461 476.099C52.8461 478.409 52.8461 480.719 52.8461 483.099C43.6678 475.798 37.4554 464.643 25.8461 461.099C25.9784 459.069 25.9679 457.129 25.8461 455.099C24.3611 454.109 24.3611 454.109 22.8461 453.099C22.8461 450.176 22.8961 449.149 20.8461 447.099C21.2348 444.086 22.1106 442.702 23.8461 440.099C19.5561 439.439 15.2661 438.779 10.8461 438.099C7.69318 427.382 4.90079 416.432 0.908569 405.989C-1.49596 398.907 5.62046 396.978 5.84607 390.099C5.18607 389.769 4.52607 389.439 3.84607 389.099C5.29863 385.269 7.27502 383.978 10.8461 382.099C10.4648 379.769 10.1338 377.442 9.84607 375.099C10.8461 374.099 10.8461 374.099 13.8019 374.001C22.2823 374.077 30.7629 374.121 39.2433 374.196C52.4286 373.839 52.4286 373.839 55.6586 375.849Z" fill="#8BB11E"/>
</svg>
