<svg width="1740" height="492" viewBox="0 0 1740 492" fill="none" xmlns="http://www.w3.org/2000/svg">
<path d="M88.5772 0.484741C89.063 0.489238 89.5487 0.493735 90.0491 0.498369C91.2408 0.510052 92.4322 0.526406 93.6237 0.547042C93.6237 1.04047 93.6237 1.53391 93.6237 2.04229C93.2947 2.04229 92.9658 2.04229 92.6269 2.04229C92.6269 3.02915 92.6269 4.01601 92.6269 5.03278C93.0894 5.1767 93.552 5.32062 94.0287 5.4689C95.6173 6.02961 95.6173 6.02961 97.1126 7.02644C98.1892 7.29673 98.1892 7.29673 99.3788 7.47424C102.111 7.98438 104.618 8.82859 107.206 9.83003C107.66 10.0054 108.114 10.1808 108.582 10.3615C115.143 12.9627 122.163 16.1803 125.491 22.7265C126.136 24.0065 126.136 24.0065 127.018 24.9694C128.351 25.2695 129.41 25.195 130.765 25.0453C132.656 24.9292 133.835 25.6009 135.491 26.4647C135.655 25.6423 135.82 24.8199 135.989 23.9726C138.124 24.6346 138.969 25.3807 140.132 27.2746C140.387 27.6819 140.642 28.0893 140.905 28.5089C141.185 28.9773 141.185 28.9773 141.472 29.4551C141.801 28.9617 142.129 28.4683 142.468 27.9599C143.126 28.1244 143.784 28.2889 144.462 28.4583C144.615 29.0973 144.615 29.0973 144.772 29.7491C144.906 30.2997 145.04 30.8504 145.179 31.4177C145.312 31.967 145.445 32.5163 145.582 33.0823C145.823 34.3866 145.823 34.3866 146.456 34.9377C147.883 34.9742 149.297 34.9838 150.723 34.9689C151.326 34.9655 151.326 34.9655 151.941 34.9621C152.937 34.9562 153.933 34.9472 154.929 34.9377C155.205 35.5076 155.481 36.0775 155.766 36.6646C156.131 37.4078 156.495 38.1509 156.86 38.8939C157.133 39.4582 157.133 39.4582 157.411 40.0338C157.588 40.392 157.765 40.7502 157.947 41.1192C158.189 41.6165 158.189 41.6165 158.437 42.1237C158.875 43.0023 158.875 43.0023 159.913 43.4108C161.075 43.5643 162.237 43.6644 163.404 43.769C164.399 43.9092 164.399 43.9092 164.897 44.4076C165.047 45.3191 165.178 46.2335 165.302 47.1489C165.843 50.517 166.806 53.2523 168.698 56.0892C170.576 57.3249 172.667 57.5459 174.865 57.8648C175.05 58.7592 175.05 58.7592 175.239 59.6716C175.954 62.4614 176.979 64.2749 179.445 65.8706C180.075 66.1981 180.709 66.5196 181.345 66.8363C186.784 69.6936 186.784 69.6936 187.824 71.322C188.126 73.6773 187.919 76.0028 187.326 78.2999C187.608 78.4566 187.89 78.6134 188.181 78.7749C188.546 78.9882 188.912 79.2015 189.288 79.4213C189.653 79.6295 190.017 79.8376 190.392 80.0521C191.472 80.9195 191.63 81.4377 191.812 82.7856C192.305 82.7856 192.798 82.7856 193.307 82.7856C193.471 82.4567 193.636 82.1277 193.805 81.7888C194.077 82.313 194.077 82.313 194.354 82.8479C195.564 85.1303 196.759 87.3205 198.353 89.3585C199.799 91.2122 200.827 93.1023 201.78 95.246C202.196 96.1095 202.196 96.1095 202.621 96.9904C203.614 99.6751 203.558 102.579 203.668 105.409C203.768 107.352 203.768 107.352 204.272 109.202C205.261 109.842 205.261 109.842 206.266 110.198C206.266 110.856 206.266 111.514 206.266 112.192C206.595 112.192 206.923 112.192 207.262 112.192C207.262 112.686 207.262 113.179 207.262 113.687C207.591 113.687 207.92 113.687 208.259 113.687C208.595 114.402 208.926 115.119 209.256 115.837C209.441 116.236 209.626 116.635 209.817 117.046C210.253 118.173 210.253 118.173 210.253 119.668C210.746 119.668 211.24 119.668 211.748 119.668C211.866 119.939 211.983 120.21 212.105 120.489C216.863 132.073 216.863 132.073 225.369 140.904C226.967 142.237 226.865 144.23 227.076 146.184C227.175 147.087 227.175 147.087 227.276 148.009C227.343 148.638 227.41 149.268 227.479 149.916C227.548 150.551 227.618 151.186 227.689 151.84C227.859 153.411 228.028 154.981 228.196 156.551C227.723 156.685 227.25 156.818 226.763 156.956C225.079 157.423 225.079 157.423 224.209 159.043C225.195 159.208 226.182 159.372 227.199 159.542C227.364 160.035 227.528 160.528 227.697 161.037C227 161.985 227 161.985 226.015 162.999C224.741 164.317 223.997 165.184 223.71 167.018C225.026 166.853 226.342 166.689 227.697 166.519C227.573 167.672 227.573 167.672 227.199 169.011C226.867 169.226 226.535 169.441 226.192 169.662C225.071 170.438 225.071 170.438 224.989 171.825C224.988 172.606 224.988 172.606 224.987 173.404C224.81 177.165 223.902 180.589 222.215 183.964C221.134 184.91 221.134 184.91 220.221 185.459C218.991 184.885 218.204 184.439 217.231 183.466C216.573 183.466 215.915 183.466 215.237 183.466C215.073 183.794 214.908 184.123 214.739 184.462C215.212 184.524 215.684 184.586 216.172 184.649C217.729 184.961 217.729 184.961 218.726 185.958C218.925 188.231 218.812 189.9 218.009 192.032C216.938 194.912 216.869 197.865 216.732 200.91C217.884 200.91 219.035 200.91 220.221 200.91C220.288 201.958 220.337 203.007 220.377 204.056C220.406 204.64 220.435 205.224 220.465 205.826C220.384 206.342 220.304 206.858 220.221 207.389C218.997 208.283 218.997 208.283 217.729 208.885C217.056 210.231 217.062 211.436 216.95 212.934C216.909 213.48 216.867 214.027 216.824 214.589C216.794 215.009 216.763 215.43 216.732 215.863C215.745 215.863 214.759 215.863 213.742 215.863C213.579 216.193 213.417 216.524 213.249 216.865C210.629 222.161 210.629 222.161 209.754 223.339C208.713 223.648 208.713 223.648 207.761 223.837C207.893 224.151 208.026 224.464 208.162 224.787C210.135 229.569 211.016 234.185 211.748 239.288C211.805 239.681 211.863 240.074 211.921 240.48C212.032 241.245 212.14 242.011 212.247 242.777C209.318 242.634 207.729 241.325 205.767 239.288C205.603 238.959 205.438 238.63 205.269 238.291C205.105 238.575 204.941 238.858 204.772 239.15C202.147 243.411 198.283 247.021 193.307 248.26C189.078 248.702 185.383 248.784 181.843 246.266C180.369 244.607 180.087 243.088 180.167 240.873C180.502 238.861 181.45 237.118 182.342 235.301C183.481 232.542 183.637 229.777 183.837 226.828C181.001 225.838 178.356 225.679 175.358 225.601C173.533 225.272 173.008 224.783 171.875 223.339C171.396 222.542 170.939 221.731 170.504 220.909C169.025 218.416 167.555 216.616 164.897 215.364C163.79 215.156 162.678 214.971 161.564 214.803C159.874 214.48 159.874 214.48 158.418 213.869C157.449 212.415 156.966 211.04 156.422 209.383C154.907 204.821 151.03 203.189 146.989 201.161C146.484 200.914 145.979 200.667 145.459 200.412C145.876 199.438 145.876 199.438 146.456 198.418C147.764 198.044 147.764 198.044 148.948 197.92C148.783 197.591 148.619 197.262 148.449 196.923C147.046 196.689 147.046 196.689 145.428 196.611C144.877 196.574 144.327 196.537 143.759 196.498C143.333 196.474 142.907 196.45 142.468 196.424C142.359 196.075 142.25 195.725 142.137 195.365C140.002 188.975 135.937 184.853 130.693 180.755C127.164 177.916 125.134 174.699 123.529 170.507C121.39 170.342 119.252 170.178 117.049 170.008C116.985 168.944 116.985 168.944 116.919 167.859C116.849 166.914 116.778 165.969 116.707 165.024C116.667 164.325 116.667 164.325 116.626 163.613C116.328 159.913 115.362 157.186 112.567 154.655C110.436 153.443 108.479 152.614 106.084 152.065C106.028 151.649 106.028 151.649 105.971 151.224C105.414 147.992 104.161 146.085 102.097 143.592C100.18 140.93 100.18 140.93 99.7604 139.138C98.8915 137.11 97.625 136.352 95.8627 135.082C94.5731 134.086 93.5189 133.008 92.4088 131.817C90.8022 130.106 89.6861 129.431 87.4558 128.764C86.1942 128.208 86.1942 128.208 85.1506 127.145C84.1852 124.213 84.0843 121.028 83.7987 117.973C82.8757 109.633 78.8547 101.449 75.5873 93.813C71.8865 85.1519 70.0886 77.2269 69.6997 67.8331C69.2063 67.6687 68.7129 67.5042 68.2045 67.3347C68.2045 67.8282 68.2045 68.3216 68.2045 68.83C67.5466 68.83 66.8887 68.83 66.2108 68.83C65.9572 66.1669 66.6468 64.9731 68.2045 62.849C68.369 62.3556 68.5335 61.8621 68.7029 61.3537C68.2403 61.5079 68.2403 61.5079 67.7684 61.6652C67.4189 61.7269 67.0694 61.7886 66.7093 61.8522C65.2987 60.4416 65.5367 59.0513 65.506 57.16C65.4964 56.7964 65.4867 56.4327 65.4768 56.058C65.447 54.8951 65.4239 53.7322 65.4009 52.5692C65.3819 51.7813 65.3624 50.9934 65.3425 50.2056C65.2946 48.273 65.2527 46.3404 65.214 44.4076C64.0627 44.0787 62.9113 43.7497 61.7251 43.4108C61.7251 43.0818 61.7251 42.7529 61.7251 42.4139C62.9587 42.1672 62.9587 42.1672 64.2172 41.9155C64.0527 40.7642 63.8882 39.6129 63.7188 38.4266C63.3898 38.4266 63.0608 38.4266 62.7219 38.4266C61.5627 36.6153 61.644 35.0519 61.7251 32.9441C62.2185 32.9441 62.712 32.9441 63.2203 32.9441C63.3437 32.5123 63.4671 32.0805 63.5942 31.6357C64.2595 29.8393 65.0281 28.4684 66.2108 26.9631C66.7043 26.9631 67.1977 26.9631 67.7061 26.9631C68.1161 25.5266 68.2685 24.2478 68.2707 22.7557C68.2713 22.3417 68.272 21.9276 68.2726 21.5009C68.2707 21.0727 68.2688 20.6445 68.2668 20.2033C68.2687 19.7732 68.2707 19.343 68.2726 18.8998C68.272 18.4864 68.2714 18.0729 68.2707 17.647C68.2701 17.2708 68.2696 16.8945 68.269 16.5069C68.2409 15.397 68.2409 15.397 67.7061 14.0043C67.6424 12.6715 67.6842 11.3522 67.7061 10.0169C67.2127 10.0169 66.7192 10.0169 66.2108 10.0169C66.2108 9.52351 66.2108 9.03007 66.2108 8.52169C66.5231 8.4613 66.8353 8.4009 67.157 8.33868C67.5644 8.25516 67.9717 8.17163 68.3914 8.08558C68.9986 7.96415 68.9986 7.96415 69.618 7.84026C70.7896 7.59135 70.7896 7.59135 71.6934 6.52803C71.8145 5.31183 71.8145 5.31183 71.7557 3.97365C71.7467 3.52005 71.7377 3.06646 71.7285 2.59911C71.7169 2.25088 71.7053 1.90265 71.6934 1.54387C72.9235 2.11792 73.7109 2.56455 74.6839 3.53754C74.6839 4.03097 74.6839 4.5244 74.6839 5.03278C76.1642 5.03278 77.6445 5.03278 79.1696 5.03278C79.1491 4.64215 79.1285 4.25152 79.1073 3.84905C79.1696 2.5407 79.1696 2.5407 80.1665 1.54387C82.9208 0.285507 85.6154 0.432567 88.5772 0.484741Z" fill="#BACD01"/>
<path d="M383.42 99.436C384.699 99.732 384.699 99.732 385.817 101.219C386.587 102.245 386.938 102.665 388.204 102.953C389.394 102.981 390.552 102.935 391.739 102.847C392.54 102.804 393.341 102.765 394.142 102.73C394.494 102.706 394.846 102.682 395.209 102.657C396.163 102.722 396.163 102.722 397.658 103.719C399.099 103.952 400.507 104.136 401.957 104.28C402.34 104.323 402.724 104.366 403.119 104.41C408.268 105.075 408.268 105.075 413.109 103.719C414.445 103.853 415.187 104.272 416.325 105C418.785 105.992 420.902 105.706 423.513 105.557C428.458 105.423 428.458 105.423 430.522 106.42C431.542 107.45 432.276 108.473 433.046 109.7C433.735 110.557 434.431 111.408 435.133 112.255C436 113.357 436.864 114.462 437.714 115.578C439.725 118.134 442.124 119.742 445.007 121.164C446.306 134.296 446.306 134.296 443.466 138.213C441.958 139.904 440.282 141.35 438.513 142.759C435.996 144.896 433.943 147.526 432.204 150.321C431.77 151.014 431.77 151.014 431.326 151.721C430.643 152.908 430.093 154.079 429.557 155.336C428.56 157.05 428.56 157.05 426.846 157.766C425.79 157.933 424.732 158.084 423.669 158.202C423.309 158.315 422.949 158.428 422.579 158.545C422.242 159.374 421.911 160.205 421.582 161.037C420.845 162.243 420.097 163.418 419.308 164.588C419.087 164.918 418.865 165.247 418.637 165.586C415.71 169.885 412.361 173.798 408.856 177.634C408.072 178.492 407.291 179.352 406.513 180.216C402.606 184.529 398.562 188.702 394.469 192.838C393.681 193.637 392.896 194.439 392.114 195.243C390.971 196.42 389.818 197.586 388.663 198.751C388.317 199.111 387.97 199.472 387.614 199.843C385.517 201.931 384.268 202.725 381.21 202.904C380.516 203.71 379.855 204.545 379.217 205.396C378.279 206.052 377.318 206.623 376.323 207.187C375.135 207.913 375.135 207.913 373.826 209.087C371.984 210.653 369.941 211.726 367.814 212.853C365.803 213.954 364.369 215.234 362.769 216.86C361.679 216.766 361.679 216.766 360.775 216.361C359.678 216.256 359.678 216.256 358.719 217.233C356.308 219.121 353.663 220.221 350.807 221.283C348.078 222.353 345.191 223.783 343.72 226.423C343.592 226.721 343.463 227.019 343.331 227.326C342.832 227.266 342.832 227.266 342.324 227.204C338.553 226.945 336.565 227.836 333.567 230.101C332.366 230.815 332.366 230.815 331.273 230.735C330.372 230.317 330.372 230.317 329.375 229.32C328.886 229.963 328.398 230.607 327.911 231.251C327.639 231.61 327.367 231.968 327.087 232.338C326.365 233.279 326.365 233.279 325.886 234.304C324.729 234.656 323.566 234.988 322.397 235.301C322.233 235.465 322.068 235.63 321.899 235.799C321.172 235.84 320.445 235.869 319.718 235.893C316.973 236.125 315.102 237.148 312.797 238.603C311.432 239.288 311.432 239.288 309.762 239.516C307.591 239.839 306.03 240.604 304.112 241.625C303.412 241.987 302.713 242.349 302.013 242.711C301.669 242.891 301.326 243.071 300.972 243.256C300.045 243.735 299.113 244.197 298.174 244.65C297.645 244.906 297.117 245.162 296.573 245.425C295.874 245.761 295.874 245.761 295.162 246.105C293.99 246.677 293.99 246.677 293.333 247.516C292.208 248.511 291.306 248.613 289.831 248.863C289.04 249.005 289.04 249.005 288.233 249.15C287.396 249.296 287.396 249.296 286.543 249.444C280.166 250.638 274.319 251.979 269.565 256.733C268.69 256.79 267.815 256.843 266.939 256.877C261.902 257.075 257.723 257.72 253.511 260.677C252.185 261.482 251.176 261.833 249.638 261.509C249.306 261.413 248.974 261.317 248.632 261.219C243.774 260.654 239.139 262.23 234.577 263.74C232.47 264.262 230.631 264.323 228.477 264.271C228.112 264.267 227.748 264.262 227.372 264.258C226.484 264.246 225.596 264.228 224.708 264.209C224.701 263.535 224.701 263.535 224.694 262.848C224.672 261.149 224.641 259.45 224.604 257.751C224.591 257.022 224.58 256.292 224.573 255.563C224.527 251.126 224.178 247.357 222.59 243.147C222.172 241.62 222.222 240.782 222.714 239.288C223.727 238.317 223.727 238.317 224.957 237.45C226.597 236.359 226.597 236.359 227.698 234.803C227.803 233.887 227.882 232.969 227.948 232.05C227.989 231.5 228.03 230.95 228.072 230.383C228.113 229.806 228.154 229.229 228.197 228.635C228.278 227.499 228.361 226.363 228.446 225.228C228.482 224.722 228.518 224.217 228.555 223.697C228.676 222.527 228.885 221.479 229.194 220.349C229.555 217.089 229.045 215.61 227.2 212.872C227.293 211.049 227.622 209.613 228.197 207.888C229.677 208.382 231.157 208.875 232.682 209.383C232.682 204.285 232.682 199.186 232.682 193.933C233.669 193.768 234.656 193.604 235.673 193.434C235.673 193.105 235.673 192.776 235.673 192.437C235.015 192.273 234.357 192.108 233.679 191.939C234.666 190.294 235.653 188.649 236.67 186.955C237.492 187.119 238.315 187.284 239.162 187.453C239.326 187.124 239.491 186.795 239.66 186.456C239.167 186.456 238.673 186.456 238.165 186.456C238.165 185.963 238.165 185.469 238.165 184.961C238.73 184.766 239.296 184.57 239.878 184.369C241.755 183.672 241.755 183.672 242.121 182.126C242.132 181.746 242.142 181.366 242.152 180.974C241.494 180.974 240.837 180.974 240.159 180.974C240.323 180.151 240.488 179.329 240.657 178.482C241.808 178.646 242.96 178.811 244.146 178.98C244.417 178.615 244.417 178.615 244.693 178.242C245.525 177.125 246.362 176.012 247.199 174.899C247.625 174.324 247.625 174.324 248.059 173.738C250.105 171.029 252.312 168.227 255.61 167.018C256.268 167.018 256.925 167.018 257.603 167.018C257.429 166.741 257.254 166.463 257.074 166.177C256.467 164.68 256.648 164.079 257.105 162.532C257.181 162.228 257.256 161.923 257.335 161.609C258.118 158.974 259.354 157.737 261.47 156.043C262.759 154.904 263.765 153.665 264.83 152.315C267.801 148.605 270.425 145.944 275.048 144.589C275.377 144.589 275.706 144.589 276.045 144.589C276.045 143.603 276.045 142.616 276.045 141.599C276.327 141.52 276.609 141.441 276.899 141.359C277.448 141.185 277.448 141.185 278.007 141.007C278.371 140.897 278.736 140.787 279.111 140.674C280.174 140.158 280.174 140.158 280.408 138.801C280.468 138.212 280.468 138.212 280.53 137.612C280.855 137.569 281.181 137.525 281.516 137.481C284.589 137.005 284.589 137.005 287.134 135.338C288.65 133.994 289.509 133.766 291.496 133.624C291.321 133.254 291.146 132.884 290.966 132.503C290.499 131.132 290.499 131.132 290.499 130.073C291.456 128.277 293.374 127.839 295.23 127.248C299.745 125.783 302.897 123.313 306.168 119.918C311.463 114.536 311.463 114.536 314.705 113.958C316.812 114.087 317.674 114.447 319.189 115.962C319.425 116.363 319.662 116.763 319.905 117.177C320.162 116.663 320.419 116.149 320.684 115.619C323.581 110.587 328.736 108.806 334.026 107.249C335.36 106.856 336.685 106.451 338.01 106.03C338.552 105.858 338.552 105.858 339.105 105.683C339.815 105.457 340.525 105.23 341.235 105.002C343.719 104.218 343.719 104.218 344.826 104.218C345.104 104.516 345.381 104.814 345.667 105.121C347.124 106.499 348.445 106.99 350.309 107.707C350.309 108.2 350.309 108.693 350.309 109.202C350.874 108.976 351.439 108.75 352.022 108.517C353.507 107.946 354.875 107.599 356.445 107.364C359.082 106.839 360.872 105.316 362.931 103.657C365.478 101.872 368.167 101.327 371.242 101.726C371.935 101.951 372.622 102.201 373.298 102.473C375.07 103.184 376.29 103.623 378.22 103.221C379.288 102.371 380.246 101.475 381.197 100.495C382.207 99.732 382.207 99.732 383.42 99.436Z" fill="#F5A500"/>
<path d="M85.1894 0.000259903C88.4992 0.0094537 91.8091 0.0263261 95.1188 0.0489333C94.4318 1.59472 94.0197 2.8013 94.122 4.53467C104.048 9.25493 120.381 12.5929 125.491 22.7268C126.135 24.0068 126.135 24.0068 127.017 24.9697C128.351 25.2698 129.41 25.1953 130.765 25.0456C132.656 24.9295 133.835 25.6012 135.49 26.465C135.655 25.6426 135.819 24.8202 135.989 23.9729C138.806 24.8464 140.061 27.0993 141.471 29.4554C141.8 28.962 142.129 28.4686 142.468 27.9602C143.126 28.1247 143.784 28.2892 144.462 28.4586C144.894 30.2601 145.067 33.729 146.456 34.938C149.278 35.0102 152.105 34.965 154.929 34.938C155.959 37.0625 157.538 42.4764 159.913 43.4111C161.397 43.6072 163.766 43.2769 164.897 44.4079C165.579 48.5682 166.297 52.4894 168.697 56.0895C170.576 57.3252 172.667 57.5462 174.865 57.8651C175.534 61.0957 176.516 63.9759 179.444 65.8709C182.339 67.3742 186.015 68.4905 187.824 71.3223C188.126 73.6776 187.918 76.0031 187.326 78.3002C189.339 79.4191 191.469 80.2393 191.811 82.7859C193.017 82.7859 193.267 82.8656 193.805 81.7891C197.212 88.5767 203.798 94.2201 203.96 102.193C204.038 105.547 204.778 107.554 206.754 110.263C213.229 119.468 226.107 137.205 227.076 146.184C227.454 149.639 227.827 153.095 228.196 156.551C226.394 157.061 225.157 157.278 224.208 159.043C225.195 159.208 226.182 159.372 227.199 159.542C227.363 160.035 227.528 160.529 227.697 161.037C226.244 163.014 224.114 164.44 223.71 167.018C225.026 166.854 226.342 166.689 227.697 166.52C227.347 169.761 224.611 177.872 223.212 180.974C222.219 180.974 222.215 180.977 222.215 181.971C219.694 182.811 216.889 182.469 214.24 182.469C214.24 183.127 214.24 183.785 214.24 184.463C215.932 184.651 217.462 184.695 218.726 185.958C219.164 190.952 216.958 195.863 216.732 200.91C217.884 200.91 219.035 200.91 220.221 200.91C220.361 203.088 220.557 205.235 220.221 207.39C218.996 208.283 218.996 208.283 217.729 208.885C216.707 210.928 216.895 213.601 216.732 215.863C215.745 215.863 214.758 215.863 213.742 215.863C212.504 218.382 211.433 221.076 209.754 223.339C208.713 223.649 208.713 223.649 207.761 223.837C210.205 229.017 210.406 234.673 210.751 240.285C209.929 240.45 209.106 240.614 208.259 240.784C207.93 240.126 207.601 239.468 207.262 238.79C206.269 238.79 206.265 238.786 206.265 237.793C200.063 237.793 195.696 254.378 183.837 247.263C183.837 245.773 183.831 245.768 182.342 245.768C182.342 244.593 182.558 244.273 181.345 244.273C181.273 242.435 180.529 237.295 183.338 237.295C184.133 234.072 183.874 230.629 183.837 227.326C181.003 225.811 178.558 225.64 175.358 225.584C172.737 225.142 171.647 223.067 170.504 220.909C169.025 218.416 167.555 216.616 164.897 215.364C162.693 214.951 160.5 214.743 158.418 213.869C157.449 212.416 156.966 211.04 156.422 209.383C154.787 204.459 149.747 202.512 145.459 200.412C145.875 199.438 145.875 199.438 146.456 198.418C147.764 198.044 147.764 198.044 148.948 197.92C147.988 196 144.515 196.542 142.468 196.425C139.127 185.732 128.262 181.875 124.152 172.002C123.342 169.238 119.996 169.723 117.548 169.51C117.105 163.819 116.274 159.927 113.021 155.124C110.826 153.558 108.713 152.625 106.084 152.066C104.946 143.592 97.7913 137.593 92.4087 131.818C90.2795 129.55 87.261 129.275 85.1505 127.145C84.3489 124.73 84.2472 122.144 84.0018 119.626C82.7444 107.277 73.9264 96.9179 73.1885 84.7796C70.5908 84.7796 70.2889 68.6459 70.198 66.3382C69.3757 66.3382 68.5533 66.3382 67.706 66.3382C67.6165 64.3708 67.6594 63.0496 68.7028 61.354C67.7159 61.6008 67.7159 61.6008 66.7091 61.8525C63.4064 57.6881 64.6833 49.5274 64.7155 44.4079C63.4283 44.4079 62.7218 44.0285 62.7218 45.4047C62.0639 45.2403 61.406 45.0758 60.7281 44.9063C60.5724 43.7849 60.5724 43.7849 60.7281 42.4142C61.9742 41.2617 61.9742 41.2617 63.2202 40.4206C61.7763 38.2999 60.7647 36.1714 60.8644 33.5187C61.7352 30.9393 64.8225 29.752 67.2075 28.957C67.3462 27.4972 67.1371 25.0401 68.2044 23.9729C68.3729 19.2193 67.6188 14.723 67.706 10.0172C66.2163 10.0172 66.2107 10.0119 66.2107 8.522C68.1373 8.14937 70.3723 8.08256 71.6933 6.52833C71.8579 4.87454 71.7484 3.20375 71.6933 1.54418C74.3102 2.77534 75.5986 4.24481 78.6711 4.53467C78.4567 2.9394 78.1629 2.53775 76.6774 2.0426C79.6573 0.724563 81.8874 -0.0159264 85.1894 0.000259903Z" fill="#BACD01"/>
<path d="M383.421 99.436C385.101 99.8248 385.446 100.725 386.442 102.05C389.371 104.677 394.083 101.104 397.104 103.455C405.335 109.423 421.27 101.953 430.523 106.42C435.593 111.541 438.133 117.773 445.008 121.164C445.997 131.173 446.393 136.479 438.513 142.759C434.806 145.906 431.19 155.998 426.847 157.735C418.015 159.285 411.745 174.238 406.28 180.441C401.938 185.361 389.596 202.46 381.211 202.904C376.12 208.816 368.226 211.316 362.769 216.86C357.441 216.403 346.036 221.916 343.331 227.326C338.315 226.715 333.098 233.042 329.376 229.32C328.165 230.911 326.736 232.486 325.887 234.304C314.572 237.739 301.206 246.935 289.831 248.863C267.396 252.895 248.781 264.873 224.708 264.209C224.636 257.222 225.085 249.759 222.591 243.147C221.334 238.559 225.511 237.894 227.699 234.803C228.663 226.375 225.941 214.657 228.197 207.888C230.165 208.902 232.021 208.809 234.178 208.387C234.178 207.212 234.394 206.891 233.181 206.891C233.09 202.7 234.491 198.652 233.181 194.431C235.138 194.105 238.157 192.433 235.175 190.942C235.869 188.628 237.586 188.618 239.661 187.952C240.849 185.39 241.841 183.836 242.153 180.974C239.86 180.974 240.222 180.662 240.658 178.482C248.942 179.665 248.677 167.018 257.604 167.018C252.944 159.617 270.694 144.589 276.045 144.589C276.045 139.494 286.318 133.994 291.496 133.624C286.532 123.113 350.309 99.2138 350.309 109.202C356.37 106.778 364.989 100.915 371.242 101.726C373.551 102.476 375.71 103.744 378.22 103.221C379.94 101.852 381.217 99.9737 383.421 99.436Z" fill="#F5A500"/>
<path d="M176.454 274.707C181.353 275.911 185.015 278.577 188.99 281.563C189.799 282.138 190.658 282.641 191.516 283.141C192.809 284.146 192.809 284.146 193.083 285.399C193.044 285.849 193.005 286.299 192.964 286.762C192.869 288.436 192.794 289.965 193.058 291.622C194.039 298.62 194.039 298.62 191.812 301.59C191.812 303.307 192.108 303.593 193.058 304.954C195.602 309.443 194.406 315.045 193.681 319.938C193.626 320.328 193.572 320.719 193.516 321.121C193.06 323.824 193.06 323.824 191.868 324.749C190.931 324.986 189.985 325.19 189.039 325.39C187.199 325.859 187.199 325.859 186.36 327.57C186.186 328.043 186.011 328.516 185.831 329.003C186.982 329.168 188.133 329.332 189.32 329.501C189.037 331.504 188.691 333.494 188.323 335.482C188.248 335.889 188.173 336.295 188.095 336.713C186.262 346.317 183.055 353.39 176.859 360.902C176.223 361.699 175.589 362.498 174.959 363.3C174.543 363.821 174.543 363.821 174.118 364.352C173.352 365.413 172.806 366.494 172.218 367.661C171.622 368.67 171.622 368.67 170.878 369.375C169.792 369.394 169.792 369.394 168.542 369.219C167.226 369.031 167.226 369.031 165.894 369.375C162.836 372.307 160.019 376.276 159.041 380.433C158.27 382.169 157.586 382.207 155.898 382.875C154.221 383.663 152.906 384.88 151.502 386.072C147.612 389.239 144.552 390.585 139.478 390.308C139.293 390.879 139.293 390.879 139.104 391.461C138.385 393.006 137.92 393.4 136.488 394.295C134.71 394.92 132.917 395.463 131.112 396.003C129.136 396.971 128.76 397.744 128.015 399.778C127.85 400.436 127.686 401.094 127.516 401.772C125.871 401.772 124.227 401.772 122.532 401.772C121.702 403.728 121.1 405.705 120.538 407.753C119.973 407.855 119.408 407.958 118.825 408.064C117.009 408.5 115.782 409.211 114.277 410.307C112.31 411.7 111.033 412.133 108.576 411.74C108.083 411.411 107.589 411.082 107.081 410.743C106.919 411.019 106.756 411.296 106.589 411.58C106.371 411.941 106.153 412.303 105.928 412.675C105.715 413.033 105.501 413.392 105.28 413.761C104.589 414.731 104.589 414.731 103.094 415.727C102.6 415.727 102.107 415.727 101.599 415.727C101.09 415.07 100.592 414.405 100.103 413.734C99.6098 413.569 99.1164 413.405 98.608 413.235C98.5052 413.513 98.4024 413.79 98.2965 414.076C96.0453 417.862 91.7868 419.409 87.7986 420.649C81.6476 422.469 81.6476 422.469 76.74 426.35C75.7373 427.478 75.3679 427.678 73.8294 427.773C72.7928 427.717 71.7564 427.658 70.7201 427.596C68.5316 427.731 67.3052 428.68 65.6328 430.026C64.7158 430.68 64.7158 430.68 63.2205 430.68C62.9738 428.953 62.9738 428.953 62.7221 427.191C62.3931 428.013 62.0642 428.836 61.7253 429.683C60.245 429.847 58.7647 430.012 57.2395 430.181C57.0751 431.004 56.9106 431.826 56.7411 432.673C54.9438 433.392 53.8042 433.675 51.8504 433.515C49.0149 433.411 47.2963 435.399 45.2776 437.159C43.5709 438.297 43.2411 438.202 41.2902 438.031C38.959 437.979 37.6193 438.365 35.6208 439.558C30.583 442.534 25.7741 442.768 20.0453 442.798C19.5225 442.8 18.9998 442.803 18.4612 442.806C15.0119 442.774 11.7653 442.374 8.39481 441.645C8.30044 441.275 8.20608 440.906 8.10885 440.525C7.49126 438.125 6.80354 435.83 5.84043 433.546C5.01319 431.558 4.54469 429.839 4.40749 427.689C5.56287 426.534 8.3727 426.961 9.93678 426.881C10.4148 426.819 10.8928 426.757 11.3853 426.692C11.5498 426.364 11.7143 426.035 11.8837 425.696C11.1766 424.375 11.1766 424.375 10.2016 422.954C8.59208 420.518 7.83114 419.345 7.86524 416.413C7.86974 415.913 7.87424 415.413 7.87887 414.898C7.88465 414.514 7.89044 414.13 7.89639 413.734C6.58058 414.063 5.26476 414.392 3.90907 414.731C4.15579 414.381 4.4025 414.031 4.65669 413.671C5.53472 411.988 5.58927 411.126 5.40432 409.248C4.68169 407.94 4.68169 407.94 3.69101 406.756C2.23975 404.926 1.58537 403.627 1.41699 401.273C2.04001 400.495 2.04001 400.495 2.91224 399.778C3.41657 398.951 3.91538 398.12 4.40749 397.286C4.90092 396.793 4.90092 396.793 5.40432 396.289C4.91089 395.827 4.91089 395.827 4.40749 395.355C2.9607 393.094 2.96382 391.43 3.41065 388.813C3.78784 387.445 4.24822 386.122 4.75015 384.794C4.8715 384.462 4.99285 384.129 5.11787 383.786C5.50361 382.846 5.50361 382.846 6.40115 381.337C7.68807 380.809 7.68807 380.809 8.89323 380.838C9.22218 381.167 9.55113 381.496 9.89006 381.835C10.3835 381.835 10.8769 381.835 11.3853 381.835C11.3924 381.435 11.3994 381.036 11.4067 380.624C11.5772 376.56 12.2893 373.012 13.4391 369.128C14.2919 366.246 14.9334 363.379 15.3726 360.403C16.01 360.29 16.6473 360.177 17.304 360.061C18.4019 359.816 18.4019 359.816 19.36 359.406C20.0273 358.236 20.0273 358.236 20.3568 356.914C21.3225 355.762 21.3225 355.762 22.3504 354.921C22.8439 354.921 23.3373 354.921 23.8457 354.921C23.8052 354.632 23.7647 354.342 23.723 354.045C23.4709 350.927 23.4709 350.927 24.4999 349.576C25.4138 348.811 26.3572 348.126 27.3346 347.444C27.9743 346.922 28.608 346.393 29.2348 345.856C29.5156 345.622 29.7963 345.389 30.0856 345.149C31.2117 344.088 31.7953 343.277 31.9177 341.722C31.9061 341.277 31.8946 340.832 31.8826 340.373C31.8736 339.924 31.8647 339.475 31.8554 339.012C31.8438 338.67 31.8323 338.327 31.8203 337.975C32.4053 337.802 32.4053 337.802 33.0021 337.626C33.5065 337.463 34.0108 337.301 34.5305 337.133C35.0335 336.977 35.5366 336.821 36.0549 336.66C36.4668 336.436 36.8786 336.212 37.3029 335.981C37.6295 334.748 37.6295 334.748 37.8013 333.489C38.6171 332.77 38.6171 332.77 39.6392 332.212C39.9977 332.005 40.3563 331.798 40.7256 331.585C41.2518 331.294 41.2518 331.294 41.7887 330.997C44.1695 329.604 45.269 328.605 46.2744 326.013C46.6228 324.649 46.6228 324.649 46.7728 323.52C48.2573 323.545 48.2573 323.545 49.7419 323.569C50.8613 323.562 50.8613 323.562 52.2554 323.022C52.6744 322.214 53.0652 321.391 53.4391 320.561C54.3954 318.881 54.8095 318.167 56.6885 317.61C57.8044 317.498 58.9215 317.398 60.0392 317.308C62.9024 316.855 64.9229 315.25 67.2078 313.552C67.6126 313.275 68.0174 312.997 68.4344 312.711C69.8806 311.715 69.8806 311.715 71.1952 310.562C71.1952 310.068 71.1952 309.575 71.1952 309.066C71.5241 309.066 71.8531 309.066 72.192 309.066C72.3565 309.56 72.521 310.053 72.6904 310.562C75.1527 310.79 75.1527 310.79 77.3008 309.752C78.2785 308.425 78.987 307.076 79.6682 305.578C79.9972 305.578 80.3261 305.578 80.6651 305.578C80.8295 305.906 80.994 306.235 81.1635 306.574C83.3839 306.328 83.3839 306.328 85.6492 306.076C85.6492 305.397 85.6492 304.719 85.6492 304.02C85.9179 302.772 85.9179 302.772 86.646 301.59C88.22 300.796 89.7359 300.252 91.4075 299.715C94.9068 298.577 97.6407 296.789 100.602 294.612C101.514 293.967 102.428 293.323 103.343 292.681C103.921 292.267 103.921 292.267 104.511 291.844C106.658 290.405 107.869 289.944 110.517 290.347C112.239 290.803 113.564 291.655 115.056 292.619C115.25 292.396 115.444 292.173 115.644 291.943C120.471 286.726 127.423 285.241 133.996 283.149C134.16 283.642 134.324 284.136 134.494 284.644C137.365 283.999 139.145 282.959 141.472 281.155C141.801 281.32 142.13 281.484 142.469 281.654C142.633 280.831 142.798 280.009 142.967 279.161C145.555 278.621 147.994 278.638 150.618 278.702C151.535 278.716 152.452 278.729 153.369 278.741C154.8 278.762 156.23 278.787 157.66 278.824C166.307 279.094 166.307 279.094 173.923 275.338C174.866 274.676 174.866 274.676 176.454 274.707Z" fill="#5AC3EF"/>
<path d="M220.721 286.14C223.022 286.772 224.782 287.747 226.737 289.07C228.394 290.033 229.956 290.189 231.85 290.176C232.248 290.174 232.646 290.172 233.057 290.171C233.468 290.167 233.879 290.162 234.303 290.158C234.722 290.156 235.141 290.154 235.572 290.151C236.603 290.145 237.633 290.137 238.664 290.127C239.157 291.114 239.651 292.101 240.159 293.117C240.611 292.974 241.064 292.83 241.53 292.681C244.074 292.296 245.929 293.684 248.095 294.868C249.923 295.752 251.582 296.081 253.587 296.299C254.959 296.71 255.318 297.441 256.108 298.6C257.152 298.997 257.152 298.997 258.102 299.098C258.215 299.623 258.328 300.147 258.445 300.687C259.032 302.697 259.897 303.799 261.591 305.079C262.115 305.141 262.64 305.203 263.18 305.266C265.917 305.715 268.123 307.084 270.064 309.067C270.457 310.681 270.457 310.681 270.563 312.057C271.385 312.222 272.207 312.386 273.055 312.556C273.394 313.55 273.725 314.547 274.051 315.546C274.175 315.906 274.298 316.266 274.425 316.636C274.55 317.54 274.55 317.54 273.553 319.035C274.211 318.871 274.869 318.706 275.547 318.537C276.935 320.021 277.628 321.206 278.101 323.147C278.901 325.879 280.735 327.193 282.933 328.885C284.264 330.251 284.431 331.109 284.518 332.991C284.354 333.32 284.189 333.649 284.02 333.988C284.513 334.152 285.007 334.316 285.515 334.486C286.009 335.393 286.009 335.393 286.449 336.542C287.1 338.145 287.754 339.344 288.879 340.654C290.551 342.838 290.294 345.316 290.001 347.943C289.836 348.437 289.672 348.93 289.502 349.438C289.996 349.274 290.489 349.109 290.998 348.94C291.558 350.809 291.558 350.809 290.998 351.931C291.378 352.064 291.758 352.198 292.15 352.335C293.464 352.916 294.164 353.256 294.985 354.423C295.078 355.762 295.078 355.762 294.985 356.915C294.327 356.421 293.669 355.928 292.991 355.419C293.219 356.903 293.632 357.617 294.518 358.877C295.518 360.459 295.778 361.08 295.483 362.896C295.154 363.389 294.825 363.883 294.486 364.391C295.309 364.391 296.131 364.391 296.979 364.391C296.814 364.72 296.65 365.049 296.48 365.388C295.987 365.388 295.493 365.388 294.985 365.388C295.093 365.751 295.201 366.115 295.312 366.49C296.174 369.723 296.599 372.661 296.558 375.995C296.554 376.573 296.554 376.573 296.551 377.164C296.503 381.573 296.25 385.97 295.982 390.371C295.933 391.194 295.885 392.018 295.838 392.841C295.722 394.822 295.604 396.802 295.483 398.782C294.99 398.288 294.496 397.795 293.988 397.286C293.478 398.816 293.423 399.89 293.427 401.492C293.426 401.964 293.425 402.436 293.423 402.923C293.439 404.24 293.439 404.24 293.799 405.37C293.862 405.663 293.924 405.956 293.988 406.258C293.085 407.286 293.085 407.286 291.994 408.251C291.665 408.745 291.336 409.238 290.998 409.747C291.177 409.97 291.357 410.193 291.543 410.422C293.455 412.914 293.455 412.914 293.645 414.7C293.568 415.209 293.568 415.209 293.49 415.728C292.338 415.728 291.187 415.728 290.001 415.728C290.006 416.095 290.011 416.462 290.017 416.84C290.037 418.504 290.05 420.169 290.063 421.833C290.071 422.411 290.08 422.988 290.088 423.584C290.092 424.139 290.095 424.695 290.098 425.268C290.103 425.779 290.108 426.291 290.114 426.818C289.998 428.223 289.673 428.964 289.004 430.182C288.811 431.341 288.64 432.504 288.505 433.671C287.683 434 286.861 434.329 286.013 434.667C286.096 435.068 286.178 435.469 286.263 435.882C286.457 437.265 286.59 438.572 286.636 439.963C286.649 440.329 286.662 440.696 286.675 441.073C286.446 442.577 286.151 443.095 285.017 444.137C283.464 444.449 281.923 444.416 280.344 444.402C279.885 444.404 279.426 444.406 278.953 444.408C277.983 444.409 277.012 444.406 276.042 444.397C274.555 444.387 273.07 444.397 271.583 444.41C270.64 444.409 269.698 444.406 268.756 444.402C268.31 444.406 267.865 444.41 267.406 444.414C266.262 444.397 265.204 444.368 264.083 444.137C263.137 443.134 263.137 443.134 262.588 442.144C261.785 442.06 260.982 441.978 260.178 441.904C256.569 441.038 253.694 438.551 251.8 435.474C250.645 434.095 249.055 433.557 247.445 432.824C243.046 430.638 238.49 426.786 236.67 422.207C235.849 421.852 235.017 421.522 234.178 421.21C232.788 419.949 231.731 418.786 230.689 417.223C230.689 416.73 230.689 416.236 230.689 415.728C230.36 415.728 230.031 415.728 229.692 415.728C229.528 416.057 229.363 416.386 229.194 416.725C219.983 403.458 212.869 389.174 207.762 373.861C207.6 373.383 207.6 373.383 207.434 372.895C201.115 354.236 199.136 334.224 201.688 314.705C201.77 314.074 201.852 313.444 201.937 312.794C202.658 307.864 202.658 307.864 204.273 305.578C205.284 305.023 205.284 305.023 206.267 304.581C206.943 303.845 206.943 303.845 207.544 302.992C209.494 300.606 212.045 299.052 214.74 297.603C215.069 297.603 215.398 297.603 215.737 297.603C215.597 296.865 215.45 296.128 215.301 295.391C215.22 294.981 215.139 294.57 215.055 294.147C214.899 293.638 214.899 293.638 214.74 293.117C214.411 292.953 214.082 292.789 213.743 292.619C213.579 292.948 213.414 293.277 213.245 293.616C212.466 293.055 212.466 293.055 211.749 292.121C211.905 290.532 211.905 290.532 212.248 289.13C212.412 289.459 212.577 289.788 212.746 290.127C213.055 289.88 213.363 289.634 213.681 289.379C214.74 288.632 214.74 288.632 215.737 288.632C215.737 288.303 215.737 287.974 215.737 287.635C216.066 287.635 216.395 287.635 216.734 287.635C216.569 288.457 216.405 289.28 216.235 290.127C218.22 289.08 219.4 287.949 220.721 286.14Z" fill="#4564AB"/>
<path d="M176.454 274.707C182.292 276.142 186.477 280.205 191.516 283.141C195.643 286.348 195.53 321.905 191.868 324.749C188.646 325.565 187.046 325.713 185.831 329.003C186.982 329.167 188.133 329.332 189.32 329.501C187.455 342.69 182.503 353.869 174.118 364.351C172.942 365.981 172.352 367.978 170.878 369.374C169.159 369.405 167.59 368.936 165.894 369.374C163.035 372.116 159.806 376.215 159.212 380.205C157.824 385.512 144.083 390.395 139.478 390.308C137.382 396.772 129.347 394.449 127.516 401.771C125.871 401.771 124.227 401.771 122.532 401.771C121.702 403.727 121.1 405.704 120.538 407.752C115.871 408.601 111.626 413.773 107.081 410.743C105.718 413.059 104.616 415.727 101.599 415.727C100.604 414.443 100.139 413.745 98.608 413.235C96.4273 419.123 77.3858 427.993 70.7201 427.596C67.6891 427.782 66.1484 430.679 63.2205 430.679C62.9738 428.952 62.9738 428.952 62.7221 427.191C61.5395 430.147 60.3979 429.83 57.2395 430.181C55.1579 440.589 17.5823 443.633 8.39481 441.645C7.2143 437.02 4.71254 432.468 4.40749 427.689C5.94897 426.147 9.30794 426.963 11.3853 426.692C12.6316 424.2 7.83607 417.741 7.89639 413.733C6.58058 414.062 5.26476 414.391 3.90907 414.73C7.90626 409.067 1.81215 406.797 1.41699 401.273C2.73471 399.626 3.91241 397.781 5.40432 396.289C2.20923 393.293 2.90949 380.693 8.89323 380.838C9.78769 381.732 10.1182 381.835 11.3853 381.835C11.5163 374.429 14.3026 367.654 15.3726 360.403C21.8837 359.248 32.3756 344.218 31.8203 337.974C36.9326 336.467 46.0368 329.058 46.7728 323.52C52.5249 323.614 51.7511 321.831 55.2459 318.038C61.2435 316.536 78.0491 309.139 79.6682 305.577C81.6032 305.577 82.9329 306.377 85.6492 306.076C85.6492 300.549 104.079 289.368 110.517 290.346C112.239 290.803 113.564 291.655 115.056 292.618C119.943 287.003 127.225 285.422 133.996 283.148C135.05 286.313 142.469 282.104 142.469 279.66C147.233 278.024 152.707 278.656 157.688 278.796C164.738 279.024 170.24 274.585 176.454 274.707Z" fill="#5AC3EF"/>
<path d="M220.721 286.14C223.022 286.772 224.782 287.747 226.737 289.07C229.896 290.905 235.061 290.16 238.664 290.127C239.157 291.114 239.651 292.101 240.159 293.117C246.728 291.027 252.522 298.502 258.102 299.098C259.12 303.817 269.771 311.899 273.055 312.556C273.882 314.983 275.066 316.766 273.553 319.035C276.459 318.308 285.715 330.597 284.02 333.988C288.738 335.56 290.883 345.295 289.502 349.438C291.458 348.787 291.496 349.916 291.496 351.931C294.134 352.885 294.88 354.144 294.985 356.915C294.327 356.421 293.669 355.928 292.991 355.419C293.671 359.836 298.039 364.624 294.985 365.388C298.155 376.069 296.149 387.837 295.483 398.782C294.99 398.288 294.496 397.795 293.988 397.286C293.009 400.222 293.364 403.323 293.988 406.258C292.947 407.442 291.875 408.431 290.998 409.747C292.514 411.626 293.868 413.23 293.49 415.728C292.338 415.728 291.187 415.728 290.001 415.728C290.094 422.276 289.233 427.363 288.505 433.671C287.683 434 286.861 434.329 286.013 434.667C286.642 437.733 287.592 441.77 285.017 444.137C280.373 445.069 265.016 446.521 262.588 442.144C255.626 441.418 253.284 435.484 247.445 432.824C243.087 430.658 239.353 426.865 236.359 423.079C234.282 420.446 230.689 419.552 230.689 415.728C229.699 415.728 229.637 415.838 229.194 416.725C219.806 403.204 212.727 388.453 207.434 372.895C201.115 354.236 199.136 334.224 201.688 314.705C202.112 311.449 202.331 308.327 204.273 305.578C208.152 303.448 210.997 297.603 215.737 297.603C214.751 292.411 211.16 293.582 212.248 289.13C213.116 290.866 214.811 288.947 216.235 288.133C216.235 288.791 216.235 289.449 216.235 290.127C218.22 289.08 219.4 287.949 220.721 286.14Z" fill="#4564AB"/>
<path d="M318.908 252.247C320.753 252.774 321.393 253.234 322.615 254.77C323.766 256.366 323.766 256.366 325.543 256.671C325.985 256.691 326.427 256.712 326.883 256.733C327.191 256.008 327.191 256.008 327.506 255.269C328.378 253.742 328.378 253.742 329.468 253.306C329.767 253.286 330.065 253.265 330.372 253.244C330.372 254.231 330.372 255.218 330.372 256.234C331.155 255.794 331.155 255.794 331.955 255.345C332.642 254.966 333.329 254.588 334.016 254.21C334.361 254.015 334.705 253.821 335.059 253.621C335.969 253.124 336.907 252.682 337.848 252.247C338.341 252.412 338.835 252.576 339.343 252.745C339.014 253.732 338.685 254.719 338.346 255.736C338.675 255.736 339.004 255.736 339.343 255.736C339.343 255.078 339.343 254.42 339.343 253.742C340.166 253.953 340.985 254.173 341.804 254.396C342.261 254.518 342.718 254.639 343.188 254.764C343.564 254.921 343.94 255.077 344.327 255.238C344.492 255.731 344.656 256.224 344.826 256.733C348.773 256.733 352.721 256.733 356.788 256.733C356.788 257.391 356.788 258.049 356.788 258.726C357.155 258.721 357.522 258.716 357.9 258.711C359.564 258.69 361.229 258.677 362.893 258.664C363.76 258.652 363.76 258.652 364.644 258.639C365.199 258.636 365.755 258.632 366.328 258.629C367.095 258.621 367.095 258.621 367.878 258.613C369.258 258.727 370.068 259.013 371.242 259.723C371.242 260.052 371.242 260.381 371.242 260.72C371.735 260.556 372.229 260.391 372.737 260.222C374.379 260.187 376.015 260.223 377.657 260.253C379.149 260.301 379.149 260.301 380.231 259.879C381.21 259.723 381.21 259.723 382.608 260.426C384.907 261.57 387.033 261.425 389.563 261.466C391.453 261.76 392.045 262.192 393.172 263.711C393.297 265.081 393.297 265.081 393.172 266.203C393.666 266.203 394.159 266.203 394.667 266.203C394.667 265.874 394.667 265.545 394.667 265.206C395.161 265.37 395.654 265.535 396.163 265.704C396.327 266.527 396.492 267.349 396.661 268.196C396.826 267.538 396.99 266.881 397.159 266.203C398.25 266.016 398.25 266.016 399.652 266.203C400.644 267.12 401.341 268.093 402.144 269.193C402.802 269.029 403.459 268.864 404.137 268.695C404.639 269.336 405.136 269.981 405.633 270.626C406.049 271.164 406.049 271.164 406.474 271.713C407.128 272.682 407.128 272.682 407.128 273.679C407.416 273.514 407.703 273.35 408 273.181C409.121 272.682 409.121 272.682 411.115 272.682C410.786 273.504 410.457 274.327 410.118 275.174C410.54 275.128 410.961 275.082 411.395 275.034C415.976 274.743 415.976 274.743 417.776 275.992C418.427 276.697 419.064 277.417 419.686 278.149C422.862 281.724 429.182 283.031 433.731 283.336C435.604 283.66 435.981 284.07 437.118 285.653C438.642 288.413 439.753 290.881 439.525 294.114C440.25 293.975 440.25 293.975 440.989 293.834C441.744 293.726 441.744 293.726 442.515 293.616C443.288 294.388 443.122 295.161 443.171 296.234C443.192 296.66 443.213 297.085 443.235 297.524C443.264 298.195 443.264 298.195 443.294 298.88C443.316 299.329 443.337 299.779 443.359 300.242C443.412 301.356 443.463 302.47 443.512 303.584C443.183 303.584 442.854 303.584 442.515 303.584C442.51 303.938 442.505 304.292 442.5 304.657C441.758 306.836 440.159 307.629 438.279 308.848C437.916 309.09 437.554 309.332 437.18 309.581C434.739 311.182 432.309 312.559 429.556 313.552C427.751 314.205 426.381 314.98 424.853 316.138C422.807 317.596 420.726 318.849 418.498 320C417.936 320.293 417.374 320.585 416.794 320.886C414.95 321.584 413.568 321.649 411.614 321.527C411.614 322.185 411.614 322.843 411.614 323.52C410.836 323.703 410.057 323.878 409.277 324.05C408.844 324.148 408.41 324.247 407.963 324.348C406.55 324.527 405.509 324.372 404.137 324.019C404.137 323.69 404.137 323.361 404.137 323.022C403.664 323.382 403.192 323.742 402.704 324.112C400.884 325.417 398.982 326.379 396.965 327.342C395.626 328.026 394.4 328.807 393.141 329.626C390.895 330.995 388.853 331.755 386.194 331.495C384.917 330.779 384.917 330.779 384.201 330C384.036 330.493 383.872 330.987 383.702 331.495C383.271 331.218 383.271 331.218 382.83 330.934C382.46 330.791 382.09 330.647 381.709 330.498C381.04 330.822 380.375 331.155 379.715 331.495C378.407 331.402 378.407 331.402 377.223 330.997C376.894 330.503 376.565 330.01 376.226 329.501C375.96 329.681 375.694 329.861 375.42 330.047C372.784 331.689 371.041 332.16 367.959 331.984C366.345 331.997 365.156 332.505 363.686 333.123C355.949 336.211 344.902 333.275 337.431 330.465C334.903 329.719 332.313 329.626 329.692 329.44C329.282 329.404 328.871 329.369 328.448 329.332C328.076 329.305 327.703 329.277 327.319 329.249C326.384 329.003 326.384 329.003 325.388 327.508C325.325 326.168 325.325 326.168 325.388 325.016C324.367 325.297 324.367 325.297 323.394 326.013C323.065 327.53 323.065 327.53 322.896 329.003C316.873 326.919 310.978 324.789 306.946 319.533C306.604 318.431 306.604 318.431 306.448 317.54C306.16 317.704 305.872 317.868 305.576 318.038C304.454 318.536 304.454 318.536 302.461 318.536C302.26 318.074 302.26 318.074 302.056 317.602C301.486 316.393 301.486 316.393 299.968 315.546C298.961 315.519 298.961 315.519 297.881 315.639C293.319 315.705 290.167 312.003 286.926 309.17C285.628 308.158 284.574 307.581 283.022 307.073C283.063 306.538 283.105 306.004 283.147 305.453C283.001 303.264 282.585 303 281.029 301.59C281.029 300.932 281.029 300.274 281.029 299.597C280.74 299.661 280.45 299.726 280.153 299.793C278.912 300.012 277.803 300.149 276.543 300.095C274.954 298.942 274.954 298.942 273.552 297.603C271.951 296.943 271.951 296.943 270.562 296.606C270.891 295.948 271.22 295.29 271.559 294.612C271.117 294.592 270.675 294.571 270.219 294.55C268.306 294.045 267.951 293.385 266.824 291.838C265.408 290.484 263.473 290.365 261.59 290.127C261.642 289.674 261.693 289.222 261.746 288.756C261.756 287.058 261.756 287.058 260.438 285.984C258.535 284.789 256.972 284.545 254.768 284.364C254.025 284.301 254.025 284.301 253.267 284.237C252.889 284.207 252.51 284.177 252.121 284.146C250.803 281.489 250.383 279.434 250.438 276.483C250.441 276.112 250.444 275.741 250.447 275.359C250.513 272.562 250.994 270.279 252.121 267.698C257.721 268.976 257.721 268.976 259.628 270.065C262.006 271.078 264.065 270.589 266.575 270.19C266.982 270.129 267.389 270.067 267.808 270.004C269.206 269.789 270.601 269.556 271.995 269.318C272.451 269.246 272.908 269.174 273.378 269.1C276.228 268.58 277.594 267.962 279.533 265.704C282.13 263.72 284.803 262.842 287.868 261.861C289.664 261.263 291.013 260.709 292.597 259.63C294.15 258.621 294.74 258.55 296.542 258.726C300.447 258.875 303.991 257.672 307.289 255.611C310.374 253.92 314.512 254.6 317.911 254.739C318.24 253.917 318.569 253.094 318.908 252.247Z" fill="#E20520"/>
<path d="M27.741 187.329C30.1493 188.768 32.838 189.49 35.4995 190.321C37.1909 190.903 38.7175 191.599 40.2948 192.437C39.8014 191.204 39.8014 191.204 39.298 189.945C40.5106 189.339 41.31 189.38 42.6623 189.385C43.0812 189.383 43.5001 189.382 43.9317 189.381C45.279 189.447 45.279 189.447 46.6807 189.69C47.9142 189.888 49.0305 189.994 50.2709 190.033C50.6166 190.045 50.9622 190.057 51.3184 190.069C52.0347 190.091 52.7512 190.106 53.4678 190.116C54.5074 190.158 54.5074 190.158 56.2441 190.444C56.9839 191.462 56.9839 191.462 57.2409 192.437C57.5185 192.052 57.5185 192.052 57.8016 191.659C58.7362 190.942 58.7362 190.942 60.138 190.973C61.7267 191.441 61.7267 191.441 63.2531 192.469C64.7862 193.48 65.4245 193.644 67.2092 193.434C67.2092 193.105 67.2092 192.776 67.2092 192.437C68.1438 192.531 68.1438 192.531 69.2029 192.936C69.8259 194.213 69.8259 194.213 70.1997 195.428C70.7173 195.205 70.7173 195.205 71.2452 194.978C72.7853 194.396 74.2944 194.014 75.9004 193.652C76.4445 193.528 76.9887 193.404 77.5494 193.277C78.0846 193.164 78.6198 193.052 79.1712 192.936C79.6807 192.798 80.1902 192.66 80.7151 192.517C82.6793 192.409 83.1766 193.187 84.6538 194.431C86.5344 195.001 88.4182 195.402 90.3388 195.815C92.3556 196.501 93.2874 197.277 94.6221 198.917C94.6221 199.246 94.6221 199.575 94.6221 199.914C95.0847 199.544 95.0847 199.544 95.5566 199.166C97.7912 198.093 99.6615 198.3 102.098 198.418C102.937 198.407 102.937 198.407 103.792 198.395C105.477 198.418 106.947 198.485 108.578 198.917C109.733 200.115 110.162 201.311 110.571 202.904C110.736 203.398 110.9 203.891 111.07 204.399C111.625 203.798 111.625 203.798 112.191 203.184C113.904 201.588 113.904 201.588 115.556 201.409C116.777 201.725 116.777 201.725 118.139 202.254C118.89 202.541 118.89 202.541 119.655 202.833C120.184 203.042 120.712 203.25 121.256 203.465C121.797 203.674 122.338 203.884 122.895 204.099C123.963 204.513 125.031 204.928 126.097 205.346C127.233 205.785 128.37 206.207 129.519 206.609C136.083 208.945 142.968 212.694 146.239 219.134C146.594 219.982 146.594 219.982 146.956 220.847C147.511 220.6 147.511 220.6 148.077 220.349C149.448 219.85 149.448 219.85 151.441 219.85C151.642 220.637 151.642 220.637 151.846 221.439C152.559 223.823 152.559 223.823 153.934 225.831C155.096 225.853 156.26 225.851 157.422 225.831C158.268 226.477 159.097 227.144 159.915 227.825C160.679 228.124 161.456 228.394 162.239 228.641C162.644 228.77 163.048 228.899 163.465 229.031C163.774 229.127 164.082 229.222 164.4 229.32C164.456 230.241 164.456 230.241 164.513 231.181C164.991 237.643 166.056 242.978 171.024 247.561C171.871 248.305 171.871 248.305 172.963 248.819C174.456 250.36 174.123 252.179 174.119 254.241C174.207 258.11 174.793 261.145 176.362 264.708C176.543 265.368 176.714 266.032 176.861 266.701C171.256 271.647 165.258 272.087 158.09 271.765C155.981 271.621 153.916 271.262 151.833 270.914C149.372 270.62 146.94 270.574 144.464 270.564C144.017 270.56 143.569 270.555 143.109 270.55C140.676 270.561 138.793 270.833 136.489 271.685C134.958 271.587 133.516 271.414 132.003 271.187C131.047 271.062 130.091 270.938 129.134 270.818C128.156 270.694 127.177 270.567 126.199 270.439C119.876 269.69 113.567 269.543 107.207 269.411C106.226 269.39 105.245 269.368 104.263 269.346C101.88 269.293 99.4973 269.243 97.1142 269.193C96.6207 267.96 96.6207 267.96 96.1173 266.701C95.6239 266.866 95.1305 267.03 94.6221 267.2C91.5356 267.594 89.4089 266.567 86.6299 265.253C85.0391 264.666 83.843 264.608 82.1617 264.708C81.6683 263.392 81.1748 262.076 80.6665 260.72C80.0599 261.039 79.4534 261.358 78.8285 261.686C75.8472 263.252 73.0895 263.279 69.7948 263.244C69.2054 263.24 69.2054 263.24 68.6042 263.237C67.6408 263.231 66.6774 263.222 65.714 263.212C65.5495 261.897 65.385 260.581 65.2156 259.225C64.7221 259.554 64.2287 259.883 63.7203 260.222C60.9577 260.599 59.4972 259.672 57.2409 258.228C57.2409 258.557 57.2409 258.886 57.2409 259.225C56.3064 258.976 56.3064 258.976 55.2473 258.228C54.7564 256.907 54.52 255.634 54.2504 254.241C53.4914 255.705 52.8544 257.19 52.2568 258.727C46.896 257.2 43.1237 254.815 39.7964 250.254C39.185 248.867 39.185 248.867 38.7996 247.761C38.6351 247.761 38.4706 247.761 38.3011 247.761C38.1367 248.748 37.9722 249.735 37.8027 250.752C35.6134 250.068 34.0941 248.87 32.3513 247.432C31.178 246.67 30.2067 246.46 28.8312 246.266C28.8068 245.869 28.7824 245.472 28.7573 245.063C28.4822 241.092 28.4822 241.092 27.336 237.295C27.007 237.295 26.6781 237.295 26.3392 237.295C26.3392 238.446 26.3392 239.597 26.3392 240.784C24.5555 239.365 22.933 237.915 21.427 236.204C21.1741 235.919 20.9211 235.633 20.6604 235.338C20.1572 234.764 19.6601 234.184 19.1701 233.598C17.2853 231.453 15.6127 230.652 12.8819 229.819C12.9128 229.346 12.9436 228.873 12.9754 228.386C12.9446 227.872 12.9137 227.358 12.8819 226.828C12.1418 226.335 12.1418 226.335 11.3867 225.831C11.3867 225.173 11.3867 224.515 11.3867 223.838C11.0577 223.509 10.7288 223.18 10.3899 222.841C10.5836 221.339 11.0201 220.649 11.8851 219.352C9.74691 219.023 7.60871 218.694 5.40571 218.355C4.99998 216.976 4.99998 216.976 4.58605 215.569C4.22591 214.348 3.86573 213.127 3.50551 211.907C3.32786 211.302 3.15021 210.698 2.96718 210.076C2.7921 209.483 2.61702 208.89 2.43664 208.28C2.2665 207.699 2.09636 207.119 1.92106 206.521C1.48233 205.104 0.982002 203.736 0.45271 202.351C-0.147285 200.584 -0.147285 200.584 0.431294 199.172C0.726196 198.872 1.0211 198.572 1.32494 198.263C2.8388 196.713 2.8388 196.713 2.91364 194.431C2.58468 194.267 2.25573 194.102 1.91681 193.933C2.64078 192.024 3.62585 191.38 5.40571 190.444C5.26694 189.596 5.26694 189.596 5.12536 188.73C5.0534 188.144 4.98144 187.559 4.9073 186.955C5.40571 186.456 5.40571 186.456 6.87894 186.408C7.52548 186.413 8.17202 186.419 8.83816 186.425C9.18438 186.427 9.53059 186.429 9.88729 186.431C11.3724 186.439 12.8574 186.453 14.3425 186.467C15.4255 186.476 16.5085 186.482 17.5916 186.488C18.2409 186.493 18.8903 186.499 19.5593 186.505C26.1311 186.327 26.1311 186.327 27.741 187.329Z" fill="#8BB11E"/>
<path d="M318.908 252.247C322.384 253.24 323.067 256.555 326.883 256.733C327.645 254.94 328.25 253.39 330.372 253.244C330.372 254.231 330.372 255.218 330.372 256.234C332.888 254.82 336.537 251.81 339.343 252.745C339.014 253.732 338.685 254.719 338.346 255.736C339.722 255.736 339.343 255.03 339.343 253.742C341.667 254.337 344.031 254.348 344.826 256.733C348.773 256.733 352.721 256.733 356.788 256.733C356.788 257.391 356.788 258.049 356.788 258.726C358.828 258.697 371.242 257.31 371.242 260.72C376.355 259.016 390.022 259.466 393.172 263.711C393.297 265.081 393.297 265.081 393.172 266.203C394.347 266.203 394.667 266.419 394.667 265.206C396.4 265.783 396.302 266.405 396.661 268.196C396.825 267.538 396.99 266.881 397.159 266.203C399.753 265.758 400.697 267.209 402.143 269.193C402.801 269.029 403.459 268.864 404.137 268.695C405.228 270.091 407.128 271.815 407.128 273.679C408.466 272.914 409.544 272.682 411.115 272.682C410.786 273.504 410.457 274.327 410.118 275.174C412.794 274.88 415.46 274.385 417.775 275.992C422.167 280.744 427.134 282.893 433.73 283.336C438.027 284.08 439.788 290.383 439.525 294.114C440.519 293.924 441.513 293.759 442.515 293.616C444.021 295.121 443.425 301.602 443.512 303.584C442.058 303.584 440.196 307.604 438.279 308.848C434.017 311.691 428.898 313.074 424.852 316.138C420.898 318.956 416.632 321.839 411.613 321.527C411.613 322.185 411.613 322.843 411.613 323.52C406.145 324.805 384.808 328.177 383.702 331.495C382.066 330.444 381.471 330.59 379.715 331.495C377.89 331.365 377.213 330.982 376.226 329.501C372.202 332.223 367.944 331.335 363.686 333.123C355.949 336.211 344.902 333.275 337.431 330.465C334.178 329.505 330.69 329.498 327.319 329.249C325.313 328.722 325.294 326.746 325.387 325.016C323.244 325.606 323.129 326.972 322.895 329.003C317.433 327.113 307.614 324.219 306.448 317.54C305.109 318.304 304.031 318.536 302.46 318.536C301.493 316.304 300.39 315.36 297.881 315.639C291.531 315.731 288.609 308.901 283.022 307.073C283.269 303.863 281.028 302.46 281.028 299.597C279.554 299.928 278.06 300.16 276.543 300.095C274.506 298.617 273.065 297.214 270.562 296.606C270.891 295.948 271.22 295.29 271.559 294.612C269.329 294.509 268.148 293.655 266.824 291.838C265.407 290.484 263.473 290.365 261.59 290.127C262.223 284.557 256.491 284.494 252.12 284.146C249.668 279.201 249.938 272.698 252.12 267.698C257.637 268.957 257.637 268.957 259.752 270.034C272.306 276.165 285.204 257.835 296.479 258.758C300.406 258.868 303.97 257.685 307.289 255.611C310.374 253.92 314.511 254.6 317.911 254.739C318.24 253.917 318.569 253.094 318.908 252.247Z" fill="#E20520"/>
<path d="M27.7413 187.329C31.6357 189.657 36.2791 190.303 40.2951 192.437C39.8017 191.204 39.8017 191.204 39.2983 189.945C41.3587 188.915 44.47 189.306 46.681 189.69C49.8571 190.2 53.0747 189.921 56.2444 190.444C56.9842 191.462 56.9842 191.462 57.2412 192.437C59.9587 188.663 63.759 193.84 67.2095 193.434C67.2095 193.105 67.2095 192.776 67.2095 192.437C68.1441 192.531 68.1441 192.531 69.2032 192.936C69.8262 194.213 69.8262 194.213 70.2 195.428C73.5102 194.021 79.0335 191.663 82.6604 192.936C85.6093 195.243 94.6224 195.251 94.6224 199.914C96.8084 198.165 99.4057 198.288 102.099 198.418C104.271 198.388 106.46 198.356 108.578 198.917C110.037 200.431 110.428 202.472 111.07 204.399C112.395 202.964 113.517 201.644 115.556 201.409C127.717 204.337 141.561 209.248 146.956 220.847C148.47 220.174 149.759 219.85 151.442 219.85C152 222.039 152.644 223.946 153.934 225.831C155.097 225.853 156.26 225.851 157.423 225.831C158.268 226.477 159.098 227.144 159.915 227.825C161.383 228.399 162.895 228.855 164.401 229.32C165.029 239.675 174.133 245.634 174.12 254.241C174.221 258.731 175.929 262.441 176.861 266.701C168.841 273.777 141.398 273.07 129.511 270.689C118.964 268.733 107.847 269.421 97.1145 269.193C96.621 267.96 96.621 267.96 96.1176 266.701C91.0825 268.38 87.1577 264.411 82.162 264.708C81.6686 263.392 81.1751 262.076 80.6668 260.72C75.8326 263.26 71.0044 263.265 65.7143 263.212C65.5498 261.897 65.3853 260.581 65.2159 259.225C64.7224 259.554 64.229 259.883 63.7206 260.222C60.958 260.599 59.4975 259.672 57.2412 258.228C57.2412 258.557 57.2412 258.886 57.2412 259.225C56.3067 258.976 56.3067 258.976 55.2476 258.228C54.7567 256.907 54.5203 255.634 54.2507 254.241C53.4916 255.705 52.8547 257.19 52.2571 258.727C46.5407 257.099 40.8303 253.586 38.7999 247.761C37.8034 247.761 37.9464 249.892 37.803 250.752C34.6371 249.763 32.6132 246.859 29.33 246.266C28.8636 243.2 28.2591 240.261 27.3363 237.295C27.0073 237.295 26.6784 237.295 26.3395 237.295C26.3395 238.446 26.3395 239.597 26.3395 240.784C21.7649 237.145 18.6685 231.585 12.8822 229.819C12.9482 228.807 12.943 227.84 12.8822 226.828C12.1421 226.335 12.1421 226.335 11.387 225.831C11.387 224.375 11.412 223.863 10.3902 222.841C10.5839 221.339 11.0205 220.649 11.8854 219.352C9.74721 219.023 7.60901 218.694 5.40602 218.355C3.83456 213.014 2.4428 207.556 0.453011 202.351C-0.745443 198.821 2.80149 197.86 2.91394 194.431C2.58498 194.267 2.25603 194.102 1.91711 193.933C2.64108 192.024 3.62615 191.38 5.40602 190.444C5.216 189.282 5.05103 188.123 4.9076 186.955C5.40602 186.456 5.40602 186.456 6.87924 186.408C11.106 186.446 15.3329 186.467 19.5596 186.505C26.1314 186.327 26.1314 186.327 27.7413 187.329Z" fill="#8BB11E"/>
<path d="M615.844 234L605.344 200.75H547.094L536.594 234H506.844L563.594 64H590.094L647.094 234H615.844ZM563.344 148.75L555.594 173.25H596.594L588.844 148.75L576.344 105.75L563.344 148.75ZM774.549 246.75C774.549 260.25 769.215 270.75 758.549 278.25C748.049 285.917 733.382 289.75 714.549 289.75C705.715 289.75 696.382 288.75 686.549 286.75C676.715 284.75 667.632 281.417 659.299 276.75L667.549 254C675.549 258 683.465 260.833 691.299 262.5C699.132 264.333 706.799 265.25 714.299 265.25C724.799 265.25 732.799 263.833 738.299 261C743.799 258.167 746.549 254.417 746.549 249.75C746.549 242.583 742.299 239 733.799 239H703.799C695.632 239 689.049 237.667 684.049 235C679.049 232.333 675.382 228.917 673.049 224.75C670.715 220.417 669.549 215.917 669.549 211.25C669.549 206.417 670.549 201.917 672.549 197.75C674.715 193.417 677.632 189.417 681.299 185.75C675.299 182.083 670.465 177.167 666.799 171C663.299 164.833 661.549 157.417 661.549 148.75C661.549 138.917 663.632 130.75 667.799 124.25C671.965 117.75 677.632 112.917 684.799 109.75C692.132 106.417 700.215 104.75 709.049 104.75H713.299C716.632 104.75 719.882 105 723.049 105.5C726.215 105.833 729.215 106.417 732.049 107.25H777.299V131.75L752.299 127.75C754.799 130.417 756.716 133.75 758.049 137.75C759.549 141.583 760.299 146.333 760.299 152C760.299 160.5 758.132 167.833 753.799 174C749.632 180 743.965 184.667 736.799 188C729.799 191.167 721.965 192.75 713.299 192.75H709.049C705.715 192.75 702.549 192.5 699.549 192C697.715 194 696.382 196.083 695.549 198.25C694.715 200.25 694.299 202.167 694.299 204C694.299 209.833 698.049 212.75 705.549 212.75H736.049C747.549 212.75 756.799 215.75 763.799 221.75C770.965 227.583 774.549 235.917 774.549 246.75ZM713.299 169.25C718.465 169.25 722.965 167.5 726.799 164C730.799 160.5 732.799 155.417 732.799 148.75C732.799 142.083 730.799 137 726.799 133.5C722.965 130 718.465 128.25 713.299 128.25H709.049C703.715 128.25 699.049 130 695.049 133.5C691.215 137 689.299 142.083 689.299 148.75C689.299 155.417 691.215 160.5 695.049 164C699.049 167.5 703.715 169.25 709.049 169.25H713.299ZM873.611 133.5C865.778 133.5 858.278 134.75 851.111 137.25C844.111 139.583 837.361 143.417 830.861 148.75V234H802.111V107.25H829.361V126.75C837.861 118.75 845.445 113.083 852.111 109.75C858.778 106.417 865.945 104.75 873.611 104.75V133.5ZM928.291 83.25H898.041V53.5H928.291V83.25ZM927.541 234H898.791V107.25H927.541V234ZM989.15 163.25V178C989.15 188.667 991.067 196.667 994.9 202C998.734 207.333 1004.9 210 1013.4 210C1017.57 210 1022.23 209.5 1027.4 208.5C1032.73 207.333 1038.48 205.583 1044.65 203.25L1052.9 227.5C1045.4 230.5 1038.32 232.75 1031.65 234.25C1024.98 235.75 1018.4 236.5 1011.9 236.5C995.234 236.5 982.484 231.167 973.65 220.5C964.817 209.833 960.4 195.667 960.4 178V163.25C960.4 145.417 964.817 131.25 973.65 120.75C982.484 110.083 995.234 104.75 1011.9 104.75C1018.23 104.75 1024.65 105.5 1031.15 107C1037.65 108.5 1044.48 110.667 1051.65 113.5L1043.4 138.25C1031.4 133.583 1021.4 131.25 1013.4 131.25C1004.9 131.25 998.734 133.917 994.9 139.25C991.067 144.417 989.15 152.417 989.15 163.25ZM1154.71 234V217.25C1147.04 223.917 1139.88 228.833 1133.21 232C1126.54 235 1119.79 236.5 1112.96 236.5C1101.63 236.5 1092.88 232.667 1086.71 225C1080.54 217.167 1077.46 206.25 1077.46 192.25V107.25H1106.21V188.75C1106.21 202.75 1111.38 209.75 1121.71 209.75C1125.88 209.75 1130.38 208.75 1135.21 206.75C1140.21 204.75 1146.21 200.917 1153.21 195.25V107.25H1181.96V234H1154.71ZM1220.79 198.25V49H1249.54V198.25C1249.54 200.75 1250.13 203.167 1251.29 205.5C1252.63 207.667 1255.13 208.75 1258.79 208.75H1262.79V235.25H1255.79C1246.29 235.25 1239.04 233.417 1234.04 229.75C1229.04 226.083 1225.54 221.417 1223.54 215.75C1221.71 210.083 1220.79 204.25 1220.79 198.25ZM1366.89 229.75C1362.55 231.75 1357.55 233.333 1351.89 234.5C1346.22 235.833 1340.47 236.5 1334.64 236.5C1324.97 236.5 1317.22 234.5 1311.39 230.5C1305.55 226.5 1301.3 220.917 1298.64 213.75C1296.14 206.583 1294.89 198.417 1294.89 189.25V132.25H1274.39V107.25H1294.89V74.25H1323.64V107.25H1363.14V132.25H1323.64V189.25C1323.64 196.917 1325.05 202.25 1327.89 205.25C1330.89 208.083 1335.14 209.5 1340.64 209.5C1343.3 209.5 1346.14 209.25 1349.14 208.75C1352.3 208.083 1355.8 207 1359.64 205.5L1366.89 229.75ZM1465.5 234V217.25C1457.84 223.917 1450.67 228.833 1444 232C1437.34 235 1430.59 236.5 1423.75 236.5C1412.42 236.5 1403.67 232.667 1397.5 225C1391.34 217.167 1388.25 206.25 1388.25 192.25V107.25H1417V188.75C1417 202.75 1422.17 209.75 1432.5 209.75C1436.67 209.75 1441.17 208.75 1446 206.75C1451 204.75 1457 200.917 1464 195.25V107.25H1492.75V234H1465.5ZM1603.84 133.5C1596 133.5 1588.5 134.75 1581.34 137.25C1574.34 139.583 1567.59 143.417 1561.09 148.75V234H1532.34V107.25H1559.59V126.75C1568.09 118.75 1575.67 113.083 1582.34 109.75C1589 106.417 1596.17 104.75 1603.84 104.75V133.5ZM1725.27 226.75C1716.6 230.25 1708.43 232.75 1700.77 234.25C1693.1 235.75 1685.85 236.5 1679.02 236.5C1660.18 236.5 1645.93 231.167 1636.27 220.5C1626.6 209.833 1621.77 195.667 1621.77 178V163C1621.77 151.167 1623.93 140.917 1628.27 132.25C1632.6 123.583 1638.77 116.833 1646.77 112C1654.77 107.167 1664.18 104.75 1675.02 104.75C1683.85 104.75 1692.1 106.583 1699.77 110.25C1707.6 113.75 1713.93 119.333 1718.77 127C1723.77 134.5 1726.27 144.167 1726.27 156C1726.27 159.5 1726.02 163.25 1725.52 167.25C1725.02 171.083 1724.18 175.167 1723.02 179.5H1649.52C1649.85 189.833 1652.43 197.583 1657.27 202.75C1662.1 207.917 1669.85 210.5 1680.52 210.5C1686.18 210.5 1692.02 209.833 1698.02 208.5C1704.18 207.167 1710.52 205.167 1717.02 202.5L1725.27 226.75ZM1675.02 129C1667.35 129 1661.35 131.5 1657.02 136.5C1652.85 141.333 1650.43 148.333 1649.77 157.5H1697.77C1697.93 156.667 1698.02 155.917 1698.02 155.25C1698.02 154.417 1698.02 153.667 1698.02 153C1698.02 145 1695.77 139 1691.27 135C1686.77 131 1681.35 129 1675.02 129ZM525.344 436V266H581.344C599.177 266 612.51 270.5 621.344 279.5C630.344 288.5 634.844 300.5 634.844 315.5V328.75C634.844 343.75 630.344 355.833 621.344 365C612.51 374 599.177 378.5 581.344 378.5H555.344V436H525.344ZM581.344 294.75H555.344V349.75H581.344C588.677 349.75 594.26 347.917 598.094 344.25C602.094 340.583 604.094 335.417 604.094 328.75V315.5C604.094 309 602.094 303.917 598.094 300.25C594.26 296.583 588.677 294.75 581.344 294.75ZM759.928 437.25C751.428 437.25 744.594 435.5 739.428 432C734.428 428.5 730.761 424.167 728.428 419C721.261 425.667 714.344 430.583 707.678 433.75C701.011 436.917 693.844 438.5 686.178 438.5C675.011 438.5 666.761 434.917 661.428 427.75C656.261 420.583 653.678 411.5 653.678 400.5C653.678 393.167 655.011 386.75 657.678 381.25C660.511 375.583 665.094 371.167 671.428 368C677.761 364.833 686.428 363.25 697.428 363.25C701.761 363.25 706.261 363.583 710.928 364.25C715.594 364.75 720.261 365.417 724.928 366.25V351.5C724.928 344.5 723.011 339.75 719.178 337.25C715.344 334.583 710.178 333.25 703.678 333.25C698.678 333.25 693.178 333.917 687.178 335.25C681.344 336.583 675.011 338.667 668.178 341.5L659.928 317C676.761 310.167 692.011 306.75 705.678 306.75C718.011 306.75 727.511 308.833 734.178 313C741.011 317.167 745.761 322.667 748.428 329.5C751.094 336.333 752.428 343.667 752.428 351.5V400.25C752.428 402.75 753.094 405.167 754.428 407.5C755.928 409.667 758.761 410.75 762.928 410.75H765.678V437.25H759.928ZM681.428 400C681.428 404.5 682.428 408.083 684.428 410.75C686.428 413.25 689.344 414.5 693.178 414.5C697.011 414.5 701.344 413.5 706.178 411.5C711.011 409.5 717.261 404.833 724.928 397.5V386.75C716.261 385.25 707.761 384.5 699.428 384.5C692.928 384.5 688.261 385.833 685.428 388.5C682.761 391.167 681.428 395 681.428 400ZM838.225 448.5C832.725 463.833 825.725 474.833 817.225 481.5C808.725 488.333 797.058 491.75 782.225 491.75V463C791.058 462.667 797.975 460.667 802.975 457C808.141 453.5 811.975 448.583 814.475 442.25L816.725 436.5L771.475 309.25H799.975L821.725 372.5L830.225 399.25L838.475 372.5L859.225 309.25H887.725L838.225 448.5ZM947.23 413.5C953.397 413.5 958.48 412.5 962.48 410.5C966.48 408.333 968.48 405.167 968.48 401C968.48 397.333 967.147 394.5 964.48 392.5C961.98 390.333 957.397 388.417 950.73 386.75L936.48 383C925.48 380.167 917.314 375.417 911.98 368.75C906.814 362.083 904.23 354.167 904.23 345C904.23 334.167 907.98 325.083 915.48 317.75C922.98 310.417 934.564 306.75 950.23 306.75C956.564 306.75 963.23 307.5 970.23 309C977.23 310.5 984.564 312.917 992.23 316.25L983.98 340.75C976.98 337.417 970.647 335.083 964.98 333.75C959.314 332.417 954.314 331.75 949.98 331.75C938.147 331.75 932.23 335.75 932.23 343.75C932.23 346.917 933.23 349.417 935.23 351.25C937.397 353.083 941.314 354.75 946.98 356.25L961.23 360C973.397 363.167 982.23 368 987.73 374.5C993.397 381 996.23 389.167 996.23 399C996.23 410.667 992.23 420.167 984.23 427.5C976.397 434.833 963.98 438.5 946.98 438.5C932.48 438.5 917.23 435.167 901.23 428.5L908.98 404.75C916.814 407.917 923.897 410.167 930.23 411.5C936.564 412.833 942.23 413.5 947.23 413.5ZM1121.74 437.25C1113.24 437.25 1106.41 435.5 1101.24 432C1096.24 428.5 1092.58 424.167 1090.24 419C1083.08 425.667 1076.16 430.583 1069.49 433.75C1062.83 436.917 1055.66 438.5 1047.99 438.5C1036.83 438.5 1028.58 434.917 1023.24 427.75C1018.08 420.583 1015.49 411.5 1015.49 400.5C1015.49 393.167 1016.83 386.75 1019.49 381.25C1022.33 375.583 1026.91 371.167 1033.24 368C1039.58 364.833 1048.24 363.25 1059.24 363.25C1063.58 363.25 1068.08 363.583 1072.74 364.25C1077.41 364.75 1082.08 365.417 1086.74 366.25V351.5C1086.74 344.5 1084.83 339.75 1080.99 337.25C1077.16 334.583 1071.99 333.25 1065.49 333.25C1060.49 333.25 1054.99 333.917 1048.99 335.25C1043.16 336.583 1036.83 338.667 1029.99 341.5L1021.74 317C1038.58 310.167 1053.83 306.75 1067.49 306.75C1079.83 306.75 1089.33 308.833 1095.99 313C1102.83 317.167 1107.58 322.667 1110.24 329.5C1112.91 336.333 1114.24 343.667 1114.24 351.5V400.25C1114.24 402.75 1114.91 405.167 1116.24 407.5C1117.74 409.667 1120.58 410.75 1124.74 410.75H1127.49V437.25H1121.74ZM1043.24 400C1043.24 404.5 1044.24 408.083 1046.24 410.75C1048.24 413.25 1051.16 414.5 1054.99 414.5C1058.83 414.5 1063.16 413.5 1067.99 411.5C1072.83 409.5 1079.08 404.833 1086.74 397.5V386.75C1078.08 385.25 1069.58 384.5 1061.24 384.5C1054.74 384.5 1050.08 385.833 1047.24 388.5C1044.58 391.167 1043.24 395 1043.24 400ZM1214.45 333.5C1210.29 333.5 1205.54 334.5 1200.2 336.5C1194.87 338.5 1188.54 342.417 1181.2 348.25V436H1152.45V309.25H1179.7V326.25C1187.54 319.417 1194.95 314.5 1201.95 311.5C1208.95 308.333 1216.04 306.75 1223.2 306.75C1235.37 306.75 1244.62 310.667 1250.95 318.5C1257.29 326.167 1260.45 337 1260.45 351V436H1231.7V354.5C1231.7 340.5 1225.95 333.5 1214.45 333.5ZM1360.45 333.5C1356.28 333.5 1351.53 334.5 1346.2 336.5C1340.87 338.5 1334.53 342.417 1327.2 348.25V436H1298.45V309.25H1325.7V326.25C1333.53 319.417 1340.95 314.5 1347.95 311.5C1354.95 308.333 1362.03 306.75 1369.2 306.75C1381.37 306.75 1390.62 310.667 1396.95 318.5C1403.28 326.167 1406.45 337 1406.45 351V436H1377.7V354.5C1377.7 340.5 1371.95 333.5 1360.45 333.5ZM1540.7 428.75C1532.03 432.25 1523.86 434.75 1516.2 436.25C1508.53 437.75 1501.28 438.5 1494.45 438.5C1475.61 438.5 1461.36 433.167 1451.7 422.5C1442.03 411.833 1437.2 397.667 1437.2 380V365C1437.2 353.167 1439.36 342.917 1443.7 334.25C1448.03 325.583 1454.2 318.833 1462.2 314C1470.2 309.167 1479.61 306.75 1490.45 306.75C1499.28 306.75 1507.53 308.583 1515.2 312.25C1523.03 315.75 1529.36 321.333 1534.2 329C1539.2 336.5 1541.7 346.167 1541.7 358C1541.7 361.5 1541.45 365.25 1540.95 369.25C1540.45 373.083 1539.61 377.167 1538.45 381.5H1464.95C1465.28 391.833 1467.86 399.583 1472.7 404.75C1477.53 409.917 1485.28 412.5 1495.95 412.5C1501.61 412.5 1507.45 411.833 1513.45 410.5C1519.61 409.167 1525.95 407.167 1532.45 404.5L1540.7 428.75ZM1490.45 331C1482.78 331 1476.78 333.5 1472.45 338.5C1468.28 343.333 1465.86 350.333 1465.2 359.5H1513.2C1513.36 358.667 1513.45 357.917 1513.45 357.25C1513.45 356.417 1513.45 355.667 1513.45 355C1513.45 347 1511.2 341 1506.7 337C1502.2 333 1496.78 331 1490.45 331Z" fill="black"/>
</svg>
