<?xml version="1.0" standalone="no"?>
<!DOCTYPE svg PUBLIC "-//W3C//DTD SVG 1.1//EN" "http://www.w3.org/Graphics/SVG/1.1/DTD/svg11.dtd">
<svg xmlns="http://www.w3.org/2000/svg">
  <defs>
    <font id="InriaSans" horiz-adv-x="561">
      <font-face font-family="Inria Sans" units-per-em="1000" panose-1="0 0 0 0 0 0 0 0 0 0" ascent="976" descent="-223" alphabetic="0" />
      <glyph unicode=" " glyph-name="space" horiz-adv-x="200" />
      <glyph unicode="!" glyph-name="exclam" horiz-adv-x="281" d="M176,199H86l34,261l39,220H274L235,460L176,199ZM156,0H35L56,119H177L156,0Z" />
      <glyph unicode="&quot;" glyph-name="quotedbl" horiz-adv-x="386" d="M162,388H95l15,196l17,96H234l-17-96L162,388Zm175,0H270l15,196l17,96H409l-17-96L337,388Z" />
      <glyph unicode="#" glyph-name="numbersign" horiz-adv-x="654" d="M251,0l87,185H199L112,0H10L97,185H3l15,87H138l65,136H112l15,87H244l87,185H433L346,495H485l87,185H674L587,495h94l-15-87H546L481,272h91l-15-87H440L353,0H251ZM240,272H379l65,136H305L240,272Z" />
      <glyph unicode="$" glyph-name="dollar" horiz-adv-x="518" d="M467,204q0-51-20.5-96T382,32.5T266-7L242-145H132L156-7Q83,2 2,41L44,144q52-24 89-33.5t78-9.5q68,0 99,26t31,67q0,28-16,46.5T274,275l-73,33q-58,26-88,67.5T83,481q0,80 47.5,138T279,688l24,137H413L388,684q28-5 56-14.5T503,646L461,543q-43,18-74,27t-65,9q-113,0-113-87q0-27 15-44t51-34l73-33q56-25 87.5-67T467,204Z" />
      <glyph unicode="%" glyph-name="percent" horiz-adv-x="734" d="M357,504q-9-62-48-95.5T209,375q-67,0-100.5,41.5T84,522l5,34q9,62 48,95.5T237,685q68,0 101-41.5T362,538l-5-34ZM557,680h94L206,0H112L557,680ZM276,504l6,37q5,32-7,51t-41,19q-23,0-41-13t-23-42l-6-37q-5-32 7-51t41-19q23,0 41.5,13.5T276,504ZM675,124q-9-62-48-95.5T527-5Q460-5 426.5,36.5T402,142l5,34q9,62 48,95.5T555,305q68,0 101-41.5T680,158l-5-34Zm-81,0l6,37q5,32-7,51t-41,19q-23,0-41-13t-23-42l-6-37q-5-32 7-51t41-19q23,0 41.5,13.5T594,124Z" />
      <glyph unicode="&amp;" glyph-name="ampersand" horiz-adv-x="555" d="M462,186q0-64-33.5-107.5T339,12.5T214-10Q117-10 60.5,35T4,163q0,70 40,120t127,79q-35,35-59,77T88,530q0,76 52,118t139,42q71,0 115.5-28.5t60-73.5T453,493L343,478q15,55-3.5,81.5T277,586q-28,0-51-13.5T203,520q0-28 15.5-60.5T271,387l116,25q51,11 87,21t68,21l33-102q-37-11-70.5-19T439,319l-23-4q22-29 34-60.5T462,186ZM119,171q0-37 26.5-56T216,96q54,0 92.5,27T347,201q0,43-30,94l-48-9q-79-16-114.5-45.5T119,171Z" />
      <glyph unicode="&apos;" glyph-name="quotesingle" horiz-adv-x="211" d="M162,388H95l15,196l17,96H234l-17-96L162,388Z" />
      <glyph unicode="(" glyph-name="parenleft" horiz-adv-x="335" d="M166,184q0-64 26.5-135.5T270-88l-89-65Q117-76 83,16T49,190v31q0,155 76,284.5T340,750l66-85q-76-67-130-136T194,381.5T166,206V184Z" />
      <glyph unicode=")" glyph-name="parenright" horiz-adv-x="335" d="M184,391v22q0,65-26.5,136T80,685l89,65q64-76 98-168.5T301,407V376q0-155-76-284.5T10-153L-56-68Q21,0 74.5,68.5T156,216t28,175Z" />
      <glyph unicode="*" glyph-name="asterisk" horiz-adv-x="413" d="M374,342l-85-42l-22,46L241,448l-60-88l-35-35L80,394l35,34l88,56L103,514L59,538l45,83l43-23l82-67l-4,105l9,50l93-17l-8-49l-39-97l99,35l50,7l13-94l-49-7l-105,6l65-83l21-45Z" />
      <glyph unicode="+" glyph-name="plus" horiz-adv-x="588" d="M501,255H345L317,95H215l28,160H87l18,100H261l28,160H391L363,355H519L501,255Z" />
      <glyph unicode="," glyph-name="comma" horiz-adv-x="211" d="M137,119l-3-19Q124,42 106.5-10.5T60-114.5T-15-223l-65,39q32,55 51,99T1.5,7T25,119H137Z" />
      <glyph unicode="-" glyph-name="hyphen" horiz-adv-x="404" d="M52,265L69,365H373L356,265H52Z" />
      <glyph unicode="." glyph-name="period" horiz-adv-x="211" d="M121,0H0L21,119H142L121,0Z" />
      <glyph unicode="/" glyph-name="slash" horiz-adv-x="394" d="M367,740H488L12-143H-109L367,740Z" />
      <glyph unicode="0" glyph-name="zero" horiz-adv-x="610" d="M571,402L549,279Q524,137 458.5,63.5T277-10q-76,0-128.5,35.5T74.5,126T69,279L91,402q25,140 90.5,214T364,690q76,0 128-36t73.5-100.5T571,402Zm-121,0q15,86-8.5,131.5T357,579t-95-44.5T212,402L190,279q-16-88 8-133t84-45q62,0 96,43.5T428,279l22,123Z" />
      <glyph unicode="1" glyph-name="one" horiz-adv-x="377" d="M68,583l190,97H358L238,0H120l96,544L106,489L68,583Z" />
      <glyph unicode="2" glyph-name="two" horiz-adv-x="514" d="M437,113L417,0H5L22,95q13,70 35.5,115T116,285t87,55l74,36q38,18 59.5,31.5T369,435t14,34l4,22q7,39-14.5,63.5T293,579q-32,0-68-9t-88-29L109,644q59,25 105.5,35.5T306,690q77,0 124-28.5T495.5,588t9.5-97l-4-23q-9-54-33-87.5T405.5,323T312,272l-74-36q-44-21-64-49.5T143,113H437Z" />
      <glyph unicode="3" glyph-name="three" horiz-adv-x="504" d="M435,179q-8-55-34.5-97.5t-77-67T192-10Q145-10 97.5,1T-4,38L39,141q47-21 83-30.5t73-9.5q53,0 85,19.5T318,183l2,14q6,41-12.5,66.5T240,289H134l19,108H259q47,0 73,21.5T363,474l3,19q7,45-14,65.5T281,579q-34,0-72-9t-90-29L89,644q61,26 110,36t92,10q77,0 122.5-26t63-69.5T485,498l-3-19q-7-48-33.5-84T381,336q32-22 47.5-58t8.5-85l-2-14Z" />
      <glyph unicode="4" glyph-name="four" horiz-adv-x="527" d="M487,154H416L389,0H273l27,154H8l17,97q87,107 168.5,215.5T333,680H474Q418,577 337,471T170,261H319l18,103H453L435,261h71L487,154Z" />
      <glyph unicode="5" glyph-name="five" horiz-adv-x="510" d="M76,351l78,329H505L485,567H239L205,420q30,6 61,6q71,0 117-28t64.5-75.5T454,214l-6-30q-11-54-39-98T329.5,16T195-10Q147-10 99.5,1T-2,38L43,141q50-21 85-30.5t74-9.5q108,0 125,83l6,30q9,46-12,75.5T241,319q-24,0-51.5-6.5T130,294L76,351Z" />
      <glyph unicode="6" glyph-name="six" horiz-adv-x="568" d="M512,197q-17-94-76-150.5T276-10q-80,0-130.5,39.5T76.5,137T72,291L94,422q24,143 94.5,205.5T377,690q44,0 88.5-10T562,644L513,541q-41,21-73.5,29.5T378,579q-68,0-111-35.5T209,422l-8-48q78,63 156,63q58,0 97.5-29.5t56-78.5T516,219l-4-22ZM321,329q-30,0-68-14t-70-40q-12-87 13.5-130.5T280,101q46,0 76.5,26.5T395,197l4,20q10,49-9.5,80.5T321,329Z" />
      <glyph unicode="7" glyph-name="seven" horiz-adv-x="474" d="M507,577Q414,435 343.5,291.5T221,0H89Q191,290 370,567H74L94,680H526L507,577Z" />
      <glyph unicode="8" glyph-name="eight" horiz-adv-x="567" d="M503,204q0-55-25-104T397.5,20.5T251-10Q141-10 88,35.5T35,148q0,50 31.5,102T173,342q-33,26-51,60t-18,81q0,55 26.5,102t79,76T340,690q98,0 151.5-42.5T545,531q0-46-27.5-94T422,351q39-26 60-62t21-85ZM296,413l50-22q46,33 62,63t16,56q0,74-88,74q-53,0-82.5-25.5T224,494q0-30 19-48t53-33ZM157,177q0-37 25.5-59T257,96q62,0 93,26t31,67q0,27-18,47.5T302,276l-52,23q-49-31-71-59.5T157,177Z" />
      <glyph unicode="9" glyph-name="nine" horiz-adv-x="570" d="M506,258Q482,115 412,52.5T223-10q-43,0-88,10.5T38,36L87,139q41-21 74-29.5t61-8.5q68,0 111,36t58,121l8,48q-78-63-156-63q-57,0-95.5,29t-55,78.5T84,461l3,22q13,95 74.5,151T324,690q80,0 130.5-39.5T524,543t4-154L506,258ZM201,463q-7-49 11-80.5T279,351q30,0 68.5,14T417,405q12,87-13.5,130.5T320,579q-46,0-77.5-26.5T204,483l-3-20Z" />
      <glyph unicode=":" glyph-name="colon" horiz-adv-x="211" d="M189,388H68L89,507H210L189,388ZM121,0H0L21,119H142L121,0Z" />
      <glyph unicode=";" glyph-name="semicolon" horiz-adv-x="211" d="M189,388H68L89,507H210L189,388ZM137,119l-3-19Q124,42 106.5-10.5T60-114.5T-15-223l-65,39q32,55 51,99T1.5,7T25,119H137Z" />
      <glyph unicode="&lt;" glyph-name="less" horiz-adv-x="588" d="M493,207L474,103L90,271l14,81L547,517L527,405L250,307L493,207Z" />
      <glyph unicode="=" glyph-name="equal" horiz-adv-x="588" d="M106,364l18,100H538L520,364H106ZM71,165L89,265H503L485,165H71Z" />
      <glyph unicode="&gt;" glyph-name="greater" horiz-adv-x="588" d="M503,268L60,103L80,215l277,98L114,413l19,104L517,349l-14-81Z" />
      <glyph unicode="?" glyph-name="question" horiz-adv-x="464" d="M271,583q-32,0-71-9t-92-29L79,644q59,25 109.5,35.5T285,690q79,0 125-27t61.5-72t4.5-99l-4-20q-9-46-32.5-76T375,330l-38-33q-25-22-38.5-36.5t-18.5-26T272,208l-1-9H151l3,18q5,27 14,48t28.5,44.5T252,364l39,34q32,28 46.5,46T356,486l3,18q7,35-12,57t-76,22ZM237,0H116l21,119H258L237,0Z" />
      <glyph unicode="@" glyph-name="at" horiz-adv-x="946" d="M729-167q-58-26-126-41T467-223q-133,0-228.5,54T91.5-18T40,207q0,103 32,191t92,153.5t144,102T496,690q93,0 170-30t132.5-84T884,449t30-160q0-85-30.5-151.5T801,33T682-5q-47,0-79.5,19T558,73Q512,24 473.5,7T399-10q-68,0-99.5,61.5T284,211l7,44q17,104 68.5,158T504,467q52,0 102-18t95-47L659,162q-6-33 2-54t34-21q29,0 55.5,25T794,182.5T811,289q0,89-39.5,158t-110,108.5T496,595q-108,0-187.5-51T186,405.5T143,207q0-101 38.5-176.5t111-117T467-128q59,0 120,14T699-75l30-92ZM400,211q-10-61 1.5-88.5T441,95q23,0 49.5,18.5T549,176l30,172q-18,8-33.5,13T514,366q-46,0-72.5-30T407,255l-7-44Z" />
      <glyph unicode="A" glyph-name="A" horiz-adv-x="601" d="M416,0L397,133H164L99,0H-25L322,680H428L536,0H416ZM266,341l-48-98H382l-14,98L348,513L266,341Z" />
      <glyph unicode="B" glyph-name="B" horiz-adv-x="586" d="M49,0L169,680H366q101,0 148.5-52T548,492l-5-30q-6-37-25.5-66T464,348q38-22 54-59.5t8-86.5l-5-30q-9-55-33-93T417.5,20.5T294,0H49ZM357,570H270L240,400h87q39,0 63,15.5T419,459l6,33q7,36-11,57t-57,21ZM332,290H220L188,110H300q42,0 67.5,17T398,174l6,33q7,38-12,60.5T332,290Z" />
      <glyph unicode="C" glyph-name="C" horiz-adv-x="538" d="M192,280q-13-76 11.5-126.5T298,103q25,0 59.5,5T442,128L467,23Q412,4 366-3t-80-7q-82,0-135.5,38.5t-74,104T69,280L89,402q23,143 94,215.5T380,690q41,0 82.5-9.5T552,648L507,542q-43,19-73,27t-62,8q-70,0-108.5-49T212,402L192,280Z" />
      <glyph unicode="D" glyph-name="D" horiz-adv-x="639" d="M49,0L169,680H379q81,0 135.5-36.5t77-99T600,402L578,279Q555,147 484,73.5T290,0H49ZM371,565H269L189,115H296q68,0 106.5,42.5T455,279l22,123q14,74-11.5,118.5T371,565Z" />
      <glyph unicode="E" glyph-name="E" horiz-adv-x="536" d="M463,115L443,0H49L169,680H553L533,565H269L240,402H474L454,287H220L189,115H463Z" />
      <glyph unicode="F" glyph-name="F" horiz-adv-x="505" d="M443,261H215L169,0H49L169,680H547L527,565H269L235,376H463L443,261Z" />
      <glyph unicode="G" glyph-name="G" horiz-adv-x="603" d="M507,43Q450,15 396,2.5T298-10q-86,0-141.5,38.5T79,132.5T70,280L90,402q23,143 98,215.5T396,690q44,0 90.5-9.5T585,648L540,543q-47,19-82,26.5T391,577q-79,0-122-49T213,402L193,280q-8-51 0.5-91T231,126t81-23q20,0 44.5,4T412,121l26,148H327l19,105H565L507,43Z" />
      <glyph unicode="H" glyph-name="H" horiz-adv-x="682" d="M423,0l51,287H220L169,0H49L169,680H289L240,402H494l49,278H663L543,0H423Z" />
      <glyph unicode="I" glyph-name="I" horiz-adv-x="308" d="M169,0H49L169,680H289L169,0Z" />
      <glyph unicode="J" glyph-name="J" horiz-adv-x="376" d="M-21-10L0,105q58,0 93.5,11t55,41T178,244l77,436H375L298,244q-12-67-31.5-115T212,50T120.5,4.5T-21-10Z" />
      <glyph unicode="K" glyph-name="K" horiz-adv-x="614" d="M416,0L297,303q-22-20-44-40t-45-41L169,0H49L169,680H289L234,367q88,83 154,160T505,680H643q-59-85-122-160T392,379L553,0H416Z" />
      <glyph unicode="L" glyph-name="L" horiz-adv-x="507" d="M461,115L441,0H49L169,680H289L189,115H461Z" />
      <glyph unicode="M" glyph-name="M" horiz-adv-x="829" d="M295,680L403,212L677,680H810L690,0H575l46,260l56,232L435,80H328L237,498L210,260L164,0H49L169,680H295Z" />
      <glyph unicode="N" glyph-name="N" horiz-adv-x="683" d="M49,0L169,680H279q43-87 77-162.5t63.5-150T477,209l26,211l46,260H664L544,0H434q-43,140-89.5,261.5T244,501L210,260L164,0H49Z" />
      <glyph unicode="O" glyph-name="O" horiz-adv-x="640" d="M601,402L579,279Q554,143 484,66.5T291-10q-81,0-136,37T77,129.5T69,279L91,402q24,134 94.5,211T380,690q81,0 135.5-37.5T593,550t8-148Zm-123,0q14,79-11.5,127T372,577q-66,0-105-47T214,402L192,279q-14-82 11.5-129T297,103t106,46t53,130l22,123Z" />
      <glyph unicode="P" glyph-name="P" horiz-adv-x="575" d="M49,0L169,680H380q107,0 156-57.5T570,470l-9-56q-13-84-70.5-134T327,230H210L169,0H49ZM373,565H269L230,345H334q44,0 71.5,19.5T439,419l9,53q8,44-11.5,68.5T373,565Z" />
      <glyph unicode="Q" glyph-name="Q" horiz-adv-x="640" d="M503-73L481-198q-73,0-117,22.5T298.5-114T268-27L265-9Q192-3 143.5,35T75,136T69,279L91,402q24,134 94.5,211T380,690q81,0 135.5-37.5T593,550t8-148L579,279Q559,169 509.5,97.5T377,1q5-30 17.5-46T433-67t70-6ZM478,402q14,79-11.5,127T372,577q-66,0-105-47T214,402L192,279q-14-82 11.5-129T297,103t106,46t53,130l22,123Z" />
      <glyph unicode="R" glyph-name="R" horiz-adv-x="609" d="M49,0L169,680H383q73,0 119-27t64.5-74T574,473l-8-45Q545,313 443,270Q500,135 533,0H403q-27,127-75,250H213L169,0H49ZM377,570H270L233,360H339q44,0 71,20.5T444,435l8,43q8,44-11.5,68T377,570Z" />
      <glyph unicode="S" glyph-name="S" horiz-adv-x="518" d="M211,101q68,0 99,26t31,67q0,28-16,46.5T274,275l-73,33q-58,26-88,67.5T83,481q0,59 25.5,106.5t78.5,75T322,690q46,0 89-11t92-33L461,543q-43,18-74,27t-65,9q-113,0-113-87q0-27 15-44t51-34l73-33q56-25 87.5-67T467,204q0-57-25.5-106t-82-78.5T211-10Q159-10 109,1.5T2,41L44,144q52-24 89-33.5t78-9.5Z" />
      <glyph unicode="T" glyph-name="T" horiz-adv-x="526" d="M68,565L88,680H588L568,565H378L278,0H158L258,565H68Z" />
      <glyph unicode="U" glyph-name="U" horiz-adv-x="646" d="M153,680H276L199,244q-11-65 11-103t86-38t100,37.5T443,244l77,436H643L566,244q-13-75-44.5-132.5T434.5,22T292-10q-81,0-133.5,32.5T84.5,112T76,244l77,436Z" />
      <glyph unicode="V" glyph-name="V" horiz-adv-x="584" d="M645,680L309,0H186L89,680H213l43-342l16-177l81,178L515,680H645Z" />
      <glyph unicode="W" glyph-name="W" horiz-adv-x="867" d="M232,411l-6-252L454,680H562l44-516l85,247L791,680H916L643,0H520L478,506L257,0H134L101,680H228l4-269Z" />
      <glyph unicode="X" glyph-name="X" horiz-adv-x="562" d="M373,0L276,243L103,0H-30L230,354L101,680H230l91-230L484,680H617L367,339L502,0H373Z" />
      <glyph unicode="Y" glyph-name="Y" horiz-adv-x="544" d="M616,680L337,274L288,0H168l48,271L78,680H202l93-289L485,680H616Z" />
      <glyph unicode="Z" glyph-name="Z" horiz-adv-x="509" d="M448,115L428,0H-7L12,105L368,565H103l20,115H538L519,575L163,115H448Z" />
      <glyph unicode="[" glyph-name="bracketleft" horiz-adv-x="350" d="M296-43L279-143H24L179,740H434L417,640H277L156-43H296Z" />
      <glyph unicode="\" glyph-name="backslash" horiz-adv-x="394" d="M190,740L363-143H249L76,740H190Z" />
      <glyph unicode="]" glyph-name="bracketright" horiz-adv-x="350" d="M341,740L186-143H-69L-52-43H89L208,640H69L86,740H341Z" />
      <glyph unicode="^" glyph-name="asciicircum" horiz-adv-x="588" d="M397,266L344,526L199,266H89L328,680h81l94-414H397Z" />
      <glyph unicode="_" glyph-name="underscore" horiz-adv-x="414" d="M-69-163l13,73H348l-13-73H-69Z" />
      <glyph unicode="`" glyph-name="grave" horiz-adv-x="500" d="M258,579L176,699l111,46l67-166H258Z" />
      <glyph unicode="a" glyph-name="a" horiz-adv-x="558" d="M465-5q-55,0-81.5,23.5T349,76Q295,24 252,7T176-10q-49,0-81,31.5t-43.5,87T51,236l7,44q19,116 76.5,176.5T295,517q58,0 113.5-17T511,452L457,143q-2-15 4.5-28.5T491,101h12L484-5H465ZM169,236q-11-72 2-105.5T215,97q26,0 59.5,20.5T351,192l35,202q-41,20-81,20q-56,0-87.5-36T176,280l-7-44Z" />
      <glyph unicode="b" glyph-name="b" horiz-adv-x="560" d="M501,227Q483,112 424,51T260-10q-61,0-115.5,20T40,58L160,740H275L221,431q52,53 91,69.5T382,517q50,0 82-31.5T508,399t0-128l-7-44ZM340,410q-26,0-60.5-24.5T198,301L166,115q23-12 43.5-17T250,93q59,0 91,36.5T383,227l7,44q12,72-1.5,105.5T340,410Z" />
      <glyph unicode="c" glyph-name="c" horiz-adv-x="450" d="M293,411q-46,0-78-29.5T172,294l-11-60Q136,96 251,96q24,0 50.5,5.5T366,120l17-99Q337,4 302.5-3T237-10Q129-10 79.5,58.5T50,242l9,52q20,111 81.5,167T292,517q69,0 149-34l-38-99q-63,27-110,27Z" />
      <glyph unicode="d" glyph-name="d" horiz-adv-x="564" d="M331,0l15,85Q291,27 250,8.5T177-10q-49,0-81.5,31.5T51,108.5T51,236l7,44q18,116 77,176.5T299,517q31,0 58.5-6.5T412,493l43,247H570L440,0H331ZM169,236q-12-72 2-105.5T219,97q26,0 60.5,25T362,207l32,185q-23,12-44,17t-41,5q-58,0-90-36t-43-98l-7-44Z" />
      <glyph unicode="e" glyph-name="e" horiz-adv-x="522" d="M424,24Q369,3 327.5-3.5T250-10Q134-10 81.5,58.5T48,242l9,52q18,102 81,162.5T294,517q49,0 91.5-17T455,445.5T482,346q0-65-39-128H154q-7-61 19-92.5T265,94q22,0 59,6t84,22l16-98ZM290,417q-94,0-120-111H365q7,21 7,40q0,35-22.5,53T290,417Z" />
      <glyph unicode="f" glyph-name="f" horiz-adv-x="373" d="M399,407H241L169,0H54l72,407H44L61,507h83l9,53q16,89 64.5,139.5T363,750q37,0 69-7.5T490,724l-42-98q-45,16-82,16q-40,0-65-17.5T268,560l-10-53H416L399,407Z" />
      <glyph unicode="g" glyph-name="g" horiz-adv-x="561" d="M441,0q-11-64-34-114.5T337-194T207-223q-79,0-171,30L61-95q43-15 80-20.5t60-5.5q46,0 71,15.5t36.5,43T326,0l12,69Q288,23 248,6.5T177-10q-49,0-81.5,31.5t-44,87T51,236l7,44q18,116 77,176.5T299,517q59,0 115.5-17T519,452L441,0ZM169,236q-11-72 2.5-105.5T219,97q26,0 61.5,21T359,193l35,200q-43,21-85,21q-58,0-90.5-36T176,280l-7-44Z" />
      <glyph unicode="h" glyph-name="h" horiz-adv-x="584" d="M361,410q-24,0-61-18.5T204,314L149,0H34L164,740H279L224,428q55,53 98,71t78,18q51,0 81.5-24.5T523,425t1-97L466,0H351l57,326q16,84-47,84Z" />
      <glyph unicode="i" glyph-name="i" horiz-adv-x="273" d="M258,603H137l21,119H279L258,603ZM149,0H34l89,507H238L149,0Z" />
      <glyph unicode="j" glyph-name="j" horiz-adv-x="273" d="M258,603H137l21,119H279L258,603ZM-109-223l19,108q50,0 81,24T33-4l90,511H238L148-4q-12-67-36.5-116t-76-76T-109-223Z" />
      <glyph unicode="k" glyph-name="k" horiz-adv-x="532" d="M342,0L251,214q-18-16-36.5-31T176,153L149,0H34L164,740H279L199,285q65,56 114.5,108T408,507H545q-43-60-92-114T347,283L476,0H342Z" />
      <glyph unicode="l" glyph-name="l" horiz-adv-x="276" d="M57,148L161,740H276L171,143q-2-15 4.5-28.5T205,101h12L198-5H179Q121-5 92.5,17.5t-35,58T57,148Z" />
      <glyph unicode="m" glyph-name="m" horiz-adv-x="881" d="M356,410q-23,0-58-18.5T205,315L149,0H34l89,507H232l-15-86q56,57 99,76.5T395,517q51,0 81-27t39-73q59,60 104.5,80T702,517q49,0 78.5-24.5t40-67.5t0.5-97L763,0H648l57,326q8,43-4,63.5T663,410q-23,0-58-18.5T512,315L456,0H341l57,326q8,43-4,63.5T356,410Z" />
      <glyph unicode="n" glyph-name="n" horiz-adv-x="584" d="M361,410q-24,0-61-18.5T204,314L149,0H34l89,507H232l-15-86q57,58 101.5,77T400,517q51,0 81.5-24.5T523,425t1-97L466,0H351l57,326q16,84-47,84Z" />
      <glyph unicode="o" glyph-name="o" horiz-adv-x="545" d="M496,266l-8-52Q472,106 408.5,48T247-10q-71,0-119.5,32.5T58.5,112T49,242l8,52q17,107 79,165t161,58q72,0 120-32.5t69-89T496,266Zm-117,5q11,65-11.5,104T293,414q-43,0-75.5-29.5T175,294l-9-57q-10-65 13-104.5T252,93q44,0 76,30.5T370,214l9,57Z" />
      <glyph unicode="p" glyph-name="p" horiz-adv-x="564" d="M264-10q-31,0-59,6.5T151,14L111-213H-4L123,507H232l-15-85q55,59 96,77t73,18q50,0 82-31.5T512,399t0-128l-7-44Q487,112 428,51T264-10Zm80,420q-26,0-60.5-25T201,300L169,115q45-22 85-22q59,0 91,36.5T387,227l7,44q12,72-1.5,105.5T344,410Z" />
      <glyph unicode="q" glyph-name="q" horiz-adv-x="561" d="M519,449L402-213H287L338,76Q286,24 247,7T177-10q-49,0-81.5,31.5T51,108.5T51,236l7,44q18,116 77,176.5T299,517q62,0 116-19.5T519,449ZM169,236q-12-72 2-105.5T219,97q26,0 60.5,24.5T360,205l33,187q-23,12-43.5,17T309,414q-58,0-90-36t-43-98l-7-44Z" />
      <glyph unicode="r" glyph-name="r" horiz-adv-x="387" d="M391,402q-23,0-51.5-5t-62-23T205,317L149,0H34l89,507H232l-15-87q59,59 107.5,78T411,517L391,402Z" />
      <glyph unicode="s" glyph-name="s" horiz-adv-x="461" d="M201,91q41,0 63.5,12T287,141q0,20-13.5,33T228,197l-55,19q-55,20-81.5,56T65,360q0,68 47,112.5T257,517q42,0 82-9t83-27l-37-98q-37,17-69.5,25T254,416q-44,0-59-14t-15-33t13-30.5T231,318l55-19q59-20 87-56.5T401,153q0-70-49.5-116.5T195-10q-46,0-90,9.5T14,30l36,98q43-19 79.5-28T201,91Z" />
      <glyph unicode="t" glyph-name="t" horiz-adv-x="400" d="M344,11Q316,0 282-5t-60-5q-63,0-96.5,25t-43,66T81,169l42,238H41L58,507h83l23,132H279L256,507H413L396,407H238L196,169q-7-40 6.5-55.5T248,98q15,0 35.5,3T327,112L344,11Z" />
      <glyph unicode="u" glyph-name="u" horiz-adv-x="570" d="M337,0l15,86Q297,29 254,9.5T176-10q-48,0-77.5,25T59,82.5T59,179l58,328H232L175,181q-7-43 4-63.5T215,97q23,0 57.5,19T365,193l55,314H535L446,0H337Z" />
      <glyph unicode="v" glyph-name="v" horiz-adv-x="499" d="M526,507L257,0H152L61,507H171l43-253l15-112l54,112L410,507H526Z" />
      <glyph unicode="w" glyph-name="w" horiz-adv-x="737" d="M754,507L535,0H410L394,381L237,0H112L71,507H183l14-201l1-191L355,507H471l20-381l63,179l83,202H754Z" />
      <glyph unicode="x" glyph-name="x" horiz-adv-x="484" d="M303,0L229,167L100,0H-26L184,262L74,507H191l68-153L377,507H503L304,259L420,0H303Z" />
      <glyph unicode="y" glyph-name="y" horiz-adv-x="499" d="M230-50q-49-92-107.5-132.5T-24-223L-4-108q39,3 63,10.5T100.5-73T135-25L151,5L61,507H175l43-253l15-105l51,105L411,507H526L257,0L230-50Z" />
      <glyph unicode="z" glyph-name="z" horiz-adv-x="432" d="M370,100L352,0H-10L6,90L271,407H72L89,507H431l-15-90L151,100H370Z" />
      <glyph unicode="{" glyph-name="braceleft" horiz-adv-x="381" d="M327-44L310-144H229q-69,0-108,27.5t-47,74T89,61l35,86q18,45 11,73T72,248H19L36,348H89q56,0 73.5,28T177,449l-5,86q-5,94 42,149.5T361,740H465L448,640H359q-37,0-54-24t-15-62l5-86q4-71-23-115t-80-60q47-14 59-55.5T235,128L199,42q-15-37-6.5-61.5T238-44h89Z" />
      <glyph unicode="|" glyph-name="bar" horiz-adv-x="303" d="M179,740H294L126-213H11L179,740Z" />
      <glyph unicode="}" glyph-name="braceright" horiz-adv-x="381" d="M224,61q5-94-41.5-149.5T35-144H-69L-52-44H37q37,0 54,24.5T106,42l-5,86q-4,71 23.5,115T204,303q-47,14-59,55.5T161,468l36,86q15,38 6.5,62T158,640H69L86,740h81q70,0 108.5-27.5t46.5-74T307,535l-35-86q-18-45-11-73t63-28h53L360,248H307q-56,0-73.5-28T219,147l5-86Z" />
      <glyph unicode="~" glyph-name="asciitilde" horiz-adv-x="588" d="M384,210q-36,0-60.5,16t-42,37T250,300t-29,16q-5,0-14-5.5T186.5,285T161,220L74,240q22,75 47,112.5T172.5,403T223,416q35,0 59.5-16t42-37T356,326t29-16q6,0 15,5.5T421,342t27,65l86-20q-21-75-46.5-113t-52-51T384,210Z" />
      <glyph unicode="&#xa0;" glyph-name="uni00A0" horiz-adv-x="200" />
      <glyph unicode="&#xa1;" glyph-name="exclamdown" horiz-adv-x="281" d="M124,507H245L224,388H103l21,119ZM104,308h90L160,47L121-173H6L45,47l59,261Z" />
      <glyph unicode="&#xa2;" glyph-name="cent" horiz-adv-x="450" d="M383,21Q316-4 268-8L248-125H138L160,1Q92,24 63,87T50,242l9,52q17,98 67.5,153T251,514l20,118H381L360,510q39-9 81-27l-38-99q-63,27-110,27q-46,0-78-29.5T172,294l-11-60Q136,96 251,96q24,0 50.5,5.5T366,120l17-99Z" />
      <glyph unicode="&#xa3;" glyph-name="sterling" horiz-adv-x="487" d="M436,115L416,0H16L35,105q51,37 76,66.5t34,54t9,46.5H56L74,372h60q-8,26-15.5,54T111,490q0,51 20.5,97T200,661.5T331,690q42,0 85.5-9.5T513,648L468,542q-44,20-76.5,27.5T333,577q-48,0-74-23.5T233,483q0-28 8-55.5T257,372H413L395,272H272q-4-38-26.5-77T178,115H436Z" />
      <glyph unicode="&#xa4;" glyph-name="currency" horiz-adv-x="558" d="M272,103q-65,0-112,33L31,25L-18,87L109,198q-17,37-17,84q0,38 11.5,71.5T135,415L57,513l64,56l78-98q23,12 49,19t55,7q65,0 111-33L542,576l49-63L465,403q18-37 18-85q0-38-11.5-72T439,184l77-97L453,32l-78,97q-46-26-103-26Zm28,304q-49,0-81-35t-32-86q0-44 24-68.5T275,193q50,0 81.5,35T388,314q0,44-24,68.5T300,407Z" />
      <glyph unicode="&#xa5;" glyph-name="yen" horiz-adv-x="566" d="M490,149H325L299,0H179l26,149H40l16,87H221l6,35l-14,41H69l15,87H184L89,680H213l93-289L496,680H627L434,399H534l-15-87H374l-26-38l-7-38H506l-16-87Z" />
      <glyph unicode="&#xa6;" glyph-name="brokenbar" horiz-adv-x="281" d="M168,740H283L216,357H101l67,383ZM68,170H183L115-213H0L68,170Z" />
      <glyph unicode="&#xa7;" glyph-name="section" horiz-adv-x="516" d="M400-22q0-54-24.5-99.5t-78-73.5T157-223q-52,0-99.5,12T-45-172L1-69q50-22 84.5-32.5T161-112q59,0 86,22.5T274-32q0,23-12,39T221,36L148,69Q89,96 58,134.5T27,225q0,47 29,89.5T140,383q-38,43-38,111q0,55 24.5,99.5t76,70.5T335,690q46,0 89-11t92-33L470,543q-43,18-74,27t-65,9q-103,0-103-74q0-22 12.5-36.5T284,440l73-33q53-24 83.5-59.5T471,253q0-41-27-83t-87-70q43-45 43-122ZM222,175l53-24q36,16 53,38t17,44q0,23-15,38.5T283,301l-68,31q-31-16-46.5-40.5T153,244q0-25 16-38.5T222,175Z" />
      <glyph unicode="&#xa8;" glyph-name="dieresis" horiz-adv-x="500" d="M270,609H161l19,107H289L270,609Zm194,0H355l19,107H483L464,609Z" />
      <glyph unicode="&#xa9;" glyph-name="copyright" horiz-adv-x="834" d="M432-37Q351-37 283-9T165,70T87.5,189.5T60,340T87.5,490.5T165,610t118,79t149,28q80,0 148-28t118-79t78-119.5T804,340T776,189.5T698,70T580-9T432-37Zm0,70q86,0 152.5,39.5T689.5,181T728,340q0,89-38.5,158.5t-105,109T432,647q-85,0-152-39.5t-105.5-109T136,340q0-90 38.5-159T280,72.5T432,33ZM348,361V320q0-55 20-83.5T433,208q26,0 53,8t55,21l29-79q-68-35-142-35q-85,0-129,52T255,320v41q0,92 44,144t129,52q32,0 67-7.5T561,525l-29-79q-25,12-50,19t-49,7q-45,0-65-28t-20-83Z" />
      <glyph unicode="&#xaa;" glyph-name="ordfeminine" horiz-adv-x="353" d="M343,340q-36,0-55,16.5T262,395q-36-35-63.5-47.5T149,335q-48,0-71.5,45.5T67,498l5,29q14,77 53.5,117.5T238,685q35,0 70-11.5T373,642L338,445q-2-14 2.5-21t20.5-7h8l-14-77H343ZM148,498q-7-44 1.5-65T179,412q16,0 37,12.5T264,469l22,129q-25,12-50,12q-37,0-56.5-22.5T153,527l-5-29Z" />
      <glyph unicode="&#xab;" glyph-name="guillemotleft" horiz-adv-x="712" d="M316,126L295,14L34,209l13,77L377,478L356,354L152,241L316,126Zm320,0L615,14L354,209l13,77L697,478L676,354L472,241L636,126Z" />
      <glyph unicode="&#xac;" glyph-name="logicalnot" horiz-adv-x="588" d="M108,375l18,100H540L494,218H392l28,157H108Z" />
      <glyph unicode="&#xad;" glyph-name="uni00AD" horiz-adv-x="0" />
      <glyph unicode="&#xae;" glyph-name="registered" horiz-adv-x="537" d="M308,241q-67,0-120,31t-83.5,85T74,479q0,69 30.5,122.5T188,686t120,31t120-31t83.5-84.5T542,479q0-68-30.5-122T428,272T308,241Zm0,58q50,0 88.5,23.5t61,64.5T480,479q0,52-22.5,92.5t-61,64T308,659q-49,0-88-23.5t-61.5-64T136,479q0-51 22.5-92T220,322.5T308,299Zm-89,54V608h95q41,0 62.5-22.5T398,526v-9q0-48-34-70q28-44 49-94H346q-9,21-19,41.5T306,434H280V353H219Zm95,197H280V493h34q21,0 21,24v9q0,24-21,24Z" />
      <glyph unicode="&#xaf;" glyph-name="macron" horiz-adv-x="500" d="M479,692l-15-83H161l15,83H479Z" />
      <glyph unicode="&#xb0;" glyph-name="degree" horiz-adv-x="355" d="M210,366q-66,0-105.5,39T65,510q0,50 23,91t62.5,65T241,690q66,0 105.5-39T386,546q0-50-23-91t-62.5-65T210,366Zm28,247q-40,0-65.5-28.5T147,514q0-34 17.5-52.5T213,443q40,0 65.5,28.5T304,542q0,34-17.5,52.5T238,613Z" />
      <glyph unicode="&#xb1;" glyph-name="plusminus" horiz-adv-x="588" d="M508,295H352L326,145H224l26,150H94l18,100H268l26,150H396L370,395H526L508,295ZM42,0L60,100H474L456,0H42Z" />
      <glyph unicode="&#xb2;" glyph-name="uni00B2" horiz-adv-x="269" d="M288,518l-13-73H54l12,68q10,55 33.5,79.5T162,633l37,15q21,8 30,17t10,20l1,3q5,27-38,27q-18,0-38-5t-47-14l-13,71q31,13 57,18t50,5q46,0 70.5-14t33-36.5T319,691l-1-9q-4-32-26-56.5T225,583l-37-15q-21-8-30-20.5T146,518H288Z" />
      <glyph unicode="&#xb3;" glyph-name="uni00B3" horiz-adv-x="275" d="M291,530q-7-40-36-65t-95-25q-25,0-51,5T60,461l23,70q21-8 40-11.5t37-3.5q49,0 55,29l1,7q2,14-7,23.5T179,585H128l11,64h51q40,0 45,30l1,7q6,29-40,29q-15,0-33-3.5T120,700l-17,70q30,11 54.5,15.5T204,790q68,0 93-29.5T317,694l-1-7q-3-26-19-44t-40-28q20-11 30.5-29t5.5-44l-2-12Z" />
      <glyph unicode="&#xb4;" glyph-name="acute" horiz-adv-x="500" d="M360,579H254L379,745l105-46L360,579Z" />
      <glyph unicode="&#xb5;" glyph-name="uni00B5" horiz-adv-x="574" d="M127-125l-16-88H-4L124,507H239L182,181q-7-43 4-63.5T222,97q23,0 57,19t92,76l55,315H541L477,143q-3-15 4-28.5T511,101h12L504-5H485q-63,0-89,29T367,94Q309,32 265.5,11T189-10q-41,0-62,21V-125Z" />
      <glyph unicode="&#xb6;" glyph-name="paragraph" horiz-adv-x="572" d="M79,496q14,84 71,134t163,50H635l-16-87H535L405-143H285L415,593H352L288,230H260q-106,0-155.5,58T70,440l9,56Z" />
      <glyph unicode="&#xb7;" glyph-name="periodcentered" horiz-adv-x="500" d="M323,325H202l21,119H344L323,325Z" />
      <glyph unicode="&#xb8;" glyph-name="cedilla" horiz-adv-x="500" d="M299-117q0-43-35-74.5T164-223q-23,0-42.5,4T79-208l17,69q41-11 69-11q26,0 35.5,9t9.5,18q0,8-7.5,14.5T175-102q-7,0-13.5-0.5T147-105L128-73L153,0h77L216-39q40-3 61.5-25.5T299-117Z" />
      <glyph unicode="&#xb9;" glyph-name="uni00B9" horiz-adv-x="220" d="M101,737l105,48h60L206,445H127l44,249l-47-21l-23,64Z" />
      <glyph unicode="&#xba;" glyph-name="ordmasculine" horiz-adv-x="346" d="M370,518l-5-34q-11-72-54-110.5T202,335q-74,0-110.5,47T66,502l5,34q11,71 54,110t110,39q72,0 109-47.5T370,518Zm-80,3q6,41-8.5,65T232,610q-30,0-52-18t-28-56l-6-37q-7-41 9-65t50-24q29,0 51,18.5T284,484l6,37Z" />
      <glyph unicode="&#xbb;" glyph-name="guillemotright" horiz-adv-x="713" d="M342,206L12,14L33,138L237,251L73,366L94,478L355,283l-13-77Zm320,0L332,14l21,124L557,251L393,366l21,112L675,283l-13-77Z" />
      <glyph unicode="&#xbc;" glyph-name="onequarter" horiz-adv-x="631" d="M83,632l105,48h60L188,340H109l44,249l-47-21L83,632Zm413,48h94L145,0H51L496,680ZM588,67H554L542,0H469l12,67H338l11,64q43,52 80.5,104.5T495,340h85Q524,236 438,136h55l8,46h73l-8-46h34L588,67Z" />
      <glyph unicode="&#xbd;" glyph-name="onehalf" horiz-adv-x="670" d="M83,632l105,48h60L188,340H109l44,249l-47-21L83,632Zm413,48h94L145,0H51L496,680ZM612,73L599,0H378l12,68q10,55 33.5,79.5T486,188l37,15q21,8 30,17t10,20l1,3q5,27-38,27q-18,0-38-5t-47-14l-13,71q31,13 57,18t50,5q46,0 70.5-14t33-36.5T643,246l-1-9q-4-32-26-56.5T549,138l-37-15q-21-8-30-20.5T470,73H612Z" />
      <glyph unicode="&#xbe;" glyph-name="threequarters" horiz-adv-x="671" d="M273,425q-7-40-36-65t-95-25q-25,0-51,5T42,356l23,70q21-8 40-11.5t37-3.5q49,0 55,29l1,7q2,14-7,23.5T161,480H110l11,64h51q40,0 45,30l1,7q6,29-40,29q-15,0-33-3.5T102,595L85,665q30,11 54.5,15.5T186,685q68,0 93-29.5T299,589l-1-7q-3-26-19-44t-40-28q20-11 30.5-29t5.5-44l-2-12ZM536,680h94L185,0H91L536,680ZM628,67H594L582,0H509l12,67H378l11,64q43,52 80.5,104.5T535,340h85Q564,236 478,136h55l8,46h73l-8-46h34L628,67Z" />
      <glyph unicode="&#xbf;" glyph-name="questiondown" horiz-adv-x="464" d="M240,507H361L340,388H219l21,119ZM205-76q33,0 72,9t92,29l29-99q-59-25-109-35.5T192-183q-79,0-125,27T5.5-84T1,15L5,35q9,46 32.5,76T102,177l38,33q25,22 38,36.5T196.5,273t7.5,26l2,9H326l-3-18q-4-26-13.5-47.5t-29-44.5T225,143l-39-34q-32-28-46.5-46T120,21L117,3q-6-34 13-56.5T205-76Z" />
      <glyph unicode="&#xc0;" glyph-name="Agrave" horiz-adv-x="601" d="M416,0L397,133H164L99,0H-25L322,680H428L536,0H416ZM266,341l-48-98H382l-14,98L348,513L266,341Zm71,411L255,872l111,46l67-166H337Z" />
      <glyph unicode="&#xc1;" glyph-name="Aacute" horiz-adv-x="601" d="M416,0L397,133H164L99,0H-25L322,680H428L536,0H416ZM266,341l-48-98H382l-14,98L348,513L266,341ZM439,752H333L458,918l105-46L439,752Z" />
      <glyph unicode="&#xc2;" glyph-name="Acircumflex" horiz-adv-x="601" d="M416,0L397,133H164L99,0H-25L322,680H428L536,0H416ZM266,341l-48-98H382l-14,98L348,513L266,341ZM449,752l-47,80l-75-80H233L357,913H469l68-161H449Z" />
      <glyph unicode="&#xc3;" glyph-name="Atilde" horiz-adv-x="601" d="M416,0L397,133H164L99,0H-25L322,680H428L536,0H416ZM266,341l-48-98H382l-14,98L348,513L266,341ZM457,761q-28,0-45,10.5T384.5,796T366,820.5T348,831q-8,0-15-12t-15-50H237q11,63 28,96.5T304,911t45,12q27,0 44-10.5T420,888t18-24.5T456,853q8,0 15.5,12.5T486,915h81q-10-63-27.5-96.5T501,773t-44-12Z" />
      <glyph unicode="&#xc4;" glyph-name="Adieresis" horiz-adv-x="601" d="M416,0L397,133H164L99,0H-25L322,680H428L536,0H416ZM266,341l-48-98H382l-14,98L348,513L266,341Zm82,441H239l19,107H367L348,782Zm194,0H433l19,107H561L542,782Z" />
      <glyph unicode="&#xc5;" glyph-name="Aring" horiz-adv-x="601" d="M164,133L99,0H-25L298,633q-22,16-31.5,41.5T264,733l3,15q10,47 44,76t86,29q56,0 86.5-34.5T503,732l-3-15q-6-29-22-52t-42-36L536,0H416L397,133H164ZM434,741q5,21-7,33.5T392,787q-22,0-36.5-12.5T336,741l-3-15q-4-21 7-33.5T373,680q23,0 38.5,12.5T431,726l3,15ZM266,341l-48-98H382l-14,98L348,513L266,341Z" />
      <glyph unicode="&#xc6;" glyph-name="AE" horiz-adv-x="843" d="M-44,0L406,680H860L840,565H576L547,402H781L761,287H527L496,115H770L750,0H356l23,133H178L92,0H-44ZM250,243H399l55,315L250,243Z" />
      <glyph unicode="&#xc7;" glyph-name="Ccedilla" horiz-adv-x="538" d="M346-117q0-43-35-74.5T211-223q-23,0-42.5,4T126-208l17,69q41-11 69-11q26,0 35.5,9t9.5,18q0,8-7.5,14.5T222-102q-7,0-13.5-0.5T194-105L175-73L201,3Q122,30 87.5,105T69,280L89,402q23,143 94,215.5T380,690q41,0 82.5-9.5T552,648L507,542q-43,19-73,27t-62,8q-70,0-108.5-49T212,402L192,280q-13-76 11.5-126.5T298,103q25,0 59.5,5T442,128L467,23Q412,4 366-3t-80-7H274L263-39q40-3 61.5-25.5T346-117Z" />
      <glyph unicode="&#xc8;" glyph-name="Egrave" horiz-adv-x="536" d="M463,115L443,0H49L169,680H553L533,565H269L240,402H474L454,287H220L189,115H463ZM322,752L240,872l111,46l67-166H322Z" />
      <glyph unicode="&#xc9;" glyph-name="Eacute" horiz-adv-x="536" d="M463,115L443,0H49L169,680H553L533,565H269L240,402H474L454,287H220L189,115H463ZM424,752H318L443,918l105-46L424,752Z" />
      <glyph unicode="&#xca;" glyph-name="Ecircumflex" horiz-adv-x="536" d="M463,115L443,0H49L169,680H553L533,565H269L240,402H474L454,287H220L189,115H463ZM434,752l-47,80l-75-80H218L342,913H454l68-161H434Z" />
      <glyph unicode="&#xcb;" glyph-name="Edieresis" horiz-adv-x="536" d="M463,115L443,0H49L169,680H553L533,565H269L240,402H474L454,287H220L189,115H463ZM334,782H225l19,107H353L334,782Zm194,0H419l19,107H547L528,782Z" />
      <glyph unicode="&#xcc;" glyph-name="Igrave" horiz-adv-x="308" d="M169,0H49L169,680H289L169,0Zm21,752L108,872l111,46l67-166H190Z" />
      <glyph unicode="&#xcd;" glyph-name="Iacute" horiz-adv-x="308" d="M169,0H49L169,680H289L169,0ZM292,752H186L311,918l105-46L292,752Z" />
      <glyph unicode="&#xce;" glyph-name="Icircumflex" horiz-adv-x="308" d="M169,0H49L169,680H289L169,0ZM302,752l-47,80l-75-80H86L210,913H322l68-161H302Z" />
      <glyph unicode="&#xcf;" glyph-name="Idieresis" horiz-adv-x="308" d="M169,0H49L169,680H289L169,0Zm33,782H93l19,107H221L202,782Zm194,0H287l19,107H415L396,782Z" />
      <glyph unicode="&#xd0;" glyph-name="Eth" horiz-adv-x="648" d="M46,399h82l50,281H388q81,0 135.5-36.5t77-99T609,402L587,279Q564,147 493,73.5T299,0H58l51,290H27L46,399ZM349,290H229L198,115H305q68,0 106.5,42.5T464,279l22,123q14,74-11.5,118.5T380,565H278L248,399H368L349,290Z" />
      <glyph unicode="&#xd1;" glyph-name="Ntilde" horiz-adv-x="683" d="M49,0L169,680H279q43-87 77-162.5t63.5-150T477,209l26,211l46,260H664L544,0H434q-43,140-89.5,261.5T244,501L210,260L164,0H49ZM498,761q-28,0-45,10.5T425.5,796T407,820.5T389,831q-8,0-15-12t-15-50H278q11,63 28,96.5T345,911t45,12q27,0 44-10.5T461,888t18-24.5T497,853q8,0 15.5,12.5T527,915h81q-10-63-27.5-96.5T542,773t-44-12Z" />
      <glyph unicode="&#xd2;" glyph-name="Ograve" horiz-adv-x="640" d="M601,402L579,279Q554,143 484,66.5T291-10q-81,0-136,37T77,129.5T69,279L91,402q24,134 94.5,211T380,690q81,0 135.5-37.5T593,550t8-148Zm-123,0q14,79-11.5,127T372,577q-66,0-105-47T214,402L192,279q-14-82 11.5-129T297,103t106,46t53,130l22,123ZM356,752L274,872l111,46l67-166H356Z" />
      <glyph unicode="&#xd3;" glyph-name="Oacute" horiz-adv-x="640" d="M601,402L579,279Q554,143 484,66.5T291-10q-81,0-136,37T77,129.5T69,279L91,402q24,134 94.5,211T380,690q81,0 135.5-37.5T593,550t8-148Zm-123,0q14,79-11.5,127T372,577q-66,0-105-47T214,402L192,279q-14-82 11.5-129T297,103t106,46t53,130l22,123ZM458,752H352L477,918l105-46L458,752Z" />
      <glyph unicode="&#xd4;" glyph-name="Ocircumflex" horiz-adv-x="640" d="M601,402L579,279Q554,143 484,66.5T291-10q-81,0-136,37T77,129.5T69,279L91,402q24,134 94.5,211T380,690q81,0 135.5-37.5T593,550t8-148Zm-123,0q14,79-11.5,127T372,577q-66,0-105-47T214,402L192,279q-14-82 11.5-129T297,103t106,46t53,130l22,123ZM468,752l-47,80l-75-80H252L376,913H488l68-161H468Z" />
      <glyph unicode="&#xd5;" glyph-name="Otilde" horiz-adv-x="640" d="M601,402L579,279Q554,143 484,66.5T291-10q-81,0-136,37T77,129.5T69,279L91,402q24,134 94.5,211T380,690q81,0 135.5-37.5T593,550t8-148Zm-123,0q14,79-11.5,127T372,577q-66,0-105-47T214,402L192,279q-14-82 11.5-129T297,103t106,46t53,130l22,123Zm-2,359q-28,0-45,10.5T403.5,796T385,820.5T367,831q-8,0-15-12t-15-50H256q11,63 28,96.5T323,911t45,12q27,0 44-10.5T439,888t18-24.5T475,853q8,0 15.5,12.5T505,915h81q-10-63-27.5-96.5T520,773t-44-12Z" />
      <glyph unicode="&#xd6;" glyph-name="Odieresis" horiz-adv-x="640" d="M601,402L579,279Q554,143 484,66.5T291-10q-81,0-136,37T77,129.5T69,279L91,402q24,134 94.5,211T380,690q81,0 135.5-37.5T593,550t8-148Zm-123,0q14,79-11.5,127T372,577q-66,0-105-47T214,402L192,279q-14-82 11.5-129T297,103t106,46t53,130l22,123ZM368,782H259l19,107H387L368,782Zm194,0H453l19,107H581L562,782Z" />
      <glyph unicode="&#xd7;" glyph-name="multiply" horiz-adv-x="588" d="M412,110L297,244L132,101L70,176L234,319L119,454l79,67L312,386L477,530l62-76L375,312L490,176l-78-66Z" />
      <glyph unicode="&#xd8;" glyph-name="Oslash" horiz-adv-x="641" d="M291-10q-76,0-129,32L125-30H16L98,85q-24,38-31.5,87T69,279L91,402q24,134 94.5,211T380,690q38,0 70.5-8.5T509,657l38,53H656L572,593q24-37 32-86t-3-105L579,279Q554,143 484,66.5T291-10ZM192,279q-4-19-5-37t0-33L439,559q-25,18-67,18q-66,0-105-47T214,402L192,279ZM478,402q3,18 4.5,35t0.5,32L232,119q27-16 65-16q68,0 106,46t53,130l22,123Z" />
      <glyph unicode="&#xd9;" glyph-name="Ugrave" horiz-adv-x="646" d="M153,680H276L199,244q-11-65 11-103t86-38t100,37.5T443,244l77,436H643L566,244q-13-75-44.5-132.5T434.5,22T292-10q-81,0-133.5,32.5T84.5,112T76,244l77,436Zm206,72L277,872l111,46l67-166H359Z" />
      <glyph unicode="&#xda;" glyph-name="Uacute" horiz-adv-x="646" d="M153,680H276L199,244q-11-65 11-103t86-38t100,37.5T443,244l77,436H643L566,244q-13-75-44.5-132.5T434.5,22T292-10q-81,0-133.5,32.5T84.5,112T76,244l77,436Zm308,72H355L480,918l105-46L461,752Z" />
      <glyph unicode="&#xdb;" glyph-name="Ucircumflex" horiz-adv-x="646" d="M153,680H276L199,244q-11-65 11-103t86-38t100,37.5T443,244l77,436H643L566,244q-13-75-44.5-132.5T434.5,22T292-10q-81,0-133.5,32.5T84.5,112T76,244l77,436Zm318,72l-47,80l-75-80H255L379,913H491l68-161H471Z" />
      <glyph unicode="&#xdc;" glyph-name="Udieresis" horiz-adv-x="646" d="M153,680H276L199,244q-11-65 11-103t86-38t100,37.5T443,244l77,436H643L566,244q-13-75-44.5-132.5T434.5,22T292-10q-81,0-133.5,32.5T84.5,112T76,244l77,436ZM371,782H262l19,107H390L371,782Zm194,0H456l19,107H584L565,782Z" />
      <glyph unicode="&#xdd;" glyph-name="Yacute" horiz-adv-x="544" d="M616,680L337,274L288,0H168l48,271L78,680H202l93-289L485,680H616ZM410,752H304L429,918l105-46L410,752Z" />
      <glyph unicode="&#xde;" glyph-name="Thorn" horiz-adv-x="575" d="M307,118H190L169,0H49L169,680H289L269,568h91q107,0 156-57.5T550,358l-9-56q-13-84-70.5-134T307,118Zm46,335H249L210,233H314q44,0 71.5,19.5T419,307l9,53q8,44-11.5,68.5T353,453Z" />
      <glyph unicode="&#xdf;" glyph-name="germandbls" horiz-adv-x="634" d="M588,161q0-44-19.5-83.5T507,14T397-10q-28,0-67,6.5T251,22l30,98q37-18 67.5-24.5T398,89q38,0 56.5,19.5T473,150q0,14-7.5,31T438,216l-34,32q-29,28-45.5,56.5T342,367q0,35 14,65.5t33,58T422,543t14,49q0,27-20,38.5T364,642q-38,0-63-17.5T268,560L169,0H54l72,407H44L61,507h83l9,53q16,89 66,139.5T369,750q49,0 90.5-14.5t67-46.5T552,606q0-39-14-70.5T505,478t-33-48t-14-41q0-16 9.5-31T499,321l34-33q55-54 55-127Z" />
      <glyph unicode="&#xe0;" glyph-name="agrave" horiz-adv-x="558" d="M465-5q-55,0-81.5,23.5T349,76Q295,24 252,7T176-10q-49,0-81,31.5t-43.5,87T51,236l7,44q19,116 76.5,176.5T295,517q58,0 113.5-17T511,452L457,143q-2-15 4.5-28.5T491,101h12L484-5H465ZM169,236q-11-72 2-105.5T215,97q26,0 59.5,20.5T351,192l35,202q-41,20-81,20q-56,0-87.5-36T176,280l-7-44ZM283,579L201,699l111,46l67-166H283Z" />
      <glyph unicode="&#xe1;" glyph-name="aacute" horiz-adv-x="558" d="M465-5q-55,0-81.5,23.5T349,76Q295,24 252,7T176-10q-49,0-81,31.5t-43.5,87T51,236l7,44q19,116 76.5,176.5T295,517q58,0 113.5-17T511,452L457,143q-2-15 4.5-28.5T491,101h12L484-5H465ZM169,236q-11-72 2-105.5T215,97q26,0 59.5,20.5T351,192l35,202q-41,20-81,20q-56,0-87.5-36T176,280l-7-44ZM385,579H279L404,745l105-46L385,579Z" />
      <glyph unicode="&#xe2;" glyph-name="acircumflex" horiz-adv-x="558" d="M465-5q-55,0-81.5,23.5T349,76Q295,24 252,7T176-10q-49,0-81,31.5t-43.5,87T51,236l7,44q19,116 76.5,176.5T295,517q58,0 113.5-17T511,452L457,143q-2-15 4.5-28.5T491,101h12L484-5H465ZM169,236q-11-72 2-105.5T215,97q26,0 59.5,20.5T351,192l35,202q-41,20-81,20q-56,0-87.5-36T176,280l-7-44ZM395,579l-47,80l-75-80H179L303,740H415l68-161H395Z" />
      <glyph unicode="&#xe3;" glyph-name="atilde" horiz-adv-x="558" d="M465-5q-55,0-81.5,23.5T349,76Q295,24 252,7T176-10q-49,0-81,31.5t-43.5,87T51,236l7,44q19,116 76.5,176.5T295,517q58,0 113.5-17T511,452L457,143q-2-15 4.5-28.5T491,101h12L484-5H465ZM169,236q-11-72 2-105.5T215,97q26,0 59.5,20.5T351,192l35,202q-41,20-81,20q-56,0-87.5-36T176,280l-7-44ZM403,588q-28,0-45,10.5T330.5,623T312,647.5T294,658q-8,0-15-12t-15-50H183q11,63 28,96.5T250,738t45,12q27,0 44-10.5T366,715t18-24.5T402,680q8,0 15.5,12.5T432,742h81q-10-63-27.5-96.5T447,600t-44-12Z" />
      <glyph unicode="&#xe4;" glyph-name="adieresis" horiz-adv-x="558" d="M465-5q-55,0-81.5,23.5T349,76Q295,24 252,7T176-10q-49,0-81,31.5t-43.5,87T51,236l7,44q19,116 76.5,176.5T295,517q58,0 113.5-17T511,452L457,143q-2-15 4.5-28.5T491,101h12L484-5H465ZM169,236q-11-72 2-105.5T215,97q26,0 59.5,20.5T351,192l35,202q-41,20-81,20q-56,0-87.5-36T176,280l-7-44ZM294,609H185l19,107H313L294,609Zm194,0H379l19,107H507L488,609Z" />
      <glyph unicode="&#xe5;" glyph-name="aring" horiz-adv-x="558" d="M465-5q-55,0-81.5,23.5T349,76Q295,24 252,7T176-10q-49,0-81,31.5t-43.5,87T51,236l7,44q19,116 76.5,176.5T295,517q58,0 113.5-17T511,452L457,143q-2-15 4.5-28.5T491,101h12L484-5H465ZM169,236q-11-72 2-105.5T215,97q26,0 59.5,20.5T351,192l35,202q-41,20-81,20q-56,0-87.5-36T176,280l-7-44ZM471,682l-3-15q-9-46-43.5-75T337,563q-55,0-85,33.5T232,683l3,15q10,47 44,76t86,29q56,0 86.5-34.5T471,682Zm-69,9q5,21-7,33.5T360,737q-22,0-36.5-12.5T304,691l-3-15q-4-21 7-33.5T341,630q23,0 38.5,12.5T399,676l3,15Z" />
      <glyph unicode="&#xe6;" glyph-name="ae" horiz-adv-x="798" d="M700,24Q645,3 604-3.5T530-10q-72,0-120,26T339,88q-49-52-94.5-75T149-10Q85-10 51.5,25.5T18,122q0,41 16,79.5T90.5,265T203,290q59,0 128-11l8,43q9,49-18.5,69T249,411q-22,0-55-5t-72-18L95,486q51,17 91,24t72,7q65,0 101-22.5T411,436q29,39 71,60t94,21q42,0 84-17t70-54.5T758,346q0-65-39-128H430q-7-61 19-92.5T541,94q22,0 59,6t84,22l16-98ZM566,417q-94,0-120-111H638q7,21 7,40q0,35-22,53t-57,18ZM132,134q0-48 43-48q26,0 60.5,15T319,168v28q-31,5-61,7.5T206,206q-43,0-58.5-23T132,134Z" />
      <glyph unicode="&#xe7;" glyph-name="ccedilla" horiz-adv-x="450" d="M306-117q0-43-35-74.5T171-223q-23,0-42.5,4T86-208l17,69q41-11 69-11q26,0 35.5,9t9.5,18q0,8-7.5,14.5T182-102q-7,0-13.5-0.5T154-105L135-73L160,1Q92,24 63,87T50,242l9,52q20,111 81.5,167T292,517q69,0 149-34l-38-99q-63,27-110,27q-46,0-78-29.5T172,294l-11-60Q136,96 251,96q24,0 50.5,5.5T366,120l17-99Q337,4 302.5-3T237-10h-4L223-39q40-3 61.5-25.5T306-117Z" />
      <glyph unicode="&#xe8;" glyph-name="egrave" horiz-adv-x="522" d="M424,24Q369,3 327.5-3.5T250-10Q134-10 81.5,58.5T48,242l9,52q18,102 81,162.5T294,517q49,0 91.5-17T455,445.5T482,346q0-65-39-128H154q-7-61 19-92.5T265,94q22,0 59,6t84,22l16-98ZM290,417q-94,0-120-111H365q7,21 7,40q0,35-22.5,53T290,417ZM272,579L190,699l111,46l67-166H272Z" />
      <glyph unicode="&#xe9;" glyph-name="eacute" horiz-adv-x="522" d="M424,24Q369,3 327.5-3.5T250-10Q134-10 81.5,58.5T48,242l9,52q18,102 81,162.5T294,517q49,0 91.5-17T455,445.5T482,346q0-65-39-128H154q-7-61 19-92.5T265,94q22,0 59,6t84,22l16-98ZM290,417q-94,0-120-111H365q7,21 7,40q0,35-22.5,53T290,417Zm84,162H268L393,745l105-46L374,579Z" />
      <glyph unicode="&#xea;" glyph-name="ecircumflex" horiz-adv-x="522" d="M424,24Q369,3 327.5-3.5T250-10Q134-10 81.5,58.5T48,242l9,52q18,102 81,162.5T294,517q49,0 91.5-17T455,445.5T482,346q0-65-39-128H154q-7-61 19-92.5T265,94q22,0 59,6t84,22l16-98ZM290,417q-94,0-120-111H365q7,21 7,40q0,35-22.5,53T290,417Zm94,162l-47,80l-75-80H168L292,740H404l68-161H384Z" />
      <glyph unicode="&#xeb;" glyph-name="edieresis" horiz-adv-x="522" d="M424,24Q369,3 327.5-3.5T250-10Q134-10 81.5,58.5T48,242l9,52q18,102 81,162.5T294,517q49,0 91.5-17T455,445.5T482,346q0-65-39-128H154q-7-61 19-92.5T265,94q22,0 59,6t84,22l16-98ZM290,417q-94,0-120-111H365q7,21 7,40q0,35-22.5,53T290,417Zm-7,192H174l19,107H302L283,609Zm194,0H368l19,107H496L477,609Z" />
      <glyph unicode="&#xec;" glyph-name="igrave" horiz-adv-x="273" d="M149,0H34l89,507H238L149,0Zm-4,579L63,699l111,46l67-166H145Z" />
      <glyph unicode="&#xed;" glyph-name="iacute" horiz-adv-x="273" d="M149,0H34l89,507H238L149,0Zm98,579H141L266,745l105-46L247,579Z" />
      <glyph unicode="&#xee;" glyph-name="icircumflex" horiz-adv-x="273" d="M149,0H34l89,507H238L149,0ZM257,579l-47,80l-75-80H41L165,740H277l68-161H257Z" />
      <glyph unicode="&#xef;" glyph-name="idieresis" horiz-adv-x="273" d="M149,0H34l89,507H238L149,0Zm7,609H47L66,716H175L156,609Zm194,0H241l19,107H369L350,609Z" />
      <glyph unicode="&#xf0;" glyph-name="eth" horiz-adv-x="536" d="M486,244Q464,118 395,54T222-10q-61,0-107,28T48,99T39,226l5,30q10,61 39,100.5T153.5,416T240,436q40,0 79-19.5T383,351q2,52-10.5,100.5T331,543L177,458l17,101l84,46q-16,16-35,31t-41,29l59,85q33-22 61.5-45T373,657l169,93L525,649L424,594q53-78 67-159t2-151l-7-40ZM153,209q-8-50 13-83t67-33q45,0 79.5,34T365,234q-19,49-50.5,72T250,329q-32,0-58-23.5T158,239l-5-30Z" />
      <glyph unicode="&#xf1;" glyph-name="ntilde" horiz-adv-x="584" d="M361,410q-24,0-61-18.5T204,314L149,0H34l89,507H232l-15-86q57,58 101.5,77T400,517q51,0 81.5-24.5T523,425t1-97L466,0H351l57,326q16,84-47,84Zm67,178q-28,0-45,10.5T355.5,623T337,647.5T319,658q-8,0-15-12t-15-50H208q11,63 28,96.5T275,738t45,12q27,0 44-10.5T391,715t18-24.5T427,680q8,0 15.5,12.5T457,742h81q-10-63-27.5-96.5T472,600t-44-12Z" />
      <glyph unicode="&#xf2;" glyph-name="ograve" horiz-adv-x="545" d="M496,266l-8-52Q472,106 408.5,48T247-10q-71,0-119.5,32.5T58.5,112T49,242l8,52q17,107 79,165t161,58q72,0 120-32.5t69-89T496,266Zm-117,5q11,65-11.5,104T293,414q-43,0-75.5-29.5T175,294l-9-57q-10-65 13-104.5T252,93q44,0 76,30.5T370,214l9,57ZM272,579L190,699l111,46l67-166H272Z" />
      <glyph unicode="&#xf3;" glyph-name="oacute" horiz-adv-x="545" d="M496,266l-8-52Q472,106 408.5,48T247-10q-71,0-119.5,32.5T58.5,112T49,242l8,52q17,107 79,165t161,58q72,0 120-32.5t69-89T496,266Zm-117,5q11,65-11.5,104T293,414q-43,0-75.5-29.5T175,294l-9-57q-10-65 13-104.5T252,93q44,0 76,30.5T370,214l9,57Zm-5,308H268L393,745l105-46L374,579Z" />
      <glyph unicode="&#xf4;" glyph-name="ocircumflex" horiz-adv-x="545" d="M496,266l-8-52Q472,106 408.5,48T247-10q-71,0-119.5,32.5T58.5,112T49,242l8,52q17,107 79,165t161,58q72,0 120-32.5t69-89T496,266Zm-117,5q11,65-11.5,104T293,414q-43,0-75.5-29.5T175,294l-9-57q-10-65 13-104.5T252,93q44,0 76,30.5T370,214l9,57Zm5,308l-47,80l-75-80H168L292,740H404l68-161H384Z" />
      <glyph unicode="&#xf5;" glyph-name="otilde" horiz-adv-x="545" d="M496,266l-8-52Q472,106 408.5,48T247-10q-71,0-119.5,32.5T58.5,112T49,242l8,52q17,107 79,165t161,58q72,0 120-32.5t69-89T496,266Zm-117,5q11,65-11.5,104T293,414q-43,0-75.5-29.5T175,294l-9-57q-10-65 13-104.5T252,93q44,0 76,30.5T370,214l9,57Zm13,317q-28,0-45,10.5T319.5,623T301,647.5T283,658q-8,0-15-12t-15-50H172q11,63 28,96.5T239,738t45,12q27,0 44-10.5T355,715t18-24.5T391,680q8,0 15.5,12.5T421,742h81q-10-63-27.5-96.5T436,600t-44-12Z" />
      <glyph unicode="&#xf6;" glyph-name="odieresis" horiz-adv-x="545" d="M496,266l-8-52Q472,106 408.5,48T247-10q-71,0-119.5,32.5T58.5,112T49,242l8,52q17,107 79,165t161,58q72,0 120-32.5t69-89T496,266Zm-117,5q11,65-11.5,104T293,414q-43,0-75.5-29.5T175,294l-9-57q-10-65 13-104.5T252,93q44,0 76,30.5T370,214l9,57ZM284,609H175l19,107H303L284,609Zm194,0H369l19,107H497L478,609Z" />
      <glyph unicode="&#xf7;" glyph-name="divide" horiz-adv-x="588" d="M389,447H268l21,119H410L389,447ZM89,265l17,100H520L503,265H89ZM320,59H199l21,119H341L320,59Z" />
      <glyph unicode="&#xf8;" glyph-name="oslash" horiz-adv-x="545" d="M247-10q-62,0-108,26L104-30H1L79,71Q34,139 49,242l8,52q17,107 79,165t161,58q63,0 109-26l36,46H545L466,436q45-69 30-170l-8-52Q472,106 408.5,48T247-10ZM166,237q-2-16-2.5-30t0.5-28L338,404q-9,5-20,7.5T293,414q-43,0-75.5-29.5T175,294l-9-57Zm213,34q5,30 3,56L208,104q19-11 44-11q44,0 76,30.5T370,214l9,57Z" />
      <glyph unicode="&#xf9;" glyph-name="ugrave" horiz-adv-x="570" d="M337,0l15,86Q297,29 254,9.5T176-10q-48,0-77.5,25T59,82.5T59,179l58,328H232L175,181q-7-43 4-63.5T215,97q23,0 57.5,19T365,193l55,314H535L446,0H337ZM289,579L207,699l111,46l67-166H289Z" />
      <glyph unicode="&#xfa;" glyph-name="uacute" horiz-adv-x="570" d="M337,0l15,86Q297,29 254,9.5T176-10q-48,0-77.5,25T59,82.5T59,179l58,328H232L175,181q-7-43 4-63.5T215,97q23,0 57.5,19T365,193l55,314H535L446,0H337Zm54,579H285L410,745l105-46L391,579Z" />
      <glyph unicode="&#xfb;" glyph-name="ucircumflex" horiz-adv-x="570" d="M337,0l15,86Q297,29 254,9.5T176-10q-48,0-77.5,25T59,82.5T59,179l58,328H232L175,181q-7-43 4-63.5T215,97q23,0 57.5,19T365,193l55,314H535L446,0H337Zm64,579l-47,80l-75-80H185L309,740H421l68-161H401Z" />
      <glyph unicode="&#xfc;" glyph-name="udieresis" horiz-adv-x="570" d="M337,0l15,86Q297,29 254,9.5T176-10q-48,0-77.5,25T59,82.5T59,179l58,328H232L175,181q-7-43 4-63.5T215,97q23,0 57.5,19T365,193l55,314H535L446,0H337ZM300,609H191l19,107H319L300,609Zm194,0H385l19,107H513L494,609Z" />
      <glyph unicode="&#xfd;" glyph-name="yacute" horiz-adv-x="499" d="M230-50q-49-92-107.5-132.5T-24-223L-4-108q39,3 63,10.5T100.5-73T135-25L151,5L61,507H175l43-253l15-105l51,105L411,507H526L257,0L230-50ZM360,579H254L379,745l105-46L360,579Z" />
      <glyph unicode="&#xfe;" glyph-name="thorn" horiz-adv-x="564" d="M264-10q-31,0-59,6.5T151,14L111-213H-4L164,740H279L224,430q53,53 92,70t70,17q50,0 82-31.5T512,399t0-128l-7-44Q487,112 428,51T264-10Zm80,420q-26,0-60.5-25T201,300L169,115q23-12 44-17t41-5q59,0 91,36.5T387,227l7,44q12,72-1.5,105.5T344,410Z" />
      <glyph unicode="&#xff;" glyph-name="ydieresis" horiz-adv-x="499" d="M230-50q-49-92-107.5-132.5T-24-223L-4-108q39,3 63,10.5T100.5-73T135-25L151,5L61,507H175l43-253l15-105l51,105L411,507H526L257,0L230-50Zm39,659H160l19,107H288L269,609Zm194,0H354l19,107H482L463,609Z" />
      <glyph unicode="&#x2013;" glyph-name="endash" horiz-adv-x="604" d="M52,265L69,365H573L556,265H52Z" />
      <glyph unicode="&#x2014;" glyph-name="emdash" horiz-adv-x="804" d="M52,265L69,365H773L756,265H52Z" />
      <glyph unicode="&#x2018;" glyph-name="quoteleft" horiz-adv-x="211" d="M55,388l3,19q14,74 46.5,139.5T200,690l65-39q-29-49-47-87t-29.5-78.5T167,388H55Z" />
      <glyph unicode="&#x2019;" glyph-name="quoteright" horiz-adv-x="211" d="M255,680l-3-19q-13-73-46-139T110,378L45,417q30,49 47.5,87t29,79T143,680H255Z" />
      <glyph unicode="&#x201a;" glyph-name="quotesinglbase" horiz-adv-x="211" d="M138,119l-3-19Q122,27 89-39T-7-183l-65,39q30,49 47.5,87t29,78.5T26,119H138Z" />
      <glyph unicode="&#x201c;" glyph-name="quotedblleft" horiz-adv-x="396" d="M240,388l3,19q14,74 46.5,139.5T385,690l65-39q-29-49-47-87t-29.5-78.5T352,388H240ZM55,388l3,19q14,74 46.5,139.5T200,690l65-39q-29-49-47-87t-29.5-78.5T167,388H55Z" />
      <glyph unicode="&#x201d;" glyph-name="quotedblright" horiz-adv-x="396" d="M255,680l-3-19q-13-73-46-139T110,378L45,417q30,49 47.5,87t29,79T143,680H255Zm185,0l-3-19q-13-73-46-139T295,378l-65,39q30,49 47.5,87t29,79T328,680H440Z" />
      <glyph unicode="&#x201e;" glyph-name="quotedblbase" horiz-adv-x="396" d="M138,119l-3-19Q122,27 89-39T-7-183l-65,39q30,49 47.5,87t29,78.5T26,119H138Zm185,0l-3-19Q307,27 274-39T178-183l-65,39q30,49 47.5,87t29,78.5T211,119H323Z" />
      <glyph unicode="&#x2022;" glyph-name="bullet" horiz-adv-x="243" d="M195,262H50L75,405H220L195,262Z" />
      <glyph unicode="&#x2039;" glyph-name="guilsinglleft" horiz-adv-x="392" d="M316,126L295,14L34,209l13,77L377,478L356,354L152,241L316,126Z" />
      <glyph unicode="&#x203a;" glyph-name="guilsinglright" horiz-adv-x="393" d="M342,206L12,14L33,138L237,251L73,366L94,478L355,283l-13-77Z" />
    </font>
</defs>
</svg>
