<?xml version="1.0" standalone="no"?>
<!DOCTYPE svg PUBLIC "-//W3C//DTD SVG 1.1//EN" "http://www.w3.org/Graphics/SVG/1.1/DTD/svg11.dtd">
<svg xmlns="http://www.w3.org/2000/svg">
  <defs>
    <font id="InriaSerif" horiz-adv-x="571">
      <font-face font-family="Inria Serif" units-per-em="1000" panose-1="0 0 0 0 0 0 0 0 0 0" ascent="976" descent="-223" alphabetic="0" />
      <glyph unicode=" " glyph-name="space" horiz-adv-x="227" />
      <glyph unicode="!" glyph-name="exclam" horiz-adv-x="258" d="M145,184H114q0,71-2.5,123T105,401t-8,83t-6.5,87.5T88,680h82q0-62-2.5-108.5t-6-87.5T154,401t-6.5-94T145,184ZM128-10Q103-10 87.5,6T72,47T87.5,87.5T128,103q26,0 42-15.5T186,47T170,6T128-10Z" />
      <glyph unicode="&quot;" glyph-name="quotedbl" horiz-adv-x="426" d="M142,438H116q0,51-5.5,81.5t-12,49t-12,33T81,634q0,26 13.5,41T129,690q20,0 34-15t14-41q0-18-5.5-32.5t-12-33t-12-49T142,438Zm168,0H283q0,51-5,81.5t-12,49t-12,33T249,634q0,26 13.5,41T297,690q20,0 33.5-15T344,634q0-18-5-32.5t-12-33t-12-49T310,438Z" />
      <glyph unicode="#" glyph-name="numbersign" horiz-adv-x="645" d="M551,211H432L364-10L330,0l65,211H170L102-10L68,0l65,211H25v32H143l60,193H94v32H212l69,222l34-11L250,468H474l69,222l34-11L512,468H620V436H502L442,243H551V211ZM180,243H405l60,193H240L180,243Z" />
      <glyph unicode="$" glyph-name="dollar" horiz-adv-x="548" d="M493,178q0-76-50.5-129.5T288-10V-125H253V-10Q204-8 160.5,9.5T86,65.5T45,169l60,20q5-61 26-97t53.5-51.5T253,23V301l-41,12q-76,21-116,71T56,506q0,47 21,88t64.5,67.5T253,690V805h35V689q72-4 116-34t60.5-75.5T472,483l-84-18q11,84-13.5,133.5T288,656V384l38-11q167-46 167-195ZM130,531q0-49 27.5-83.5T253,394V658q-57-2-90-35t-33-92ZM420,152q0,51-30,85.5T288,291V23q59,4 95.5,36.5T420,152Z" />
      <glyph unicode="%" glyph-name="percent" horiz-adv-x="719" d="M314,546V515q0-37-16.5-69t-47-51.5T176,375q-43,0-74,19.5T55,446T39,515v31q0,37 16,68.5t47,51T176,685q44,0 74.5-19.5t47-51T314,546ZM532,680l26-17L184,0L157,16L532,680ZM251,567q0,43-20,69t-55,26t-54-26t-19-69V494q0-44 19-70t54-26t55,26t20,70v73ZM679,166V135q0-37-16.5-69t-47-51.5T541-5q-43,0-74,19.5T420,66t-16,69v31q0,37 16,68.5t47,51T541,305q44,0 74.5-19.5t47-51T679,166Zm-63,21q0,43-20,69t-55,26t-54-26t-19-69V114q0-44 19-70t54-26t55,26t20,70v73Z" />
      <glyph unicode="&amp;" glyph-name="ampersand" horiz-adv-x="619" d="M253,22q51,0 83,30.5T373.5,132T350,236l65,41L538,69q16-28 23-32.5T584,30l49-5V0H487L407,139q-1-61-42.5-105T246-10q-85,0-140,40.5T51,147q0,63 43.5,110.5T217,353l11,7q-70,39-104,83T90,536q0,39 21,74.5T171.5,668T264,690q55,0 93.5-21.5T417,612t21-76q0-40-18.5-70t-50-53.5T300,365l-56-36q-49-31-77.5-73.5T138,151q0-69 34.5-99T253,22ZM177,541q0-37 15-79.5T256,378l19,13q37,23 56.5,59T351,538q0,61-24,90.5T265,658t-63-27.5T177,541Z" />
      <glyph unicode="&apos;" glyph-name="quotesingle" horiz-adv-x="258" d="M142,438H116q0,51-5.5,81.5t-12,49t-12,33T81,634q0,26 13.5,41T129,690q20,0 34-15t14-41q0-18-5.5-32.5t-12-33t-12-49T142,438Z" />
      <glyph unicode="(" glyph-name="parenleft" horiz-adv-x="336" d="M71,280v37q0,125 55.5,232T293,750l23-24q-86-81-121.5-187T159,317V280q0-115 35.5-221.5T316-129l-23-24Q182-59 126.5,48.5T71,280Z" />
      <glyph unicode=")" glyph-name="parenright" horiz-adv-x="336" d="M265,317V280q0-124-55.5-231.5T43-153L20-129Q106-48 141,58.5T176,280v37q0,116-35,222T20,726l23,24q111-94 166.5-201T265,317Z" />
      <glyph unicode="*" glyph-name="asterisk" horiz-adv-x="444" d="M49,581q27-9 44-18t31.5-18.5t34-19.5T209,504q0,33-3.5,54T197,596.5T188.5,633T185,680h73q0-28-3.5-47t-8-36.5t-8-38.5T235,504q31,10 50,20t33.5,19.5t31.5,19T394,581l23-70q-27-9-46-11.5t-37-3T294.5,493T242,480q19-27 34.5-42T306,412t28-24.5T364,351l-59-42q-16,23-24.5,40T266,382.5t-16,36T221,464q-19-26-28.5-45.5t-16-36T162,349t-25-40L78,352q17,23 31,36t27.5,24T166,438.5T201,480q-31,10-52.5,13.5t-39.5,4t-37,3T26,512l23,69Z" />
      <glyph unicode="+" glyph-name="plus" horiz-adv-x="588" d="M501,317H311V123H276V317H87v33H276V545h35V350H501V317Z" />
      <glyph unicode="," glyph-name="comma" horiz-adv-x="258" d="M184,33q0-45-29.5-105T73-193L51-175q41,50 59,91.5T130-10h-1Q105-10 90,5T75,44T90,83t39,15t39.5-16.5T184,33Z" />
      <glyph unicode="-" glyph-name="hyphen" horiz-adv-x="404" d="M70,317v35H334V317H70Z" />
      <glyph unicode="." glyph-name="period" horiz-adv-x="258" d="M128-10Q103-10 87.5,6T72,47T87.5,87.5T128,103q26,0 42-15.5T186,47T170,6T128-10Z" />
      <glyph unicode="/" glyph-name="slash" horiz-adv-x="379" d="M328,740l36-15L18-143l-35,15L328,740Z" />
      <glyph unicode="0" glyph-name="zero" horiz-adv-x="614" d="M539,372V309q0-96-27-168T433,29.5T307-10q-75,0-126.5,39.5T102,141T75,309v63q0,96 27,167.5t78.5,111T307,690q74,0 126-39.5t79-111T539,372Zm-97,70q0,116-35,166T307,658T207,608T172,442V239q0-117 35-167T307,22T407,72t35,167V442Z" />
      <glyph unicode="1" glyph-name="one" horiz-adv-x="353" d="M30,597l132,83h71V81q0-35 3-41t19-8l55-6V0H49V26l75,6q16,1 19,7.5T146,81V632L47,570L30,597Z" />
      <glyph unicode="2" glyph-name="two" horiz-adv-x="539" d="M436,198h26V0H61V53q0,69 23,115t59.5,78.5T222,306q36,24 70,49t56.5,61.5T371,508q0,76-29.5,113T259,658q-69,0-95.5-49.5T147,467L60,483q-10,54 8.5,101T135,660.5T260,690q74,0 120-26t67-68t21-90q0-55-21-92t-55-61t-74-42.5T240,272q-37-19-67.5-45t-50-62.5T99,75H357q35,0 42.5,4.5T411,101l25,97Z" />
      <glyph unicode="3" glyph-name="three" horiz-adv-x="527" d="M210,334H183v32h27q83,0 116.5,42T360,516q0,70-29,106t-82,36q-69,0-95.5-49.5T137,467L50,483q-9,54 9.5,101t66,76.5T250,690q74,0 119.5-24.5t66.5-64T457,516q0-70-42.5-111T292,350q85-13 130.5-58T468,170q0-49-23.5-90t-72-65.5T247-10q-73,0-127.5,34T42,146l63,18q8-55 28.5-86t49-43.5T243,22q128,0 128,148q0,72-36,118T210,334Z" />
      <glyph unicode="4" glyph-name="four" horiz-adv-x="498" d="M305,81v95H16v32q51,54 88,105.5T168,420t47.5,118.5T253,680H359Q319,539 242,427T58,208H305V365l87,14V208h77V176H392V81q0-35 3-41t19-8l55-6V0H208V26l75,6q16,1 19,7.5T305,81Z" />
      <glyph unicode="5" glyph-name="five" horiz-adv-x="511" d="M405,762h26V603H123L111,389q29,20 63.5,30T246,429q99,0 157-60.5T461,207q0-57-22-106.5t-70.5-80T242-10q-69,0-120,34.5T48,146l63,18q12-82 47-112t79-30q62,0 94.5,45.5T364,207q0,83-28.5,135.5T235,395q-34,0-70-12.5T94,339l-20,9L93,680H341q36,0 43.5,3.5T395,706l10,56Z" />
      <glyph unicode="6" glyph-name="six" horiz-adv-x="575" d="M517,191q0-61-27-106.5t-75-70T303-10Q194-10 134.5,70T75,305v63q0,165 61,243.5T300,690q67,0 114.5-27t71-71T503,496l-86-15q8,86-22,131.5T299,658q-36,0-65.5-18.5T187,571T170,427V330q29,37 67.5,53.5T320,400q89,0 143-54t54-145V191ZM170,246q0-85 15.5-134t46-69.5T305,22q54,0 86.5,37.5T424,189v10q0,77-29,120.5T305,363q-36,0-72.5-19T170,280V246Z" />
      <glyph unicode="7" glyph-name="seven" horiz-adv-x="456" d="M52,480H26V680H439V611q-45-58-78-117T306,366T271,208T253,0H147q11,92 29.5,170.5t48,149.5t73,140T401,603H131q-35,0-42-4.5T77,577L52,480Z" />
      <glyph unicode="8" glyph-name="eight" horiz-adv-x="544" d="M488,172q0-79-53-130.5T276-10q-74,0-123,23.5T80,75T56,156q0,55 37,101.5T200,335q-60,29-95,70.5T70,511q0,49 23,89.5t67.5,65T269,690t109.5-22t70-59.5T473,526q0-50-33-88T337,371q74-31 112.5-77.5T488,172ZM264,402l42-18q49,26 66.5,61T390,526q0,66-33,99t-89,33q-53,0-88.5-30.5T144,538q0-50 31-80.5T264,402ZM139,158q0-64 35-100T276,22q66,0 102,32.5T414,148q0,53-28.5,86.5T291,296l-59,25q-46-23-69.5-66.5T139,158Z" />
      <glyph unicode="9" glyph-name="nine" horiz-adv-x="575" d="M500,312q0-165-65.5-243.5T261-10q-68,0-120.5,34T65,146l62,18q8-55 27.5-86t47-43.5T259,22q38,0 71.5,18.5t54,68.5T405,253v79q-29-36-67.5-53T255,262q-59,0-103.5,25t-69,69.5T58,461v26q0,62 27,107.5T160,665t112,25q110,0 169-80t59-235V312ZM151,464q0-76 29-120.5T270,299q37,0 73.5,19T405,383v51q0,85-15.5,134T344,637.5T270,658q-54,0-86.5-37.5T151,491V464Z" />
      <glyph unicode=":" glyph-name="colon" horiz-adv-x="258" d="M128,391q-25,0-40.5,16T72,448t15.5,41T128,505q26,0 42-16t16-41t-16-41t-42-16Zm0-401Q103-10 87.5,6T72,47T87.5,87.5T128,103q26,0 42-15.5T186,47T170,6T128-10Z" />
      <glyph unicode=";" glyph-name="semicolon" horiz-adv-x="258" d="M128,391q-25,0-40.5,16T72,448t15.5,41T128,505q26,0 42-16t16-41t-16-41t-42-16ZM184,33q0-45-29.5-105T73-193L51-175q41,50 59,91.5T130-10h-1Q105-10 90,5T75,44T90,83t39,15t39.5-16.5T184,33Z" />
      <glyph unicode="&lt;" glyph-name="less" horiz-adv-x="588" d="M501,189l-12-32L87,318v28L489,507l12-30L139,333L501,189Z" />
      <glyph unicode="=" glyph-name="equal" horiz-adv-x="588" d="M87,417v33H501V417H87Zm0-200v33H501V217H87Z" />
      <glyph unicode="&gt;" glyph-name="greater" horiz-adv-x="588" d="M501,318L99,157L87,188L449,332L87,476l12,31L501,346V318Z" />
      <glyph unicode="?" glyph-name="question" horiz-adv-x="479" d="M256,184H209v22q0,45 13.5,72.5t33.5,48t40,42t33.5,53T343,505q0,77-28,115t-80,38q-66,0-92-49.5T127,467L45,483q-9,54 8.5,101T117,660.5T236,690q71,0 115-25t64-64.5T435,516q0-46-14.5-76.5t-36.5-52T337.5,349t-45-35.5t-32-43.5T253,207l3-23ZM231-10q-25,0-40.5,16T175,47t15.5,40.5T231,103t41-15.5T288,47T272,6T231-10Z" />
      <glyph unicode="@" glyph-name="at" horiz-adv-x="965" d="M741-167q-55-28-123.5-42T487-223q-97,0-175,32.5t-134,91T92,39T62,214q0,101 32,187.5t90.5,151t139,101T500,690q88,0 162-31.5T791,571t85-131t30-162q0-79-27.5-142.5T803.5,35T695-2q-48,0-81.5,24.5T572,93q-34-53-71.5-76.5T422-7q-53,0-88.5,33t-49,90.5T284,246l4,22q12,65 43.5,111t75,70.5T499,474q44,0 74.5-18.5T625,406q28,28 49,58h35L653,153q-9-51-4-77.5T668,39t32-10q46,0 85,32t63,88t24,129q0,80-27.5,149T767,548T649,629T500,658q-89,0-163-34T209,529.5T125.5,388T96,214Q96,96 144,4.5T280-139t207-52q56,0 117.5,15T721-119l20-48ZM363,216q-16-94 5-142.5T430,25q21,0 43.5,10.5t48,40T575,161l36,205q-38,76-107,76q-55,0-86.5-44.5T373,276l-10-60Z" />
      <glyph unicode="A" glyph-name="A" horiz-adv-x="628" d="M188,26V0H-2V26l54,6q11,1 16,3.5t9.5,12T89,81L282,680h63L540,81q7-24 11.5-33.5t9.5-12T576,32l55-6V0H388V26l55,6q16,2 17.5,8.5T451,81L410,209H166L125,81q-11-34-9.5-40.5T133,32l55-6ZM176,241H400L288,589L176,241Z" />
      <glyph unicode="B" glyph-name="B" horiz-adv-x="605" d="M48,653v27H320q98,0 147-45.5T516,518V491q0-52-31-89t-87-52q70-12 109-53t39-103V167q0-73-50.5-120T345,0H48V26l55,6q16,2 19,8t3,41V599q0,35-3,41t-19,8l-55,5Zm272-5H212V362H320q104,0 104,121v41q0,124-104,124Zm25-318H212V32H345q109,0 109,129v41q0,62-27.5,95T345,330Z" />
      <glyph unicode="C" glyph-name="C" horiz-adv-x="586" d="M334-10Q207-10 140.5,75T74,303v75q0,94 28.5,164T187,651t137,39q75,0 124-29.5t71-77T533,480l-86-21q11,96-22,147.5T324,658q-76,0-115.5-54T169,428V253q0-123 42-177T336,22q33,0 63,11.5T450,73t26,78l62-16Q516,55 460.5,22.5T334-10Z" />
      <glyph unicode="D" glyph-name="D" horiz-adv-x="658" d="M48,653v27H332q122,0 187-79t65-223V303q0-145-65-224T332,0H48V26l55,6q16,2 19,8t3,41V599q0,35-3,41t-19,8l-55,5Zm282-5H212V32H330q54,0 89,20t52.5,68.5T489,253V428q0,83-17.5,131T419,627.5T330,648Z" />
      <glyph unicode="E" glyph-name="E" horiz-adv-x="580" d="M501,163h26V0H48V26l55,6q16,2 19,8t3,41V599q0,35-3,41t-19,8l-55,5v27H514V517H489L460,622q-3,12-6.5,17.5t-13.5,7T406,648H212V359H346q24,0 34,1.5t13.5,7T400,385l19,75h26V226H419l-19,75q-3,12-6.5,17.5t-13.5,7T346,327H212V32H418q24,0 34,1.5t13.5,7T472,58l29,105Z" />
      <glyph unicode="F" glyph-name="F" horiz-adv-x="543" d="M409,451h26V217H409l-19,75q-3,12-6.5,17.5t-13.5,7T336,318H212V81q0-35 3-41.5T234,32l75-6V0H48V26l55,6q16,2 19,8t3,41V599q0,35-3,41t-19,8l-55,5v27H505V517H479L450,622q-4,17-11.5,21.5T396,648H212V350H336q24,0 34,1.5t13.5,7T390,376l19,75Z" />
      <glyph unicode="G" glyph-name="G" horiz-adv-x="649" d="M372,281v27H627V281l-55-5q-16-2-19-8t-3-41V0H526q-19,29-45,46Q452,20 413.5,5T325-10q-80,0-136,39.5T103.5,140T74,305v75q0,92 29.5,162t87,109T330,690q79,0 130.5-29.5t74-77.5T549,480l-86-21q11,96-24,147.5T330,658q-80,0-120.5-56T169,424V257q0-122 41.5-178.5T333,22q41,0 76.5,15T469,85V227q0,35-3,41.5T447,276l-75,5Z" />
      <glyph unicode="H" glyph-name="H" horiz-adv-x="726" d="M678,26V0H437V26l55,6q16,2 19,8t3,41V327H212V81q0-35 3-41t19-8l55-6V0H48V26l55,6q16,2 19,8t3,41V599q0,35-3,41t-19,8l-55,5v27H289V653l-55-5q-16-2-19-8t-3-41V359H514V599q0,35-3,41t-19,8l-55,5v27H678V653l-55-5q-16-2-19-8t-3-41V81q0-35 3-41t19-8l55-6Z" />
      <glyph unicode="I" glyph-name="I" horiz-adv-x="337" d="M48,653v27H289V653l-55-5q-16-2-19-8t-3-41V81q0-35 3-41t19-8l55-6V0H48V26l55,6q16,2 19,8t3,41V599q0,35-3,41t-19,8l-55,5Z" />
      <glyph unicode="J" glyph-name="J" horiz-adv-x="461" d="M184,653v27H425V653l-55-5q-16-2-19-8t-3-41V198q0-55-16.5-102.5T276,19T169-10q-35,0-68.5,12T43,45.5T12,134l58,17q2-53 16.5-81T122,32t43-10q28,0 49.5,14.5t34,50.5T261,190V599q0,35-3,41t-19,8l-55,5Z" />
      <glyph unicode="K" glyph-name="K" horiz-adv-x="644" d="M48,654v26H289V654l-55-6q-16-1-19-7.5T212,599V305L462,605q25,29 25.5,35.5T471,648l-51,6v26H610V654l-51-6q-10-1-16-3.5t-13.5-11T505,605L349,417L539,81q13-23 19.5-33T572,35.5T591,32l48-6V0H483L291,347l-79-94V81q0-35 3-41t19-8l55-6V0H48V26l55,6q16,2 19,8t3,41V599q0,35-3,41.5T103,648l-55,6Z" />
      <glyph unicode="L" glyph-name="L" horiz-adv-x="515" d="M476,165h27V0H48V26l55,6q16,2 19,8t3,41V599q0,35-3,41t-19,8l-55,5v27H289V653l-55-5q-16-2-19-8t-3-41V32H393q24,0 34,1.5t13.5,7T447,58l29,107Z" />
      <glyph unicode="M" glyph-name="M" horiz-adv-x="860" d="M811,26V0H570V26l55,6q16,2 19,8.5T647,81V623L439,80H371L162,623V81q0-34 3-40.5T184,32l55-6V0H48V26l55,6q16,2 19,8.5T125,81V599q0,34-3,40.5T103,648l-55,5v27H231L432,155L633,680H811V653l-55-5q-16-2-19-8.5T734,599V81q0-34 3-40.5T756,32l55-6Z" />
      <glyph unicode="N" glyph-name="N" horiz-adv-x="691" d="M461,653v27H652V653l-55-5q-16-2-19-8.5T575,599V0H526L162,614V81q0-34 3-40.5T184,32l55-6V0H48V26l55,6q16,2 19,8.5T125,81V599q0,34-3,40.5T103,648l-55,5v27H221L538,144V599q0,34-3,40.5T516,648l-55,5Z" />
      <glyph unicode="O" glyph-name="O" horiz-adv-x="666" d="M592,378V303q0-146-67-229.5T333-10Q207-10 140.5,73.5T74,303v75q0,145 66.5,228.5T333,690q125,0 192-83.5T592,378Zm-95,50q0,125-41.5,177.5T333,658T210.5,605.5T169,428V253q0-125 41.5-178T333,22T455.5,75T497,253V428Z" />
      <glyph unicode="P" glyph-name="P" horiz-adv-x="574" d="M48,653v27H332q99,0 151-49.5T535,499V470q0-82-52-132T332,288H212V81q0-35 3-41.5T234,32l75-6V0H48V26l55,6q16,2 19,8t3,41V599q0,35-3,41t-19,8l-55,5Zm284-5H212V320H332q111,0 111,136v57q0,135-111,135Z" />
      <glyph unicode="Q" glyph-name="Q" horiz-adv-x="668" d="M563-98l14-89q-78,0-139,38.5T340-10h-6Q207-10 140.5,73.5T74,303v75q0,145 66.5,228.5T334,690q125,0 192.5-83.5T594,378V303q0-133-56.5-214.5T376-7q23-53 67-72T563-98ZM499,428q0,125-42,177.5T334,658q-82,0-123.5-52.5T169,428V253q0-125 41.5-178T334,22q81,0 123,53t42,178V428Z" />
      <glyph unicode="R" glyph-name="R" horiz-adv-x="625" d="M48,653v27H326q98,0 150.5-46.5T529,510V479q0-61-33.5-103.5T400,317L528,81q13-24 19-33.5t11.5-12T574,32l45-6V0H468L310,308H212V81q0-35 3-41t19-8l55-6V0H48V26l55,6q16,2 19,8t3,41V599q0,35-3,41t-19,8l-55,5Zm278-5H212V340H326q52,0 81.5,33.5T437,475v39q0,68-29.5,101T326,648Z" />
      <glyph unicode="S" glyph-name="S" horiz-adv-x="548" d="M270,22q67,0 108.5,33T420,152q0,51-31,85.5T281,293l-69,20q-76,21-116,71T56,506q0,48 22.5,90t69,68T266,690q80,0 129-29.5T463,584t9-101l-84-18q13,93-18.5,143T261,658q-61,0-96-32.5T130,531q0-49 28-83.5T257,393l69-20q167-46 167-195q0-53-24.5-95.5T394.5,15T270-10q-52,0-99.5,16t-81,55T45,169l60,20q5-66 29-102t60-50.5T270,22Z" />
      <glyph unicode="T" glyph-name="T" horiz-adv-x="559" d="M13,680H545V517H519L490,622q-3,12-6.5,17.5t-13.5,7T436,648H323V81q0-35 3-41t19-8l55-6V0H159V26l55,6q16,2 19,8t3,41V648H122q-23,0-33.5-1.5t-14-7T68,622L39,517H13V680Z" />
      <glyph unicode="U" glyph-name="U" horiz-adv-x="677" d="M452,653v27H643V653l-55-5q-16-2-19-8t-3-41V231q0-114-52.5-177.5T353-10Q235-10 172.5,59T110,249V599q0,35-3,41t-19,8l-55,5v27H274V653l-55-5q-16-2-19-8t-3-41V234q0-107 40.5-159T361,23q84,0 126,53t42,154V599q0,35-3,41t-19,8l-55,5Z" />
      <glyph unicode="V" glyph-name="V" horiz-adv-x="620" d="M538,605L344,0H277L82,605q-9,30-13.5,35.5T48,648l-50,5v27H233V653l-51-5q-16-2-17.5-8t7.5-35L337,87L502,605q10,29 8.5,35T492,648l-51,5v27H622V653l-51-5q-10-1-14.5-3.5t-8-11T538,605Z" />
      <glyph unicode="W" glyph-name="W" horiz-adv-x="921" d="M630,0L460,574L292,0H226L80,605q-7,29-11,35t-20,8l-51,5v27H231V653l-51-5q-16-2-17.5-7.5T168,605L287,105L454,680h62L685,109L805,605q8,30 5.5,35.5T793,648l-52,5v27H923V653l-51-5q-15-2-19-7.5T841,605L695,0H630Z" />
      <glyph unicode="X" glyph-name="X" horiz-adv-x="598" d="M188,26V0H2V26l51,6q10,1 15.5,3t12,11T99,75L258,333L104,605q-11,20-16.5,28.5t-11,11T61,648l-51,5v27H253V653l-52-5q-15-2-15.5-8T201,605L318,398L446,605q18,29 18,35t-16,8l-51,5v27H583V653l-51-5q-10-1-15.5-3.5t-11.5-11T486,605L337,364L501,75q11-20 16.5-28.5t11-11T544,32l52-6V0H353V26l52,6q16,2 16.5,7.5T405,75L277,300L139,75q-18-29-18-35t16-8l51-6Z" />
      <glyph unicode="Y" glyph-name="Y" horiz-adv-x="588" d="M415,26V0H174V26l55,6q16,2 19,8t3,41V290L90,605q-10,20-15.5,28.5t-11,11T47,648l-51,5v27H238V653l-51-5q-15-2-15.5-8T185,605L321,332L460,605q15,29 14,35t-16,8l-51,5v27H592V653l-52-5q-10-1-15.5-3.5t-11-11T498,605L338,292V81q0-35 3-41t19-8l55-6Z" />
      <glyph unicode="Z" glyph-name="Z" horiz-adv-x="531" d="M465,163h26V0H39V22L382,648H161q-35,0-42-4.5T107,622L78,517H52V680H481V658L139,32H382q24,0 34,1.5t13.5,7T436,58l29,105Z" />
      <glyph unicode="[" glyph-name="bracketleft" horiz-adv-x="356" d="M335,708H184V-111H335v-32H102V740H335V708Z" />
      <glyph unicode="\" glyph-name="backslash" horiz-adv-x="379" d="M50,740L396-128l-36-15L14,725l36,15Z" />
      <glyph unicode="]" glyph-name="bracketright" horiz-adv-x="356" d="M20,740H253V-143H20v32H171V708H20v32Z" />
      <glyph unicode="^" glyph-name="asciicircum" horiz-adv-x="588" d="M469,278l-33-12L293,628L149,266l-30,12L280,680h28L469,278Z" />
      <glyph unicode="_" glyph-name="underscore" horiz-adv-x="409" d="M18-143v34H390v-34H18Z" />
      <glyph unicode="`" glyph-name="grave" horiz-adv-x="500" d="M251,579q-46,39-79.5,77T108,740h96q12-46 27.5-77T272,598l-21-19Z" />
      <glyph unicode="a" glyph-name="a" horiz-adv-x="540" d="M447-7q-78,0-92,72Q320,25 278,7.5T195-10Q125-10 92,29T59,123q0,59 40.5,93.5T240,251H353v81q0,80-27.5,110.5T251,473q-30,0-54-12t-34.5-43.5T160,326L81,338q-5,47 12.5,84.5t58,60T253,505q73,0 112-24.5T419.5,417T435,332V107q0-51 11.5-64T472,30q9,0 19,4.5T513,49l18-25Q516,11 495.5,2T447-7ZM223,32q28,0 60.5,15.5T353,110V219H251q-56,0-81.5-22.5T144,127q0-45 19.5-70T223,32Z" />
      <glyph unicode="b" glyph-name="b" horiz-adv-x="573" d="M21,713v27H180V423q29,43 66,62.5T326,505q86,0 133.5-65T507,258V238q0-114-54.5-181T300-10q-78,0-128,51q-14-8-26-20T122-5H98V659q0,35-3,41t-19,8l-55,5ZM313,469q-31,0-64.5-20T180,368V82q43-59 114-59q65,0 94,49.5T417,208v80q0,94-27,137.5T313,469Z" />
      <glyph unicode="c" glyph-name="c" horiz-adv-x="502" d="M269,473q-55,0-85.5-45.5T153,278V218q0-105 30.5-150.5T283,22q47,0 76,24t39,83l53-15q-18-68-66-96T278-10Q170-10 116.5,57.5T63,238v20q0,112 53,179.5T269,505q64,0 106.5-25T436,412.5T446,319l-79-12q11,80-14.5,123T269,473Z" />
      <glyph unicode="d" glyph-name="d" horiz-adv-x="580" d="M552,25V0H398V79q-31-46-68.5-67.5T246-10q-86,0-133.5,64.5T65,237v20q0,113 55.5,180.5T273,505q71,0 120-44V659q0,35-3,41t-19,8l-55,5v27H475V81q0-35 3-41t19-8l55-7ZM155,207q0-94 27.5-138T259,25q32,0 66,20t68,81V412q-44,59-115,59q-64,0-93.5-49T155,287V207Z" />
      <glyph unicode="e" glyph-name="e" horiz-adv-x="525" d="M461,114q-18-68-67.5-96T284-10Q173-10 118,57.5T63,238v20q0,112 53,179.5T270,505q54,0 98.5-22t71-65T466,311q0-30-6-63H153V218q0-105 32.5-150.5T291,22q46,0 76.5,24T408,129l53-15ZM270,473q-59,0-88-45T153,280H378v3q2,13 3,25.5t1,22.5q0,75-31,108.5T270,473Z" />
      <glyph unicode="f" glyph-name="f" horiz-adv-x="358" d="M291,26V0H35V26l55,6q16,2 19,8t3,41V414q0,35-2.5,41T90,463l-55,5v27h77v72q0,47 14.5,89T177,724t99,26q83,0 123-45t29-110l-78-11q9,69-9.5,101.5T276,718q-26,0-44.5-11.5t-28-41T194,581V495H353V463H194V81q0-35 3-41.5T216,32l75-6Z" />
      <glyph unicode="g" glyph-name="g" horiz-adv-x="540" d="M501-58q0-80-58.5-122.5T280-223q-114,0-167,39.5T58-84l74,15q-4-55 29.5-88.5T280-191q76,0 122.5,28T449-81q0,40-27,60T333-1H214q-67,0-94,28.5T93,91q0,29 14.5,54.5T154,196q-40,19-65,55.5T64,340q0,55 25.5,91.5t68,55T252,505h17q55,0 98-20l145,50l11-75H406q23-20 36.5-50T456,340q0-53-25.5-90T363,194.5T269,176H252q-17,0-33,2t-31,6q-22-15-31.5-31T147,120q0-20 14.5-32T208,76H338q79,0 121-34T501-58ZM269,208q27,0 49.5,12T355,260.5T369,340q0,52-14,80.5T318.5,461T269,473H252q-27,0-50-12t-37-40.5T151,340q0-51 14-79.5T202,220t50-12h17Z" />
      <glyph unicode="h" glyph-name="h" horiz-adv-x="610" d="M587,26V0H351V26l55,6q16,2 19,8t3,41V330q0,74-24,104.5T336,465q-34,0-74-20t-75-79V81q0-35 3-41t19-8l55-6V0H28V26l55,6q16,2 19,8t3,41V659q0,35-3,41t-19,8l-55,5v27H187V419q35,45 80,65.5T356,505q74,0 114-45.5T510,331V81q0-35 3-41t19-8l55-6Z" />
      <glyph unicode="i" glyph-name="i" horiz-adv-x="299" d="M152,607q-24,0-39.5,15.5T97,663q0,24 15.5,39T152,717t39.5-15T207,663q0-25-15.5-40.5T152,607ZM35,468v27H194V81q0-35 3-41t19-8l55-6V0H35V26l55,6q16,2 19,8t3,41V414q0,35-3,41t-19,8l-55,5Z" />
      <glyph unicode="j" glyph-name="j" horiz-adv-x="285" d="M145,607q-24,0-39.5,15.5T90,663q0,24 15.5,39T145,717t39.5-15T200,663q0-25-15.5-40.5T145,607ZM28,468v27H187V-52q0-45-14.5-84T125-199T38-223q-49,0-84,26.5T-90-106l54,15q4-58 22-79t46-21q35,0 54,27.5T105-60V414q0,35-3,41t-19,8l-55,5Z" />
      <glyph unicode="k" glyph-name="k" horiz-adv-x="562" d="M28,713v27H187V228L376,420q29,29 31,35t-15,8l-51,5v27H534V468l-51-5q-9-1-15-3.5t-15.5-11T423,420L313,309L460,75q13-20 19.5-28.5t12.5-11T508,32l52-6V0H409L257,252l-70-71V81q0-35 3-41t19-8l55-6V0H28V26l55,6q16,2 19,8t3,41V659q0,35-3,41t-19,8l-55,5Z" />
      <glyph unicode="l" glyph-name="l" horiz-adv-x="293" d="M28,713v27H187V81q0-35 3-41t19-8l55-6V0H28V26l55,6q16,2 19,8t3,41V659q0,35-3,41t-19,8l-55,5Z" />
      <glyph unicode="m" glyph-name="m" horiz-adv-x="920" d="M584,26V0H348V26l55,6q16,2 19,8t3,41V330q0,74-22.5,104.5T337,465q-31,0-69.5-20T194,368V81q0-35 3-41t19-8l55-6V0H35V26l55,6q16,2 19,8t3,41V414q0,35-3,41t-19,8l-55,5v27H189V414q35,47 79.5,69T357,505q108,0 139-99q37,52 82.5,75.5T670,505q71,0 110.5-45.5T820,331V81q0-35 3-41t19-8l55-6V0H661V26l55,6q16,2 19,8t3,41V330q0,74-22.5,104.5T650,465q-31,0-70.5-20.5T505,365q1-8 1.5-16.5T507,331V81q0-35 3-41t19-8l55-6Z" />
      <glyph unicode="n" glyph-name="n" horiz-adv-x="617" d="M594,26V0H358V26l55,6q16,2 19,8t3,41V330q0,74-24,104.5T342,465q-33,0-73-20t-75-78V81q0-35 3-41t19-8l55-6V0H35V26l55,6q16,2 19,8t3,41V414q0,35-3,41t-19,8l-55,5v27H189V414q36,48 81.5,69.5T362,505q74,0 114.5-45.5T517,331V81q0-35 3-41t19-8l55-6Z" />
      <glyph unicode="o" glyph-name="o" horiz-adv-x="557" d="M495,258V238q0-113-56.5-180.5T278-10Q175-10 118.5,57.5T62,238v20q0,112 56,179.5T278,505t160.5-67.5T495,258Zm-90,20q0,104-32.5,149.5T278,473q-61,0-93.5-45.5T152,278V218q0-105 32.5-150.5T278,22q62,0 94.5,45.5T405,218v60Z" />
      <glyph unicode="p" glyph-name="p" horiz-adv-x="580" d="M28,469v26H182V415q30,47 67.5,68.5T333,505q86,0 133.5-65T514,258V238q0-114-55-181T306-10q-70,0-119,43V-132q0-34 3-40.5t19-8.5l75-5v-27H28v27l55,5q16,2 19,8.5t3,40.5V414q0,35-3,41t-19,8l-55,6Zm292,0q-31,0-64.5-20T187,368V82q43-59 114-59q65,0 94,49.5T424,208v80q0,94-27,137.5T320,469Z" />
      <glyph unicode="q" glyph-name="q" horiz-adv-x="573" d="M552-186v-27H296v27l75,5q16,2 19,8.5t3,40.5V72Q363,29 326.5,9.5T246-10q-86,0-133.5,64.5T65,237v20q0,113 55.5,180.5T273,505q76,0 127-51q26,15 51,46h24V-132q0-34 3-40.5t19-8.5l55-5ZM155,207q0-94 27.5-138T259,25q32,0 66,20t68,81V412q-44,59-115,59q-64,0-93.5-49T155,287V207Z" />
      <glyph unicode="r" glyph-name="r" horiz-adv-x="439" d="M35,468v27H189V415q35,47 70.5,68.5T332,505q32,0 60-19t47-61l-65-39q-15,36-34,50t-42,14q-25,0-49.5-16T194,374V81q0-35 3-41.5T216,32l75-6V0H35V26l55,6q16,2 19,8t3,41V414q0,35-3,41t-19,8l-55,5Z" />
      <glyph unicode="s" glyph-name="s" horiz-adv-x="474" d="M246,202l-61,15Q60,249 60,361q0,37 17,70t54.5,53.5T228,505q66,0 106-22t56-57t10-76l-78-14q12,65-13.5,101T225,473q-45,0-72-22.5T126,385q0-32 20-56.5T213,292l63-15q66-16 102.5-51T415,134q0-64-46.5-104T236-10q-41,0-79.5,12.5t-67,40T48,114l56,20q11-63 48-88t85-25q28,0 53.5,9T332,58.5T348,109q0,32-22,55t-80,38Z" />
      <glyph unicode="t" glyph-name="t" horiz-adv-x="387" d="M365,102q-15-58-47-85T236-10q-48,0-78,21.5T114,68t-14,73V414q0,35-2.5,41T78,463l-55,5v27h77V626l82,17V495H345V463H182V133q0-63 17.5-87T246,22t44.5,22T313,116l52-14Z" />
      <glyph unicode="u" glyph-name="u" horiz-adv-x="599" d="M570,26V0H416V80q-35-47-79.5-68.5T248-10q-71,0-110.5,45.5T98,164V414q0,35-3,41t-19,8l-55,5v27H180V165q0-74 22.5-104.5T268,30q32,0 70.5,20T411,127V414q0,35-3,41.5T389,463l-75,5v27H493V81q0-35 3-41t19-8l55-6Z" />
      <glyph unicode="v" glyph-name="v" horiz-adv-x="527" d="M443,420L297,0H232L85,420q-10,29-15,35t-21,8l-51,5v27H226V468l-51-5q-16-2-17-7.5t9-35.5L288,72L407,420q10,30 9,35.5T399,463l-52,5v27H529V468l-51-5q-16-2-20.5-7.5T443,420Z" />
      <glyph unicode="w" glyph-name="w" horiz-adv-x="774" d="M693,420L581,0H516L385,413L254,0H192L81,420q-7,29-11.5,35T49,463l-51,5v27H225V468l-52-5q-16-2-17.5-8t6.5-35L248,90L375,495h65L569,84l87,336q8,29 6.5,35T645,463l-52,5v27H776V468l-51-5q-15-2-19.5-8T693,420Z" />
      <glyph unicode="x" glyph-name="x" horiz-adv-x="523" d="M199,26V0H9V26l51,6q11,1 16.5,3.5T89,46.5T109,75L224,241L113,420q-12,20-18.5,28.5t-12,11T67,463l-52,5v27H250V468l-51-5q-16-2-16-7.5T202,420l77-124l85,124q20,29 19.5,35T368,463l-51,5v27H507V468l-51-5q-10-1-16-3.5t-12.5-11T407,420L299,264L416,75q12-20 18.5-28.5t12-11T462,32l52-6V0H279V26l51,6q16,2 16,7T327,75L244,209L152,75q-20-30-19.5-35.5T148,32l51-6Z" />
      <glyph unicode="y" glyph-name="y" horiz-adv-x="528" d="M280-50q-22-61-48-99.5t-62-56T80-223v80q72,0 109,22.5T248-37L261,0H232L85,420q-10,29-15,34.5T49,462l-51,6v27H226V468l-51-6q-14-1-16-7t8-35L287,74L408,421q9,29 7.5,34T399,462l-52,6v27H530V468l-51-6q-15-2-20-7t-15-34L280-50Z" />
      <glyph unicode="z" glyph-name="z" horiz-adv-x="461" d="M388,143h26V0H45V25L313,463H163q-33,0-40.5-4.5T109,437L82,352H56V495H404V470L138,32H307q34,0 41.5,4T361,58l27,85Z" />
      <glyph unicode="{" glyph-name="braceleft" horiz-adv-x="401" d="M380-112v-32H295q-56,0-95.5,21t-56,62T140,41l24,106q14,59-1.5,97T107,282H30v32h77q40,0 55.5,38.5T164,449L140,555q-13,61 3.5,102t56,62T295,740h85V708H295q-53,0-70-35.5T222,574l24-106q16-69-7.5-112T165,298q50-15 73.5-58T246,128L222,22q-14-63 3-98.5T295-112h85Z" />
      <glyph unicode="|" glyph-name="bar" horiz-adv-x="237" d="M100,740h37V-213H100V740Z" />
      <glyph unicode="}" glyph-name="braceright" horiz-adv-x="401" d="M260,41q14-61-3-102t-56.5-62T105-144H20v32h85q53,0 70,35.5T178,22L154,128q-16,69 8,112t73,58q-49,15-73,57.5T154,468l24,106q14,63-3,98.5T105,708H20v32h85q56,0 95.5-21T257,657t3-102L236,449q-13-58 2-97t55-39h77V281H293q-40,0-55-37.5T236,147L260,41Z" />
      <glyph unicode="~" glyph-name="asciitilde" horiz-adv-x="588" d="M388,257q-36,0-59.5,17.5T286,315t-39,40.5T199,373q-25,0-44-19t-38-74L87,294q24,68 51.5,91T199,408q36,0 59.5-17.5T301,350t39-40.5T388,292q26,0 45,19.5T470,386l31-15q-25-67-52-90.5T388,257Z" />
      <glyph unicode="&#xa0;" glyph-name="uni00A0" horiz-adv-x="227" />
      <glyph unicode="&#xa1;" glyph-name="exclamdown" horiz-adv-x="258" d="M129,505q25,0 41-16t16-42q0-25-16-40.5T129,391T88,406.5T72,447q0,26 16,42t41,16ZM113,311h31q0-71 2.5-123T153,93.5t8-83t6.5-87T170-185H88q0,62 2.5,108.5t6.5,87t7.5,83t6,94.5T113,311Z" />
      <glyph unicode="&#xa2;" glyph-name="cent" horiz-adv-x="502" d="M451,114q-17-65-62.5-93.5T287-10V-125H252V-9Q157-1 110,65.5T63,238v20q0,107 49,173.5T252,504V620h35V504q58-3 96-29t54.5-66.5T446,319l-79-12q10,73-11,115.5T287,472V22q46,1 73.5,25T398,129l53-15ZM153,218q0-92 23.5-138T252,25V472q-47-6-73-52T153,278V218Z" />
      <glyph unicode="&#xa3;" glyph-name="sterling" horiz-adv-x="525" d="M435,184h26V0H62V56q43,38 65,67t30,54t8,49q0,30-11,58H54v32h86q-14,28-31.5,55T79,430T67,503q0,47 20.5,89.5t64.5,70T268,690q75,0 121.5-29.5t65-76.5T463,483l-87-16q10,92-15.5,141.5T270,658q-52,0-79-38.5T164,510q0-40 8.5-72.5t19.5-62T210,316H384V284H216q1-7 1.5-15t0.5-16q0-43-20.5-86.5T126,73H364q35,0 42.5,4T418,99l17,85Z" />
      <glyph unicode="&#xa4;" glyph-name="currency" horiz-adv-x="580" d="M536,67L513,43L412,147q-52-44-122-44T168,147L67,43L44,67L144,171q-22,26-34,59T98,300q0,38 12,71t33,58L44,532l23,25L168,453q52,44 122,44t122-44L513,557l23-25L436,429q22-25 34-58t12-71q0-37-12-70t-34-59L536,67ZM290,135q45,0 80.5,22T427,216.5T448,300t-21,83.5T370.5,443T290,465t-80.5-22T153,383.5T132,300t21-83.5T209.5,157T290,135Z" />
      <glyph unicode="&#xa5;" glyph-name="yen" horiz-adv-x="608" d="M425,26V0H184V26l55,6q16,2 19,8t3,41V214H79v32H261v44l-33,64H79v32H212L100,605q-10,20-15.5,28.5t-11,11T57,648L6,653v27H248V653l-51-5q-15-2-15.5-8T195,605L331,332L470,605q15,29 14,35t-16,8l-51,5v27H602V653l-52-5q-10-1-15.5-3.5t-11-11T508,605L396,386H530V354H380l-32-62V246H530V214H348V81q0-35 3-41t19-8l55-6Z" />
      <glyph unicode="&#xa6;" glyph-name="brokenbar" horiz-adv-x="224" d="M93,740h37V357H93V740Zm0-570h37V-213H93V170Z" />
      <glyph unicode="&#xa7;" glyph-name="section" horiz-adv-x="539" d="M460-51q0-73-50-122.5T259-223q-49,0-93,15.5T91.5-154T50-49l60,20q5-63 26.5-98.5T190-177t69-14q59,0 94.5,28T389-81q0,45-25.5,73.5T273,40L200,62Q130,82 90,126.5T50,226q0,49 30,89.5T163,377q-41,24-63,63T78,527q0,43 19.5,80T158,667t106,23q72,0 115.5-27t60-70t7.5-92l-84-18q11,84-13,129.5T260,658q-52,0-81.5-26.5T149,554q0-43 23-73.5T256,432l75-22q159-46 159-164q0-52-29.5-92.5T378,91q82-46 82-142ZM245,137l89-27q40,11 62.5,37T419,213q0,44-29.5,72T286,335l-83,24q-39-10-60.5-35T121,258q0-42 27.5-71.5T245,137Z" />
      <glyph unicode="&#xa8;" glyph-name="dieresis" horiz-adv-x="500" d="M148,611q-22,0-36.5,14.5T97,663q0,22 14.5,36T148,713q23,0 37-14t14-36q0-23-14-37.5T148,611Zm203,0q-22,0-36.5,14.5T300,663q0,22 14.5,36T351,713q23,0 37.5-14T403,663q0-23-14.5-37.5T351,611Z" />
      <glyph unicode="&#xa9;" glyph-name="copyright" horiz-adv-x="852" d="M426-37Q347-37 279.5-8t-118,80t-79,120T54,340q0,80 28.5,148.5t79,120t118,80T426,717q78,0 146-28.5t118.5-80t79-120T798,340q0-79-28.5-148t-79-120T572-8T426-37Zm0,32q72,0 133.5,26T667,94t71.5,110T764,340T738.5,475.5T667,585T559.5,658.5T426,685T292.5,658.5T185,585T113.5,475.5T88,340t25.5-136T185,94T292.5,21T426-5Zm4,547q-56,0-87-39.5T312,371V310q0-92 30-132t97-40q46,0 74,23t40,82l51-13q-19-68-66.5-95T434,108q-100,0-149,60.5T236,330v21q0,101 49.5,161T430,572q59,0 99-23t58-62.5T597,398l-65-9q10,74-16.5,113.5T430,542Z" />
      <glyph unicode="&#xaa;" glyph-name="ordfeminine" horiz-adv-x="381" d="M310,339q-52,0-63,44q-25-25-52-36.5T142,335q-48,0-70.5,27T49,426q0,41 27,64t93,23h75v55q0,55-18.5,73T176,659q-20,0-35.5-7T118,625.5T115,567l-50,7q-4,48 25,79.5T177,685q47,0 72.5-16.5t36-43T296,568V416q0-35 8.5-42.5T323,366q6,0 13.5,2.5T352,378l12-19q-10-9-23-14.5T310,339ZM154,363q18,0 41,9.5T244,413v74H174q-37,0-54-13t-17-44q0-67 51-67Z" />
      <glyph unicode="&#xab;" glyph-name="guillemotleft" horiz-adv-x="645" d="M588,27L570,10L303,232v24L570,478l18-18L401,244L588,27ZM338,27L320,10L53,232v24L320,478l18-18L151,244L338,27Z" />
      <glyph unicode="&#xac;" glyph-name="logicalnot" horiz-adv-x="588" d="M87,428v33H501V237H465V428H87Z" />
      <glyph unicode="&#xad;" glyph-name="uni00AD" horiz-adv-x="0" />
      <glyph unicode="&#xae;" glyph-name="registered" horiz-adv-x="556" d="M278,241q-66,0-119,32T75,359T44,479q0,67 31,121t84,85.5T278,717t119-31.5T481,600t31-121q0-66-31-120t-84-86T278,241Zm0,30q57,0 102.5,27.5t72,74.5T479,479T452.5,585t-72,74.5T278,687q-56,0-102-27.5T103,585T76,479t27-106t73-74.5T278,271ZM170,588v21H281q40,0 61.5-18T364,543V527q0-45-44-62l43-69q8-13 10-16t8-3l18-1V354H331L272,459H247V396q0-13 1-16t7-3l21-1V354H170v22l21,1q6,0 7.5,3t1.5,16V568q0,13-1.5,15t-7.5,3l-21,2Zm111-2H247V483h34q35,0 35,44v16q0,43-35,43Z" />
      <glyph unicode="&#xaf;" glyph-name="macron" horiz-adv-x="500" d="M394,666V619H107v47H394Z" />
      <glyph unicode="&#xb0;" glyph-name="degree" horiz-adv-x="387" d="M193,366q-45,0-80.5,21t-56,58T36,528q0,47 20.5,83.5t56,57.5T193,690t80.5-21t56-57.5T350,528q0-46-20.5-83t-56-58T193,366Zm0,33q53,0 86.5,36T313,528q0,56-33.5,92T193,656q-52,0-85.5-36T74,528q0-57 33.5-93T193,399Z" />
      <glyph unicode="&#xb1;" glyph-name="plusminus" horiz-adv-x="588" d="M501,317H311V123H276V317H87v33H276V545h35V350H501V317ZM87,0V33H501V0H87Z" />
      <glyph unicode="&#xb2;" glyph-name="uni00B2" horiz-adv-x="290" d="M226,544h21V445H30v27q0,37 10,59t29.5,38T116,601q26,15 48,34.5T186,695q0,72-49,72q-58,0-49-90l-59,8q-7,41 20,73t88,32t86.5-29T249,694t-20-59.5t-49-34T124,574q-57-29-63-85H191q17,0 21.5,2t5.5,11l8,42Z" />
      <glyph unicode="&#xb3;" glyph-name="uni00B3" horiz-adv-x="291" d="M116,609H98v21h18q38,0 53.5,20.5T185,703q0,66-50,66q-59,0-50-90l-59,8q-7,40 19.5,71.5T135,790q61,0 87-26t26-61q0-64-68-83q74-20 74-90q0-36-28-63t-90-27q-38,0-68,15.5T26,513l33,10q5-36 26.5-49T131,461q59,0 59,69q0,35-16.5,57T116,609Z" />
      <glyph unicode="&#xb4;" glyph-name="acute" horiz-adv-x="500" d="M249,579l-21,19q24,34 39.5,65T295,740h96q-30-46-63.5-84T249,579Z" />
      <glyph unicode="&#xb5;" glyph-name="uni00B5" horiz-adv-x="610" d="M320,468v27H499V107q0-51 11.5-64T536,30q9,0 19.5,4.5T577,49l18-25Q580,11 560,2T511-7q-82,0-93,79Q382,29 339.5,9.5T254-10q-71,0-110,45q2-70 14.5-120T195-187l-91-26V414q0,35-3,41t-19,8l-55,5v27H186V165q0-74 22-104.5T272,30q33,0 70.5,19T417,120V414q0,35-3,41.5T395,463l-75,5Z" />
      <glyph unicode="&#xb6;" glyph-name="paragraph" horiz-adv-x="572" d="M38,499q0,82 52,131.5T242,680H525V653l-55-5q-16-2-19-8t-3-41V-62q0-34 3-40.5t19-8.5l55-5v-27H264v27l75,5q16,2 19,8.5T361-62V648H293V288H242q-100,0-152,50T38,470v29Z" />
      <glyph unicode="&#xb7;" glyph-name="periodcentered" horiz-adv-x="500" d="M250,329q-24,0-39.5,15.5T195,385q0,24 15.5,39T250,439t39.5-15T305,385q0-25-15.5-40.5T250,329Z" />
      <glyph unicode="&#xb8;" glyph-name="cedilla" horiz-adv-x="500" d="M359-140q0-39-31-61t-80-22q-38,0-68.5,17.5T141-145l48,14q4-35 18-49.5T244-195q26,0 38,15.5T294-140q0,23-12.5,38.5T236-86q-11,0-23-2L203-63L229,0h35L240-58q53,0 86-21.5T359-140Z" />
      <glyph unicode="&#xb9;" glyph-name="uni00B9" horiz-adv-x="216" d="M29,744l66,41h50V492q0-17 2-20t9-4l28-3V445H38v20l38,3q8,1 9.5,4T87,492V753L41,724L29,744Z" />
      <glyph unicode="&#xba;" glyph-name="ordmasculine" horiz-adv-x="395" d="M343,517V504q0-77-38-123T197,335T89,381T51,504v13q0,77 38,122.5T197,685q71,0 108.5-45.5T343,517Zm-59,14q0,71-21,99.5T197,659q-44,0-65.5-28.5T110,531V490q0-71 21.5-100.5T197,360q45,0 66,29.5T284,490v41Z" />
      <glyph unicode="&#xbb;" glyph-name="guillemotright" horiz-adv-x="645" d="M57,461l17,17L342,256V232L74,10L57,28L243,244L57,461Zm250,0l17,17L592,256V232L324,10L307,28L493,244L307,461Z" />
      <glyph unicode="&#xbc;" glyph-name="onequarter" horiz-adv-x="547" d="M29,639l66,41h50V387q0-17 2-20t9-4l28-3V340H38v20l38,3q8,1 9.5,4T87,387V648L41,619L29,639Zm413,41l26-17L94,0L67,16L442,680ZM441,46V85H293v21q34,37 56.5,70.5t37.5,73T411,340h68q-17-70-62-124.5T319,106H441v77l58,6V106h39V85H499V46q0-17 2-20t9-5l28-3V0H398V18l32,3q8,1 9.5,4.5T441,46Z" />
      <glyph unicode="&#xbd;" glyph-name="onehalf" horiz-adv-x="584" d="M29,639l66,41h50V387q0-17 2-20t9-4l28-3V340H38v20l38,3q8,1 9.5,4T87,387V648L41,619L29,639Zm413,41l26-17L94,0L67,16L442,680ZM519,99h21V0H323V27q0,37 10,59t29.5,38T409,156q26,15 48,34.5T479,250q0,72-49,72q-58,0-49-90l-59,8q-7,41 20,73t88,32t86.5-29T542,249t-20-59.5t-49-34T417,129q-57-29-63-85H484q17,0 21.5,2T511,57l8,42Z" />
      <glyph unicode="&#xbe;" glyph-name="threequarters" horiz-adv-x="596" d="M116,504H98v21h18q38,0 53.5,20.5T185,598q0,66-50,66q-59,0-50-90l-59,8q-7,40 19.5,71.5T135,685q61,0 87-26t26-61q0-64-68-83q74-20 74-90q0-36-28-63t-90-27q-38,0-68,15.5T26,408l33,10q5-36 26.5-49T131,356q59,0 59,69q0,35-16.5,57T116,504ZM491,680l26-17L143,0L116,16L491,680Zm0-634V85H343v21q34,37 56.5,70.5t37.5,73T461,340h68q-17-70-62-124.5T369,106H491v77l58,6V106h39V85H549V46q0-17 2-20t9-5l28-3V0H448V18l32,3q8,1 9.5,4.5T491,46Z" />
      <glyph unicode="&#xbf;" glyph-name="questiondown" horiz-adv-x="479" d="M249,505q25,0 41-16t16-42q0-25-16-40.5T249,391t-41,15.5T192,447q0,26 16,42t41,16ZM225,311h46V289q0-45-13.5-73T224,167.5t-40-42t-33.5-53T137-10q0-76 28-114.5T245-163q66,0 92,50T353,28l82-16q10-54-8-101t-63.5-76.5T244-195q-70,0-114,25T65.5-105T45-21q0,46 14.5,76.5T96,107t46.5,38t45,35.5t32,44T227,288l-2,23Z" />
      <glyph unicode="&#xc0;" glyph-name="Agrave" horiz-adv-x="628" d="M188,26V0H-2V26l54,6q11,1 16,3.5t9.5,12T89,81L282,680h63L540,81q7-24 11.5-33.5t9.5-12T576,32l55-6V0H388V26l55,6q16,2 17.5,8.5T451,81L410,209H166L125,81q-11-34-9.5-40.5T133,32l55-6ZM176,241H400L288,589L176,241ZM315,764q-46,39-79.5,77T172,925h96q12-46 27.5-77T336,783l-21-19Z" />
      <glyph unicode="&#xc1;" glyph-name="Aacute" horiz-adv-x="628" d="M188,26V0H-2V26l54,6q11,1 16,3.5t9.5,12T89,81L282,680h63L540,81q7-24 11.5-33.5t9.5-12T576,32l55-6V0H388V26l55,6q16,2 17.5,8.5T451,81L410,209H166L125,81q-11-34-9.5-40.5T133,32l55-6ZM176,241H400L288,589L176,241ZM313,764l-21,19q24,34 39.5,65T359,925h96q-30-46-63.5-84T313,764Z" />
      <glyph unicode="&#xc2;" glyph-name="Acircumflex" horiz-adv-x="628" d="M188,26V0H-2V26l54,6q11,1 16,3.5t9.5,12T89,81L282,680h63L540,81q7-24 11.5-33.5t9.5-12T576,32l55-6V0H388V26l55,6q16,2 17.5,8.5T451,81L410,209H166L125,81q-11-34-9.5-40.5T133,32l55-6ZM176,241H400L288,589L176,241ZM445,784l-17-20q-34,25-63.5,49.5T310,863q-23-25-50.5-49.5T200,764l-17,20q24,27 40,46.5t29,41T280,925h67q16-32 29-53.5t29-41T445,784Z" />
      <glyph unicode="&#xc3;" glyph-name="Atilde" horiz-adv-x="628" d="M188,26V0H-2V26l54,6q11,1 16,3.5t9.5,12T89,81L282,680h63L540,81q7-24 11.5-33.5t9.5-12T576,32l55-6V0H388V26l55,6q16,2 17.5,8.5T451,81L410,209H166L125,81q-11-34-9.5-40.5T133,32l55-6ZM176,241H400L288,589L176,241ZM381,774q-24,0-43,13.5t-35.5,31t-31.5,31T240,863q-38,0-44-78H165q4,71 25.5,105T248,924q24,0 43-13.5t35-31t31-31T388,835q17,0 28.5,19T431,913h32q-4-71-25.5-105T381,774Z" />
      <glyph unicode="&#xc4;" glyph-name="Adieresis" horiz-adv-x="628" d="M188,26V0H-2V26l54,6q11,1 16,3.5t9.5,12T89,81L282,680h63L540,81q7-24 11.5-33.5t9.5-12T576,32l55-6V0H388V26l55,6q16,2 17.5,8.5T451,81L410,209H166L125,81q-11-34-9.5-40.5T133,32l55-6ZM176,241H400L288,589L176,241Zm31,555q-22,0-36.5,14.5T156,848q0,22 14.5,36T207,898q23,0 37-14t14-36q0-23-14-37.5T207,796Zm203,0q-22,0-36.5,14.5T359,848q0,22 14.5,36T410,898q23,0 37.5-14T462,848q0-23-14.5-37.5T410,796Z" />
      <glyph unicode="&#xc5;" glyph-name="Aring" horiz-adv-x="628" d="M188,26V0H-2V26l54,6q11,1 16,3.5t9.5,12T89,81L275,658q-40,11-62,41t-22,64v11q0,27 14,52t41,40.5T311,882t64.5-15.5t41-40.5T431,774V763q0-32-20.5-61.5T352,660L540,81q7-24 11.5-33.5t9.5-12T576,32l55-6V0H388V26l55,6q16,2 17.5,8.5T451,81L410,209H166L125,81q-11-34-9.5-40.5T133,32l55-6ZM371,781q0,76-60,76t-60-76V756q0-76 60-76t60,76v25ZM176,241H400L288,589L176,241Z" />
      <glyph unicode="&#xc6;" glyph-name="AE" horiz-adv-x="888" d="M833,163V0H356V26l55,6q16,2 19,8t3,41V209H208L139,81q-18-34-18.5-40.5T136,32l55-6V0H-2V26l54,6q11,1 17,3.5T81.5,48T100,81L379,599q19,34 19,40.5T382,648l-55,5v27H823V517H797L768,622q-4,17-11.5,21.5T714,648H520V359H654q24,0 34,1.5t13.5,7T708,385l19,75h26V226H727l-19,75q-3,12-6.5,17.5t-13.5,7T654,327H520V32H724q24,0 34,1.5t13.5,7T778,58l29,105h26ZM225,241H433V626L225,241Z" />
      <glyph unicode="&#xc7;" glyph-name="Ccedilla" horiz-adv-x="586" d="M443-140q0-39-31-61t-80-22q-38,0-68.5,17.5T225-145l48,14q4-35 18-49.5T328-195q26,0 38,15.5T378-140q0,23-12.5,38.5T320-86q-11,0-23-2L287-63L309-9Q194-1 134,83T74,303v75q0,94 28.5,164T187,651t137,39q75,0 124-29.5t71-77T533,480l-86-21q11,96-22,147.5T324,658q-76,0-115.5-54T169,428V253q0-123 42-177T336,22q33,0 63,11.5T450,73t26,78l62-16Q517,58 464.5,25T344-10L324-58q53,0 86-21.5T443-140Z" />
      <glyph unicode="&#xc8;" glyph-name="Egrave" horiz-adv-x="580" d="M501,163h26V0H48V26l55,6q16,2 19,8t3,41V599q0,35-3,41t-19,8l-55,5v27H514V517H489L460,622q-3,12-6.5,17.5t-13.5,7T406,648H212V359H346q24,0 34,1.5t13.5,7T400,385l19,75h26V226H419l-19,75q-3,12-6.5,17.5t-13.5,7T346,327H212V32H418q24,0 34,1.5t13.5,7T472,58l29,105ZM315,764q-46,39-79.5,77T172,925h96q12-46 27.5-77T336,783l-21-19Z" />
      <glyph unicode="&#xc9;" glyph-name="Eacute" horiz-adv-x="580" d="M501,163h26V0H48V26l55,6q16,2 19,8t3,41V599q0,35-3,41t-19,8l-55,5v27H514V517H489L460,622q-3,12-6.5,17.5t-13.5,7T406,648H212V359H346q24,0 34,1.5t13.5,7T400,385l19,75h26V226H419l-19,75q-3,12-6.5,17.5t-13.5,7T346,327H212V32H418q24,0 34,1.5t13.5,7T472,58l29,105ZM313,764l-21,19q24,34 39.5,65T359,925h96q-30-46-63.5-84T313,764Z" />
      <glyph unicode="&#xca;" glyph-name="Ecircumflex" horiz-adv-x="580" d="M501,163h26V0H48V26l55,6q16,2 19,8t3,41V599q0,35-3,41t-19,8l-55,5v27H514V517H489L460,622q-3,12-6.5,17.5t-13.5,7T406,648H212V359H346q24,0 34,1.5t13.5,7T400,385l19,75h26V226H419l-19,75q-3,12-6.5,17.5t-13.5,7T346,327H212V32H418q24,0 34,1.5t13.5,7T472,58l29,105ZM445,784l-17-20q-34,25-63.5,49.5T310,863q-23-25-50.5-49.5T200,764l-17,20q24,27 40,46.5t29,41T280,925h67q16-32 29-53.5t29-41T445,784Z" />
      <glyph unicode="&#xcb;" glyph-name="Edieresis" horiz-adv-x="580" d="M501,163h26V0H48V26l55,6q16,2 19,8t3,41V599q0,35-3,41t-19,8l-55,5v27H514V517H489L460,622q-3,12-6.5,17.5t-13.5,7T406,648H212V359H346q24,0 34,1.5t13.5,7T400,385l19,75h26V226H419l-19,75q-3,12-6.5,17.5t-13.5,7T346,327H212V32H418q24,0 34,1.5t13.5,7T472,58l29,105ZM211,796q-22,0-36.5,14.5T160,848q0,22 14.5,36T211,898q23,0 37-14t14-36q0-23-14-37.5T211,796Zm203,0q-22,0-36.5,14.5T363,848q0,22 14.5,36T414,898q23,0 37.5-14T466,848q0-23-14.5-37.5T414,796Z" />
      <glyph unicode="&#xcc;" glyph-name="Igrave" horiz-adv-x="337" d="M48,653v27H289V653l-55-5q-16-2-19-8t-3-41V81q0-35 3-41t19-8l55-6V0H48V26l55,6q16,2 19,8t3,41V599q0,35-3,41t-19,8l-55,5ZM170,764q-46,39-79.5,77T27,925h96q12-46 27.5-77T191,783l-21-19Z" />
      <glyph unicode="&#xcd;" glyph-name="Iacute" horiz-adv-x="337" d="M48,653v27H289V653l-55-5q-16-2-19-8t-3-41V81q0-35 3-41t19-8l55-6V0H48V26l55,6q16,2 19,8t3,41V599q0,35-3,41t-19,8l-55,5ZM168,764l-21,19q24,34 39.5,65T214,925h96q-30-46-63.5-84T168,764Z" />
      <glyph unicode="&#xce;" glyph-name="Icircumflex" horiz-adv-x="337" d="M48,653v27H289V653l-55-5q-16-2-19-8t-3-41V81q0-35 3-41t19-8l55-6V0H48V26l55,6q16,2 19,8t3,41V599q0,35-3,41t-19,8l-55,5ZM300,784l-17-20q-34,25-63.5,49.5T165,863q-23-25-50.5-49.5T55,764L38,784q24,27 40,46.5t29,41T135,925h67q16-32 29-53.5t29-41T300,784Z" />
      <glyph unicode="&#xcf;" glyph-name="Idieresis" horiz-adv-x="337" d="M48,653v27H289V653l-55-5q-16-2-19-8t-3-41V81q0-35 3-41t19-8l55-6V0H48V26l55,6q16,2 19,8t3,41V599q0,35-3,41t-19,8l-55,5ZM67,796q-22,0-36.5,14.5T16,848q0,22 14.5,36T67,898q23,0 37-14t14-36q0-23-14-37.5T67,796Zm203,0q-22,0-36.5,14.5T219,848q0,22 14.5,36T270,898q23,0 37.5-14T322,848q0-23-14.5-37.5T270,796Z" />
      <glyph unicode="&#xd0;" glyph-name="Eth" horiz-adv-x="662" d="M52,653v27H336q121,0 186.5-79T588,378V303q0-145-65.5-224T336,0H52V26l55,6q16,2 19,8t3,41V338H52v32h77V599q0,35-3,41t-19,8l-55,5ZM369,338H216V32H334q54,0 89,20t52.5,68.5T493,253V428q0,83-17.5,131T423,627.5T334,648H216V370H369V338Z" />
      <glyph unicode="&#xd1;" glyph-name="Ntilde" horiz-adv-x="691" d="M461,653v27H652V653l-55-5q-16-2-19-8.5T575,599V0H526L162,614V81q0-34 3-40.5T184,32l55-6V0H48V26l55,6q16,2 19,8.5T125,81V599q0,34-3,40.5T103,648l-55,5v27H221L538,144V599q0,34-3,40.5T516,648l-55,5ZM421,774q-24,0-43,13.5t-35.5,31t-31.5,31T280,863q-38,0-44-78H205q4,71 25.5,105T288,924q24,0 43-13.5t35-31t31-31T428,835q17,0 28.5,19T471,913h32q-4-71-25.5-105T421,774Z" />
      <glyph unicode="&#xd2;" glyph-name="Ograve" horiz-adv-x="666" d="M592,378V303q0-146-67-229.5T333-10Q207-10 140.5,73.5T74,303v75q0,145 66.5,228.5T333,690q125,0 192-83.5T592,378Zm-95,50q0,125-41.5,177.5T333,658T210.5,605.5T169,428V253q0-125 41.5-178T333,22T455.5,75T497,253V428ZM336,764q-46,39-79.5,77T193,925h96q12-46 27.5-77T357,783l-21-19Z" />
      <glyph unicode="&#xd3;" glyph-name="Oacute" horiz-adv-x="666" d="M592,378V303q0-146-67-229.5T333-10Q207-10 140.5,73.5T74,303v75q0,145 66.5,228.5T333,690q125,0 192-83.5T592,378Zm-95,50q0,125-41.5,177.5T333,658T210.5,605.5T169,428V253q0-125 41.5-178T333,22T455.5,75T497,253V428ZM334,764l-21,19q24,34 39.5,65T380,925h96q-30-46-63.5-84T334,764Z" />
      <glyph unicode="&#xd4;" glyph-name="Ocircumflex" horiz-adv-x="666" d="M592,378V303q0-146-67-229.5T333-10Q207-10 140.5,73.5T74,303v75q0,145 66.5,228.5T333,690q125,0 192-83.5T592,378Zm-95,50q0,125-41.5,177.5T333,658T210.5,605.5T169,428V253q0-125 41.5-178T333,22T455.5,75T497,253V428ZM466,784l-17-20q-34,25-63.5,49.5T331,863q-23-25-50.5-49.5T221,764l-17,20q24,27 40,46.5t29,41T301,925h67q16-32 29-53.5t29-41T466,784Z" />
      <glyph unicode="&#xd5;" glyph-name="Otilde" horiz-adv-x="666" d="M592,378V303q0-146-67-229.5T333-10Q207-10 140.5,73.5T74,303v75q0,145 66.5,228.5T333,690q125,0 192-83.5T592,378Zm-95,50q0,125-41.5,177.5T333,658T210.5,605.5T169,428V253q0-125 41.5-178T333,22T455.5,75T497,253V428ZM402,774q-24,0-43,13.5t-35.5,31t-31.5,31T261,863q-38,0-44-78H186q4,71 25.5,105T269,924q24,0 43-13.5t35-31t31-31T409,835q17,0 28.5,19T452,913h32q-4-71-25.5-105T402,774Z" />
      <glyph unicode="&#xd6;" glyph-name="Odieresis" horiz-adv-x="666" d="M592,378V303q0-146-67-229.5T333-10Q207-10 140.5,73.5T74,303v75q0,145 66.5,228.5T333,690q125,0 192-83.5T592,378Zm-95,50q0,125-41.5,177.5T333,658T210.5,605.5T169,428V253q0-125 41.5-178T333,22T455.5,75T497,253V428ZM233,796q-22,0-36.5,14.5T182,848q0,22 14.5,36T233,898q23,0 37-14t14-36q0-23-14-37.5T233,796Zm203,0q-22,0-36.5,14.5T385,848q0,22 14.5,36T436,898q23,0 37.5-14T488,848q0-23-14.5-37.5T436,796Z" />
      <glyph unicode="&#xd7;" glyph-name="multiply" horiz-adv-x="588" d="M482,171l-25-25L294,309L131,146l-26,25L268,334L105,497l26,25L294,359L457,522l25-25L319,334L482,171Z" />
      <glyph unicode="&#xd8;" glyph-name="Oslash" horiz-adv-x="666" d="M592,303q0-146-67-229.5T333-10q-55,0-99.5,17T157,55L119,0H74l58,84Q74,165 74,303v75q0,145 66.5,228.5T333,690q56,0 99.5-16.5T508,625l39,55h45l-59-84q59-82 59-218V303ZM169,253q0-62 10-103L474,574q-19,44-55,64t-86,20q-81,0-122.5-52.5T169,428V253ZM497,428q0,59-9,102L193,106q20-44 55-64t85-20q81,0 122.5,53T497,253V428Z" />
      <glyph unicode="&#xd9;" glyph-name="Ugrave" horiz-adv-x="677" d="M452,653v27H643V653l-55-5q-16-2-19-8t-3-41V231q0-114-52.5-177.5T353-10Q235-10 172.5,59T110,249V599q0,35-3,41t-19,8l-55,5v27H274V653l-55-5q-16-2-19-8t-3-41V234q0-107 40.5-159T361,23q84,0 126,53t42,154V599q0,35-3,41t-19,8l-55,5ZM363,764q-46,39-79.5,77T220,925h96q12-46 27.5-77T384,783l-21-19Z" />
      <glyph unicode="&#xda;" glyph-name="Uacute" horiz-adv-x="677" d="M452,653v27H643V653l-55-5q-16-2-19-8t-3-41V231q0-114-52.5-177.5T353-10Q235-10 172.5,59T110,249V599q0,35-3,41t-19,8l-55,5v27H274V653l-55-5q-16-2-19-8t-3-41V234q0-107 40.5-159T361,23q84,0 126,53t42,154V599q0,35-3,41t-19,8l-55,5ZM361,764l-21,19q24,34 39.5,65T407,925h96q-30-46-63.5-84T361,764Z" />
      <glyph unicode="&#xdb;" glyph-name="Ucircumflex" horiz-adv-x="677" d="M452,653v27H643V653l-55-5q-16-2-19-8t-3-41V231q0-114-52.5-177.5T353-10Q235-10 172.5,59T110,249V599q0,35-3,41t-19,8l-55,5v27H274V653l-55-5q-16-2-19-8t-3-41V234q0-107 40.5-159T361,23q84,0 126,53t42,154V599q0,35-3,41t-19,8l-55,5Zm41,131l-17-20q-34,25-63.5,49.5T358,863q-23-25-50.5-49.5T248,764l-17,20q24,27 40,46.5t29,41T328,925h67q16-32 29-53.5t29-41T493,784Z" />
      <glyph unicode="&#xdc;" glyph-name="Udieresis" horiz-adv-x="677" d="M452,653v27H643V653l-55-5q-16-2-19-8t-3-41V231q0-114-52.5-177.5T353-10Q235-10 172.5,59T110,249V599q0,35-3,41t-19,8l-55,5v27H274V653l-55-5q-16-2-19-8t-3-41V234q0-107 40.5-159T361,23q84,0 126,53t42,154V599q0,35-3,41t-19,8l-55,5ZM260,796q-22,0-36.5,14.5T209,848q0,22 14.5,36T260,898q23,0 37-14t14-36q0-23-14-37.5T260,796Zm203,0q-22,0-36.5,14.5T412,848q0,22 14.5,36T463,898q23,0 37.5-14T515,848q0-23-14.5-37.5T463,796Z" />
      <glyph unicode="&#xdd;" glyph-name="Yacute" horiz-adv-x="588" d="M415,26V0H174V26l55,6q16,2 19,8t3,41V290L90,605q-10,20-15.5,28.5t-11,11T47,648l-51,5v27H238V653l-51-5q-15-2-15.5-8T185,605L321,332L460,605q15,29 14,35t-16,8l-51,5v27H592V653l-52-5q-10-1-15.5-3.5t-11-11T498,605L338,292V81q0-35 3-41t19-8l55-6ZM314,764l-21,19q24,34 39.5,65T360,925h96q-30-46-63.5-84T314,764Z" />
      <glyph unicode="&#xde;" glyph-name="Thorn" horiz-adv-x="574" d="M48,653v27H309V653l-75-5q-16-1-19-7.5T212,599V538H332q99,0 151-49.5T535,357V328q0-82-52-132T332,146H212V81q0-35 3-41.5T234,32l75-6V0H48V26l55,6q16,2 19,8t3,41V599q0,35-3,41.5T103,648l-55,5ZM332,506H212V178H332q111,0 111,136v57q0,135-111,135Z" />
      <glyph unicode="&#xdf;" glyph-name="germandbls" horiz-adv-x="621" d="M194,581V0H35V26l55,6q16,2 19,8t3,41V414q0,35-3,41t-19,8l-55,5v27h77v72q0,47 17,89t58.5,68T302,750q61,0 98.5-18.5t55-47T473,625q0-32-14-58t-32-49.5T395,468t-14-58q0-34 19-54.5T457,308l41-31q40-29 63-66t23-84q0-58-39-97.5T434-10q-59,0-104,28.5T267,114l56,20q11-65 40-89t70-24q35,0 61,20.5T520,104q0,26-14.5,48T453,202l-41,31q-39,29-65,56.5T321,366q0,35 12.5,62t29,53.5t29,58T404,614q0,49-23,76.5T302,718q-51,0-79.5-28T194,581Z" />
      <glyph unicode="&#xe0;" glyph-name="agrave" horiz-adv-x="540" d="M447-7q-78,0-92,72Q320,25 278,7.5T195-10Q125-10 92,29T59,123q0,59 40.5,93.5T240,251H353v81q0,80-27.5,110.5T251,473q-30,0-54-12t-34.5-43.5T160,326L81,338q-5,47 12.5,84.5t58,60T253,505q73,0 112-24.5T419.5,417T435,332V107q0-51 11.5-64T472,30q9,0 19,4.5T513,49l18-25Q516,11 495.5,2T447-7ZM223,32q28,0 60.5,15.5T353,110V219H251q-56,0-81.5-22.5T144,127q0-45 19.5-70T223,32Zm35,547q-46,39-79.5,77T115,740h96q12-46 27.5-77T279,598l-21-19Z" />
      <glyph unicode="&#xe1;" glyph-name="aacute" horiz-adv-x="540" d="M447-7q-78,0-92,72Q320,25 278,7.5T195-10Q125-10 92,29T59,123q0,59 40.5,93.5T240,251H353v81q0,80-27.5,110.5T251,473q-30,0-54-12t-34.5-43.5T160,326L81,338q-5,47 12.5,84.5t58,60T253,505q73,0 112-24.5T419.5,417T435,332V107q0-51 11.5-64T472,30q9,0 19,4.5T513,49l18-25Q516,11 495.5,2T447-7ZM223,32q28,0 60.5,15.5T353,110V219H251q-56,0-81.5-22.5T144,127q0-45 19.5-70T223,32Zm33,547l-21,19q24,34 39.5,65T302,740h96q-30-46-63.5-84T256,579Z" />
      <glyph unicode="&#xe2;" glyph-name="acircumflex" horiz-adv-x="540" d="M447-7q-78,0-92,72Q320,25 278,7.5T195-10Q125-10 92,29T59,123q0,59 40.5,93.5T240,251H353v81q0,80-27.5,110.5T251,473q-30,0-54-12t-34.5-43.5T160,326L81,338q-5,47 12.5,84.5t58,60T253,505q73,0 112-24.5T419.5,417T435,332V107q0-51 11.5-64T472,30q9,0 19,4.5T513,49l18-25Q516,11 495.5,2T447-7ZM223,32q28,0 60.5,15.5T353,110V219H251q-56,0-81.5-22.5T144,127q0-45 19.5-70T223,32ZM388,599l-17-20q-34,25-63.5,49.5T253,678q-23-25-50.5-49.5T143,579l-17,20q24,27 40,46.5t29,41T223,740h67q16-32 29-53.5t29-41T388,599Z" />
      <glyph unicode="&#xe3;" glyph-name="atilde" horiz-adv-x="540" d="M447-7q-78,0-92,72Q320,25 278,7.5T195-10Q125-10 92,29T59,123q0,59 40.5,93.5T240,251H353v81q0,80-27.5,110.5T251,473q-30,0-54-12t-34.5-43.5T160,326L81,338q-5,47 12.5,84.5t58,60T253,505q73,0 112-24.5T419.5,417T435,332V107q0-51 11.5-64T472,30q9,0 19,4.5T513,49l18-25Q516,11 495.5,2T447-7ZM223,32q28,0 60.5,15.5T353,110V219H251q-56,0-81.5-22.5T144,127q0-45 19.5-70T223,32ZM324,589q-24,0-43,13.5t-35.5,31t-31.5,31T183,678q-38,0-44-78H108q4,71 25.5,105T191,739q24,0 43-13.5t35-31t31-31T331,650q17,0 28.5,19T374,728h32q-4-71-25.5-105T324,589Z" />
      <glyph unicode="&#xe4;" glyph-name="adieresis" horiz-adv-x="540" d="M447-7q-78,0-92,72Q320,25 278,7.5T195-10Q125-10 92,29T59,123q0,59 40.5,93.5T240,251H353v81q0,80-27.5,110.5T251,473q-30,0-54-12t-34.5-43.5T160,326L81,338q-5,47 12.5,84.5t58,60T253,505q73,0 112-24.5T419.5,417T435,332V107q0-51 11.5-64T472,30q9,0 19,4.5T513,49l18-25Q516,11 495.5,2T447-7ZM223,32q28,0 60.5,15.5T353,110V219H251q-56,0-81.5-22.5T144,127q0-45 19.5-70T223,32ZM155,611q-22,0-36.5,14.5T104,663q0,22 14.5,36T155,713q23,0 37-14t14-36q0-23-14-37.5T155,611Zm203,0q-22,0-36.5,14.5T307,663q0,22 14.5,36T358,713q23,0 37.5-14T410,663q0-23-14.5-37.5T358,611Z" />
      <glyph unicode="&#xe5;" glyph-name="aring" horiz-adv-x="540" d="M447-7q-78,0-92,72Q320,25 278,7.5T195-10Q125-10 92,29T59,123q0,59 40.5,93.5T240,251H353v81q0,80-27.5,110.5T251,473q-30,0-54-12t-34.5-43.5T160,326L81,338q-5,47 12.5,84.5t58,60T253,505q73,0 112-24.5T419.5,417T435,332V107q0-51 11.5-64T472,30q9,0 19,4.5T513,49l18-25Q516,11 495.5,2T447-7ZM223,32q28,0 60.5,15.5T353,110V219H251q-56,0-81.5-22.5T144,127q0-45 19.5-70T223,32ZM377,681V670q0-27-14.5-52t-41-41T257,561t-65,16t-41,41t-14,52v11q0,27 14,52t41,40.5T257,789t64.5-15.5t41-40.5T377,681Zm-60,7q0,76-60,76t-60-76V663q0-76 60-76t60,76v25Z" />
      <glyph unicode="&#xe6;" glyph-name="ae" horiz-adv-x="814" d="M750,114q-18-68-67-96T573-10q-70,0-117.5,28T382,97q-40-57-88.5-82T195-10Q125-10 92,29T59,123q0,59 40.5,93.5T240,251H353v81q0,80-27.5,110.5T251,473q-30,0-54-12t-34.5-43.5T160,326L81,338q-5,47 12.5,84.5t58,60T253,505q65,0 100.5-23T405,422q24,40 63,61.5T560,505q54,0 98.5-22T729,418t26-107q0-30-6-63H443V218q0-105 32-150.5T580,22q47,0 77.5,24T697,129l53-15ZM560,473q-59,0-88-45T443,280H668v3q2,13 3,25.5t1,22.5q0,75-31,108.5T560,473ZM223,32q30,0 66,19t79,79q-12,40-15,89H251q-56,0-81.5-22.5T144,127q0-45 19.5-70T223,32Z" />
      <glyph unicode="&#xe7;" glyph-name="ccedilla" horiz-adv-x="502" d="M390-140q0-39-31-61t-80-22q-38,0-68.5,17.5T172-145l48,14q4-35 18-49.5T275-195q26,0 38,15.5T325-140q0,23-12.5,38.5T267-86q-11,0-23-2L234-63L256-9Q159-2 111,64.5T63,238v20q0,112 53,179.5T269,505q64,0 106.5-25T436,412.5T446,319l-79-12q11,80-14.5,123T269,473q-55,0-85.5-45.5T153,278V218q0-105 30.5-150.5T283,22q47,0 76,24t39,83l53-15q-17-64-61-92.5T291-10L271-58q53,0 86-21.5T390-140Z" />
      <glyph unicode="&#xe8;" glyph-name="egrave" horiz-adv-x="525" d="M461,114q-18-68-67.5-96T284-10Q173-10 118,57.5T63,238v20q0,112 53,179.5T270,505q54,0 98.5-22t71-65T466,311q0-30-6-63H153V218q0-105 32.5-150.5T291,22q46,0 76.5,24T408,129l53-15ZM270,473q-59,0-88-45T153,280H378v3q2,13 3,25.5t1,22.5q0,75-31,108.5T270,473Zm-1,106q-46,39-79.5,77T126,740h96q12-46 27.5-77T290,598l-21-19Z" />
      <glyph unicode="&#xe9;" glyph-name="eacute" horiz-adv-x="525" d="M461,114q-18-68-67.5-96T284-10Q173-10 118,57.5T63,238v20q0,112 53,179.5T270,505q54,0 98.5-22t71-65T466,311q0-30-6-63H153V218q0-105 32.5-150.5T291,22q46,0 76.5,24T408,129l53-15ZM270,473q-59,0-88-45T153,280H378v3q2,13 3,25.5t1,22.5q0,75-31,108.5T270,473Zm-3,106l-21,19q24,34 39.5,65T313,740h96q-30-46-63.5-84T267,579Z" />
      <glyph unicode="&#xea;" glyph-name="ecircumflex" horiz-adv-x="525" d="M461,114q-18-68-67.5-96T284-10Q173-10 118,57.5T63,238v20q0,112 53,179.5T270,505q54,0 98.5-22t71-65T466,311q0-30-6-63H153V218q0-105 32.5-150.5T291,22q46,0 76.5,24T408,129l53-15ZM270,473q-59,0-88-45T153,280H378v3q2,13 3,25.5t1,22.5q0,75-31,108.5T270,473ZM400,599l-17-20q-34,25-63.5,49.5T265,678q-23-25-50.5-49.5T155,579l-17,20q24,27 40,46.5t29,41T235,740h67q16-32 29-53.5t29-41T400,599Z" />
      <glyph unicode="&#xeb;" glyph-name="edieresis" horiz-adv-x="525" d="M461,114q-18-68-67.5-96T284-10Q173-10 118,57.5T63,238v20q0,112 53,179.5T270,505q54,0 98.5-22t71-65T466,311q0-30-6-63H153V218q0-105 32.5-150.5T291,22q46,0 76.5,24T408,129l53-15ZM270,473q-59,0-88-45T153,280H378v3q2,13 3,25.5t1,22.5q0,75-31,108.5T270,473ZM166,611q-22,0-36.5,14.5T115,663q0,22 14.5,36T166,713q23,0 37-14t14-36q0-23-14-37.5T166,611Zm203,0q-22,0-36.5,14.5T318,663q0,22 14.5,36T369,713q23,0 37.5-14T421,663q0-23-14.5-37.5T369,611Z" />
      <glyph unicode="&#xec;" glyph-name="igrave" horiz-adv-x="299" d="M35,468v27H194V81q0-35 3-41t19-8l55-6V0H35V26l55,6q16,2 19,8t3,41V414q0,35-3,41t-19,8l-55,5ZM148,579q-46,39-79.5,77T5,740h96q12-46 27.5-77T169,598l-21-19Z" />
      <glyph unicode="&#xed;" glyph-name="iacute" horiz-adv-x="299" d="M35,468v27H194V81q0-35 3-41t19-8l55-6V0H35V26l55,6q16,2 19,8t3,41V414q0,35-3,41t-19,8l-55,5ZM146,579l-21,19q24,34 39.5,65T192,740h96q-30-46-63.5-84T146,579Z" />
      <glyph unicode="&#xee;" glyph-name="icircumflex" horiz-adv-x="299" d="M35,468v27H194V81q0-35 3-41t19-8l55-6V0H35V26l55,6q16,2 19,8t3,41V414q0,35-3,41t-19,8l-55,5ZM278,599l-17-20q-34,25-63.5,49.5T143,678q-23-25-50.5-49.5T33,579L16,599q24,27 40,46.5t29,41T113,740h67q16-32 29-53.5t29-41T278,599Z" />
      <glyph unicode="&#xef;" glyph-name="idieresis" horiz-adv-x="299" d="M35,468v27H194V81q0-35 3-41t19-8l55-6V0H35V26l55,6q16,2 19,8t3,41V414q0,35-3,41t-19,8l-55,5ZM45,611q-22,0-36.5,14.5T-6,663q0,22 14.5,36T45,713q23,0 37-14t14-36q0-23-14-37.5T45,611Zm203,0q-22,0-36.5,14.5T197,663q0,22 14.5,36T248,713q23,0 37.5-14T300,663q0-23-14.5-37.5T248,611Z" />
      <glyph unicode="&#xf0;" glyph-name="eth" horiz-adv-x="559" d="M493,259q0-125-55.5-197T275-10Q172-10 116.5,50T61,211v20q0,100 55.5,160T269,451q71,0 126-43q-12,65-37.5,116.5T296,617L181,532l-19,27l111,82q-25,24-54,44.5T158,723l11,27q78-37 138-85l115,85l19-27L332,643q77-70 119-160.5T493,287V259ZM151,191q0-91 32.5-130T275,22q65,0 96.5,49.5T403,239v68q0,14-0.5,26.5T401,359q-32,36-65.5,48T272,419q-57,0-89-38.5T151,251V191Z" />
      <glyph unicode="&#xf1;" glyph-name="ntilde" horiz-adv-x="617" d="M594,26V0H358V26l55,6q16,2 19,8t3,41V330q0,74-24,104.5T342,465q-33,0-73-20t-75-78V81q0-35 3-41t19-8l55-6V0H35V26l55,6q16,2 19,8t3,41V414q0,35-3,41t-19,8l-55,5v27H189V414q36,48 81.5,69.5T362,505q74,0 114.5-45.5T517,331V81q0-35 3-41t19-8l55-6ZM383,589q-24,0-43,13.5t-35.5,31t-31.5,31T242,678q-38,0-44-78H167q4,71 25.5,105T250,739q24,0 43-13.5t35-31t31-31T390,650q17,0 28.5,19T433,728h32q-4-71-25.5-105T383,589Z" />
      <glyph unicode="&#xf2;" glyph-name="ograve" horiz-adv-x="557" d="M495,258V238q0-113-56.5-180.5T278-10Q175-10 118.5,57.5T62,238v20q0,112 56,179.5T278,505t160.5-67.5T495,258Zm-90,20q0,104-32.5,149.5T278,473q-61,0-93.5-45.5T152,278V218q0-105 32.5-150.5T278,22q62,0 94.5,45.5T405,218v60ZM279,579q-46,39-79.5,77T136,740h96q12-46 27.5-77T300,598l-21-19Z" />
      <glyph unicode="&#xf3;" glyph-name="oacute" horiz-adv-x="557" d="M495,258V238q0-113-56.5-180.5T278-10Q175-10 118.5,57.5T62,238v20q0,112 56,179.5T278,505t160.5-67.5T495,258Zm-90,20q0,104-32.5,149.5T278,473q-61,0-93.5-45.5T152,278V218q0-105 32.5-150.5T278,22q62,0 94.5,45.5T405,218v60ZM277,579l-21,19q24,34 39.5,65T323,740h96q-30-46-63.5-84T277,579Z" />
      <glyph unicode="&#xf4;" glyph-name="ocircumflex" horiz-adv-x="557" d="M495,258V238q0-113-56.5-180.5T278-10Q175-10 118.5,57.5T62,238v20q0,112 56,179.5T278,505t160.5-67.5T495,258Zm-90,20q0,104-32.5,149.5T278,473q-61,0-93.5-45.5T152,278V218q0-105 32.5-150.5T278,22q62,0 94.5,45.5T405,218v60Zm4,321l-17-20q-34,25-63.5,49.5T274,678q-23-25-50.5-49.5T164,579l-17,20q24,27 40,46.5t29,41T244,740h67q16-32 29-53.5t29-41T409,599Z" />
      <glyph unicode="&#xf5;" glyph-name="otilde" horiz-adv-x="557" d="M495,258V238q0-113-56.5-180.5T278-10Q175-10 118.5,57.5T62,238v20q0,112 56,179.5T278,505t160.5-67.5T495,258Zm-90,20q0,104-32.5,149.5T278,473q-61,0-93.5-45.5T152,278V218q0-105 32.5-150.5T278,22q62,0 94.5,45.5T405,218v60ZM345,589q-24,0-43,13.5t-35.5,31t-31.5,31T204,678q-38,0-44-78H129q4,71 25.5,105T212,739q24,0 43-13.5t35-31t31-31T352,650q17,0 28.5,19T395,728h32q-4-71-25.5-105T345,589Z" />
      <glyph unicode="&#xf6;" glyph-name="odieresis" horiz-adv-x="557" d="M495,258V238q0-113-56.5-180.5T278-10Q175-10 118.5,57.5T62,238v20q0,112 56,179.5T278,505t160.5-67.5T495,258Zm-90,20q0,104-32.5,149.5T278,473q-61,0-93.5-45.5T152,278V218q0-105 32.5-150.5T278,22q62,0 94.5,45.5T405,218v60ZM176,611q-22,0-36.5,14.5T125,663q0,22 14.5,36T176,713q23,0 37-14t14-36q0-23-14-37.5T176,611Zm203,0q-22,0-36.5,14.5T328,663q0,22 14.5,36T379,713q23,0 37.5-14T431,663q0-23-14.5-37.5T379,611Z" />
      <glyph unicode="&#xf7;" glyph-name="divide" horiz-adv-x="588" d="M294,478q-25,0-41,16t-16,41t16,41t41,16t41-16t16-41t-16-41t-41-16ZM87,317v33H501V317H87ZM294,76q-25,0-41,16t-16,41t16,40.5T294,189t41-15.5T351,133T335,92T294,76Z" />
      <glyph unicode="&#xf8;" glyph-name="oslash" horiz-adv-x="557" d="M495,238q0-113-56.5-180.5T278-10q-85,0-141,48L107,0H62l50,65Q62,129 62,238v20q0,112 56,179.5T278,505q85,0 141-48l30,38h46l-51-65q51-66 51-172V238ZM152,218q0-53 9-92L382,410q-16,33-42,48t-62,15q-61,0-93.5-45.5T152,278V218Zm253,60q0,54-9,91L174,86q16-34 42-49t62-15q62,0 94.5,45.5T405,218v60Z" />
      <glyph unicode="&#xf9;" glyph-name="ugrave" horiz-adv-x="599" d="M570,26V0H416V80q-35-47-79.5-68.5T248-10q-71,0-110.5,45.5T98,164V414q0,35-3,41t-19,8l-55,5v27H180V165q0-74 22.5-104.5T268,30q32,0 70.5,20T411,127V414q0,35-3,41.5T389,463l-75,5v27H493V81q0-35 3-41t19-8l55-6ZM296,579q-46,39-79.5,77T153,740h96q12-46 27.5-77T317,598l-21-19Z" />
      <glyph unicode="&#xfa;" glyph-name="uacute" horiz-adv-x="599" d="M570,26V0H416V80q-35-47-79.5-68.5T248-10q-71,0-110.5,45.5T98,164V414q0,35-3,41t-19,8l-55,5v27H180V165q0-74 22.5-104.5T268,30q32,0 70.5,20T411,127V414q0,35-3,41.5T389,463l-75,5v27H493V81q0-35 3-41t19-8l55-6ZM294,579l-21,19q24,34 39.5,65T340,740h96q-30-46-63.5-84T294,579Z" />
      <glyph unicode="&#xfb;" glyph-name="ucircumflex" horiz-adv-x="599" d="M570,26V0H416V80q-35-47-79.5-68.5T248-10q-71,0-110.5,45.5T98,164V414q0,35-3,41t-19,8l-55,5v27H180V165q0-74 22.5-104.5T268,30q32,0 70.5,20T411,127V414q0,35-3,41.5T389,463l-75,5v27H493V81q0-35 3-41t19-8l55-6ZM427,599l-17-20q-34,25-63.5,49.5T292,678q-23-25-50.5-49.5T182,579l-17,20q24,27 40,46.5t29,41T262,740h67q16-32 29-53.5t29-41T427,599Z" />
      <glyph unicode="&#xfc;" glyph-name="udieresis" horiz-adv-x="599" d="M570,26V0H416V80q-35-47-79.5-68.5T248-10q-71,0-110.5,45.5T98,164V414q0,35-3,41t-19,8l-55,5v27H180V165q0-74 22.5-104.5T268,30q32,0 70.5,20T411,127V414q0,35-3,41.5T389,463l-75,5v27H493V81q0-35 3-41t19-8l55-6ZM193,611q-22,0-36.5,14.5T142,663q0,22 14.5,36T193,713q23,0 37-14t14-36q0-23-14-37.5T193,611Zm203,0q-22,0-36.5,14.5T345,663q0,22 14.5,36T396,713q23,0 37.5-14T448,663q0-23-14.5-37.5T396,611Z" />
      <glyph unicode="&#xfd;" glyph-name="yacute" horiz-adv-x="528" d="M280-50q-22-61-48-99.5t-62-56T80-223v80q72,0 109,22.5T248-37L261,0H232L85,420q-10,29-15,34.5T49,462l-51,6v27H226V468l-51-6q-14-1-16-7t8-35L287,74L408,421q9,29 7.5,34T399,462l-52,6v27H530V468l-51-6q-15-2-20-7t-15-34L280-50Zm4,629l-21,19q24,34 39.5,65T330,740h96q-30-46-63.5-84T284,579Z" />
      <glyph unicode="&#xfe;" glyph-name="thorn" horiz-adv-x="577" d="M25,714v26H184V422q31,44 67.5,63.5T331,505q86,0 133.5-65T512,258V238q0-114-55-181T304-10q-71,0-120,44V-132q0-34 3-40.5t19-8.5l75-5v-27H25v27l55,5q16,2 19,8.5t3,40.5V659q0,35-3,41t-19,8l-55,6ZM318,469q-31,0-65-20t-69-81V82q44-59 115-59q65,0 94,49.5T422,208v80q0,94-27.5,137.5T318,469Z" />
      <glyph unicode="&#xff;" glyph-name="ydieresis" horiz-adv-x="528" d="M280-50q-22-61-48-99.5t-62-56T80-223v80q72,0 109,22.5T248-37L261,0H232L85,420q-10,29-15,34.5T49,462l-51,6v27H226V468l-51-6q-14-1-16-7t8-35L287,74L408,421q9,29 7.5,34T399,462l-52,6v27H530V468l-51-6q-15-2-20-7t-15-34L280-50ZM182,611q-22,0-36.5,14.5T131,663q0,22 14.5,36T182,713q23,0 37-14t14-36q0-23-14-37.5T182,611Zm203,0q-22,0-36.5,14.5T334,663q0,22 14.5,36T385,713q23,0 37.5-14T437,663q0-23-14.5-37.5T385,611Z" />
      <glyph unicode="&#x2013;" glyph-name="endash" horiz-adv-x="604" d="M70,317v35H534V317H70Z" />
      <glyph unicode="&#x2014;" glyph-name="emdash" horiz-adv-x="804" d="M70,317v35H734V317H70Z" />
      <glyph unicode="&#x2018;" glyph-name="quoteleft" horiz-adv-x="258" d="M179,484q0-23-14-37.5T128,432T90,448T75,495q0,39 24,91t66,104l22-19q-31-41-45.5-73.5T125,536h3q23,0 37-14.5T179,484Z" />
      <glyph unicode="&#x2019;" glyph-name="quoteright" horiz-adv-x="258" d="M183,627q0-39-24.5-91.5T92,432L71,451q32,41 46,73.5T132,585h-2q-22,0-37,14.5T78,638q0,23 15,37.5T130,690q23,0 38-16t15-47Z" />
      <glyph unicode="&#x201a;" glyph-name="quotesinglbase" horiz-adv-x="258" d="M182,31q0-38-24.5-90T91-163L69-144q32,41 46,73.5T131-10h-2Q106-10 91.5,4.5T77,42T91.5,79.5T129,94t38-16t15-47Z" />
      <glyph unicode="&#x201c;" glyph-name="quotedblleft" horiz-adv-x="425" d="M347,484q0-23-14.5-37.5T295,432t-38,16t-15,47q0,39 24.5,91T333,690l21-19q-31-41-45-73.5T293,536h2q23,0 37.5-14.5T347,484Zm-168,0q0-23-14-37.5T128,432T90,448T75,495q0,39 24,91t66,104l22-19q-31-41-45.5-73.5T125,536h3q23,0 37-14.5T179,484Z" />
      <glyph unicode="&#x201d;" glyph-name="quotedblright" horiz-adv-x="425" d="M183,627q0-39-24.5-91.5T92,432L71,451q32,41 46,73.5T132,585h-2q-22,0-37,14.5T78,638q0,23 15,37.5T130,690q23,0 38-16t15-47Zm167,0q0-39-24-91.5T260,432l-22,19q32,41 46,73.5T300,585h-3q-22,0-36.5,14.5T246,638q0,23 14.5,37.5T297,690q23,0 38-16t15-47Z" />
      <glyph unicode="&#x201e;" glyph-name="quotedblbase" horiz-adv-x="425" d="M182,31q0-38-24.5-90T91-163L69-144q32,41 46,73.5T131-10h-2Q106-10 91.5,4.5T77,42T91.5,79.5T129,94t38-16t15-47Zm167,0q0-38-24.5-90T258-163l-22,19q32,41 46,73.5T298-10h-2q-23,0-37.5,14.5T244,42t14.5,37.5T296,94t38-16t15-47Z" />
      <glyph unicode="&#x2022;" glyph-name="bullet" horiz-adv-x="263" d="M131,256q-33,0-55,22T54,334q0,33 22,54.5T131,410q34,0 55.5-21.5T208,334q0-34-21.5-56T131,256Z" />
      <glyph unicode="&#x2039;" glyph-name="guilsinglleft" horiz-adv-x="395" d="M338,27L320,10L53,232v24L320,478l18-18L151,244L338,27Z" />
      <glyph unicode="&#x203a;" glyph-name="guilsinglright" horiz-adv-x="395" d="M57,461l17,18L342,257V233L74,11L57,28L243,245L57,461Z" />
    </font>
</defs>
</svg>
